<svg id="organize" xmlns="http://www.w3.org/2000/svg" width="512" height="512" viewBox="0 0 512 512">
  <path id="Path_9" data-name="Path 9" d="M354,64H300V61.426a29.008,29.008,0,0,0-28.977-28.977H252.48A54.123,54.123,0,0,0,202.965,0h-1.93A54.123,54.123,0,0,0,151.52,32.449H132.977A29.008,29.008,0,0,0,104,61.426V64H50C18.691,64,0,78.953,0,104V462a50.056,50.056,0,0,0,50,50H354a50.056,50.056,0,0,0,50-50V235.668a10,10,0,0,0-20,0V462a30.033,30.033,0,0,1-30,30H50a30.033,30.033,0,0,1-30-30V104c0-4.945,0-20,30-20h54V98a10,10,0,0,0,10,10H290a10,10,0,0,0,10-10V84h54a30.033,30.033,0,0,1,30,30v33.668a10,10,0,0,0,20,0V114A50.056,50.056,0,0,0,354,64ZM280,88H124V61.426a8.987,8.987,0,0,1,8.977-8.977h25.6a10,10,0,0,0,9.652-7.379A34.047,34.047,0,0,1,201.035,20h1.93a34.055,34.055,0,0,1,32.809,25.07,10,10,0,0,0,9.648,7.379h25.605A8.984,8.984,0,0,1,280,61.426Zm0,0" fill="#7e96b8"/>
  <path id="Path_10" data-name="Path 10" d="M394,179.512a9.983,9.983,0,1,0,7.07,2.918A10.068,10.068,0,0,0,394,179.512Zm0,0" fill="#7e96b8"/>
  <path id="Path_11" data-name="Path 11" d="M502,322a10,10,0,1,0,7.07,2.93A10.08,10.08,0,0,0,502,322Zm0,0" fill="#7e96b8"/>
  <path id="Path_12" data-name="Path 12" d="M511.129,185.422l-32-71.508a10,10,0,0,0-18.258,0l-32,71.508A9.992,9.992,0,0,0,428,189.5V488.125A23.9,23.9,0,0,0,451.875,512h36.25A23.9,23.9,0,0,0,512,488.125V375.668a10,10,0,0,0-20,0v69.918H448V199.5h44v92.3a10,10,0,0,0,20,0V189.5A9.992,9.992,0,0,0,511.129,185.422ZM470,142.48,486.57,179.5H453.43Zm22,323.105v22.539A3.879,3.879,0,0,1,488.125,492h-36.25A3.879,3.879,0,0,1,448,488.125V465.586Zm0,0" fill="#7e96b8"/>
  <path id="Path_13" data-name="Path 13" d="M117.668,144a42,42,0,1,0,42,42A42.046,42.046,0,0,0,117.668,144Zm0,64a22,22,0,1,1,22-22A22.022,22.022,0,0,1,117.668,208Zm0,0" fill="#7e96b8"/>
  <path id="Path_14" data-name="Path 14" d="M117.668,264a42,42,0,1,0,42,42A42.046,42.046,0,0,0,117.668,264Zm0,64a22,22,0,1,1,22-22A22.022,22.022,0,0,1,117.668,328Zm0,0" fill="#7e96b8"/>
  <path id="Path_15" data-name="Path 15" d="M117.668,384a42,42,0,1,0,42,42A42.046,42.046,0,0,0,117.668,384Zm0,64a22,22,0,1,1,22-22A22.022,22.022,0,0,1,117.668,448Zm0,0" fill="#7e96b8"/>
  <path id="Path_16" data-name="Path 16" d="M318.332,208H203.668a10,10,0,0,0,0,20H318.336a10,10,0,1,0,0-20Zm0,0" fill="#7e96b8"/>
  <path id="Path_17" data-name="Path 17" d="M318.332,160H203.668a10,10,0,0,0,0,20H318.336a10,10,0,1,0,0-20Zm0,0" fill="#7e96b8"/>
  <path id="Path_18" data-name="Path 18" d="M318.332,328H203.668a10,10,0,0,0,0,20H318.336a10,10,0,1,0,0-20Zm0,0" fill="#7e96b8"/>
  <path id="Path_19" data-name="Path 19" d="M318.332,280H203.668a10,10,0,0,0,0,20H318.336a10,10,0,1,0,0-20Zm0,0" fill="#7e96b8"/>
  <path id="Path_20" data-name="Path 20" d="M318.332,448H203.668a10,10,0,0,0,0,20H318.336a10,10,0,1,0,0-20Zm0,0" fill="#7e96b8"/>
  <path id="Path_21" data-name="Path 21" d="M318.332,400H203.668a10,10,0,0,0,0,20H318.336a10,10,0,1,0,0-20Zm0,0" fill="#7e96b8"/>
</svg>
