<svg xmlns="http://www.w3.org/2000/svg" width="490.282" height="422.312" viewBox="0 0 490.282 422.312">
  <g id="paper-plane" transform="translate(0 -33.985)">
    <path id="Path_22" data-name="Path 22" d="M.043,245.2a23.756,23.756,0,0,0,17,21.5l179.6,54.3,6.6,123.8a12.276,12.276,0,0,0,8.3,10.8,11.25,11.25,0,0,0,4,.7,12.151,12.151,0,0,0,9.2-4.1l63.5-70.3,90,62.3a23.61,23.61,0,0,0,13.6,4.3,24.141,24.141,0,0,0,23.5-19.2l74.7-380.7a12.223,12.223,0,0,0-16.6-13.7l-459,186.8A24.133,24.133,0,0,0,.043,245.2Zm226,168.9-4.1-78.1,46,31.8Zm165.4,9.5-163.8-113.4L457.343,88Zm40.7-345.4-227.1,219.7-179.4-54.2Z" fill="#7e96b8"/>
  </g>
</svg>
