<svg height="512pt" viewBox="-15 0 512 512.00005" width="512pt" xmlns="http://www.w3.org/2000/svg"><path d="m195.035156 270.757812 54.957032-205.113281c1.074218-4-1.300782-8.113281-5.300782-9.1875l-131.925781-35.347656c-4-1.070313-8.113281 1.300781-9.183594 5.304687l-54.960937 205.113282c-8.105469 30.257812-2.480469 71.015625 20.460937 94.515625 8.800781 9.019531 12.457031 21.863281 9.195313 34.035156l-16.433594 61.328125c-1.1875 4.441406-4.347656 8.089844-8.570312 9.902344l-48.742188 20.925781c-6.40625 2.753906-6.058594 12.242187 1.289062 14.210937l108.820313 29.15625c7.347656 1.96875 12.398437-6.070312 8.222656-11.660156l-31.746093-42.492187c-2.753907-3.683594-3.664063-8.421875-2.472657-12.859375l16.433594-61.332032c3.261719-12.171874 12.847656-21.464843 24.980469-24.875 31.855468-8.949218 56.949218-41.679687 64.976562-71.625zm0 0" fill="#e3f2fd"/><path d="m48.621094 231.527344c-8.105469 30.257812-2.480469 71.015625 20.460937 94.515625 8.800781 9.019531 12.457031 21.863281 9.195313 34.035156l-16.433594 61.328125c-1.1875 4.441406-4.347656 8.089844-8.570312 9.902344l-48.742188 20.925781c-6.40625 2.753906-6.058594 12.242187 1.289062 14.210937l108.820313 29.15625c7.347656 1.96875 12.398437-6.070312 8.222656-11.660156l-31.746093-42.492187c-2.753907-3.683594-3.664063-8.421875-2.472657-12.859375l16.433594-61.332032c3.261719-12.171874 12.847656-21.464843 24.980469-24.875 31.855468-8.949218 56.953125-41.679687 64.976562-71.625zm0 0" fill="#90caf9"/><path d="m244.691406 56.457031-35.078125-9.398437-19.070312 71.164062-33.832031 126.265625c-10.824219 40.402344-48.636719 63.246094-85.914063 57.1875 41.070313 39.636719 110.359375 20.871094 125.914063-37.1875l53.28125-198.84375c1.074218-4.003906-1.300782-8.117187-5.300782-9.1875zm0 0" fill="#90caf9"/><path d="m432.492188 247.621094-54.960938-205.113282c-1.070312-4.003906-5.183594-6.375-9.1875-5.304687l-131.921875 35.347656c-4 1.074219-6.375 5.1875-5.300781 9.1875l54.957031 205.113281c8.109375 30.257813 33.359375 62.746094 64.976563 71.625 12.132812 3.410157 21.71875 12.703126 24.984374 24.875l16.429688 61.332032c1.191406 4.4375.28125 9.175781-2.46875 12.859375l-31.75 42.492187c-4.175781 5.585938.875 13.628906 8.222656 11.660156l108.816406-29.15625c7.351563-1.96875 7.703126-11.457031 1.292969-14.210937l-48.742187-20.925781c-4.222656-1.8125-7.378906-5.460938-8.570313-9.902344l-16.433593-61.328125c-3.261719-12.171875.394531-25.015625 9.199218-34.035156 23.113282-23.675781 28.480469-64.570313 20.457032-94.515625zm0 0" fill="#e3f2fd"/><path d="m286.078125 286.851562c8.109375 30.257813 33.359375 62.746094 64.976563 71.625 12.132812 3.410157 21.71875 12.703126 24.984374 24.875l16.429688 61.332032c1.191406 4.4375.28125 9.175781-2.46875 12.859375l-31.75 42.492187c-4.175781 5.585938.875 13.628906 8.222656 11.660156l108.816406-29.15625c7.351563-1.96875 7.703126-11.457031 1.292969-14.210937l-48.742187-20.925781c-4.222656-1.8125-7.378906-5.460938-8.570313-9.902344l-16.433593-61.328125c-3.261719-12.171875.394531-25.015625 9.199218-34.035156 23.113282-23.675781 28.480469-64.570313 20.457032-94.515625zm0 0" fill="#90caf9"/><path d="m343.269531 43.921875 25.078125-6.71875c4-1.070313 8.113282 1.300781 9.183594 5.304687l53.285156 198.84375c11.601563 43.304688-13.679687 84.269532-53.058594 94.824219-25.722656 6.890625-52.621093-.421875-71.535156-18.429687 53.777344 8.890625 99.453125-40.925782 84.589844-96.394532zm0 0" fill="#90caf9"/><path d="m430.816406 241.351562-24.035156-89.699218h-5.753906c-33.40625 0-33.628906-14-70.699219-14-37.050781 0-37.296875 14-70.695313 14h-9.773437l34.542969 128.933594c11.480468 42.835937 53.511718 66.265624 93.359375 55.589843 39.382812-10.554687 64.652343-51.527343 53.054687-94.824219zm0 0" fill="#ffca28"/><path d="m430.816406 241.351562-24.035156-89.699218c-14.558594 0-22.015625-.09375-36.144531-5.609375l20.175781 75.308593c14.832031 55.347657-30.679688 105.304688-84.589844 96.394532 18.632813 17.742187 45.449219 25.417968 71.535156 18.429687 39.386719-10.554687 64.65625-51.527343 53.058594-94.824219zm0 0" fill="#ffa000"/><path d="m224.347656 125.488281c-19.6875-.429687-21.039062-7.980469-45.152344-7.980469-24.917968 0-25.328124 8-47.132812 8-21.824219 0-22.183594-8-47.132812-8-3.398438 0-6.367188 2.28125-7.246094 5.558594l-27.382813 102.191406c-11.601562 43.304688 13.679688 84.269532 53.054688 94.820313 39.414062 10.5625 81.765625-12.316406 93.359375-55.589844l34.714844-129.5625c1.257812-4.699219-2.226563-9.332031-7.082032-9.4375zm0 0" fill="#ffca28"/><path d="m224.347656 125.488281c-16.386718-.359375-19.089844-5.265625-33.800781-7.269531l-33.835937 126.269531c-10.792969 40.285157-48.515626 63.265625-85.914063 57.183594 41.070313 39.640625 110.359375 20.875 125.917969-37.183594l34.714844-129.5625c1.257812-4.699219-2.226563-9.332031-7.082032-9.4375zm0 0" fill="#ffa000"/><path d="m217.882812 29.320312-7.65625-15.050781c-1.878906-3.691406-.40625-8.207031 3.28125-10.085937 3.691407-1.878906 8.210938-.410156 10.089844 3.285156l7.65625 15.050781c1.878906 3.691407.410156 8.207031-3.28125 10.085938-3.691406 1.875-8.207031.410156-10.089844-3.285157zm0 0" fill="#ef5350"/><path d="m271.066406 46.632812c-1.878906-3.691406-.40625-8.207031 3.285156-10.085937l15.050782-7.660156c3.6875-1.878907 8.207031-.410157 10.085937 3.285156 1.878907 3.691406.40625 8.207031-3.285156 10.085937l-15.050781 7.65625c-3.6875 1.878907-8.207032.414063-10.085938-3.28125zm0 0" fill="#ef5350"/><path d="m252.425781 30.691406c-3.941406-1.28125-6.09375-5.511718-4.8125-9.453125l5.226563-16.058593c1.28125-3.9375 5.515625-6.089844 9.453125-4.808594 3.941406 1.28125 6.09375 5.515625 4.8125 9.453125l-5.226563 16.058593c-1.285156 3.9375-5.515625 6.09375-9.453125 4.808594zm0 0" fill="#ef5350"/><g fill="#ffd54f"><path d="m111.910156 159.007812c0 4.144532-3.355468 7.503907-7.5 7.503907-4.140625 0-7.5-3.359375-7.5-7.503907 0-4.140624 3.359375-7.5 7.5-7.5 4.144532 0 7.5 3.359376 7.5 7.5zm0 0"/><path d="m163.914062 175.511719c0 4.144531-3.359374 7.5-7.5 7.5-4.144531 0-7.5-3.355469-7.5-7.5 0-4.140625 3.355469-7.5 7.5-7.5 4.140626 0 7.5 3.359375 7.5 7.5zm0 0"/><path d="m312.773438 211.515625c0 4.140625-3.355469 7.5-7.5 7.5-4.140626 0-7.5-3.359375-7.5-7.5 0-4.144531 3.359374-7.503906 7.5-7.503906 4.144531 0 7.5 3.359375 7.5 7.503906zm0 0"/><path d="m359.390625 180.011719c0 4.140625-3.355469 7.5-7.5 7.5-4.140625 0-7.5-3.359375-7.5-7.5 0-4.144531 3.359375-7.5 7.5-7.5 4.144531 0 7.5 3.355469 7.5 7.5zm0 0"/><path d="m387.351562 191.730469c0 4.140625-3.355468 7.5-7.5 7.5-4.140624 0-7.5-3.359375-7.5-7.5 0-4.144531 3.359376-7.5 7.5-7.5 4.144532 0 7.5 3.355469 7.5 7.5zm0 0"/></g><path d="m384.460938 197.640625c5.234374-4.089844 2.953124-12.429687-3.570313-13.332031zm0 0" fill="#ffca28"/><path d="m190.195312 159.007812c0 4.144532-3.359374 7.503907-7.5 7.503907-4.144531 0-7.5-3.359375-7.5-7.503907 0-4.140624 3.355469-7.5 7.5-7.5 4.140626 0 7.5 3.359376 7.5 7.5zm0 0" fill="#ffd54f"/><path d="m190.195312 159.007812c0-4.140624-3.359374-7.5-7.5-7.5-.375 0-.734374.039063-1.09375.089844l-3.558593 13.289063c4.890625 3.878906 12.152343.394531 12.152343-5.878907zm0 0" fill="#ffca28"/></svg>