<?xml version="1.0"?>
<svg xmlns="http://www.w3.org/2000/svg" height="512px" viewBox="-31 0 430 430.08" width="512px"><path d="m273.105469 191.148438c-7.425781 0-14.832031-.863282-22.011719-2.546876-3.664062-.867187-5.9375-4.539062-5.082031-8.214843.859375-3.671875 4.542969-5.914063 8.214843-5.078125 6.152344 1.449218 12.507813 2.183594 18.878907 2.183594 45.175781 0 81.921875-36.746094 81.921875-81.917969 0-45.175781-36.746094-81.921875-81.921875-81.921875-5.457031 0-10.925781.539062-16.234375 1.605468-3.679688.773438-7.289063-1.652343-8.039063-5.351562-.738281-3.695312 1.65625-7.292969 5.347657-8.035156 6.199218-1.238282 12.566406-1.871094 18.925781-1.871094 52.703125 0 95.574219 42.875 95.574219 95.574219s-42.871094 95.574219-95.574219 95.574219zm0 0" fill="#7e96b8"/><path d="m232.148438 191.148438c-7.429688 0-14.835938-.863282-22.015626-2.546876-3.664062-.867187-5.9375-4.539062-5.078124-8.214843.867187-3.671875 4.546874-5.914063 8.210937-5.078125 6.15625 1.449218 12.507813 2.183594 18.882813 2.183594 45.171874 0 81.917968-36.746094 81.917968-81.917969 0-45.175781-36.746094-81.921875-81.917968-81.921875-6.402344 0-12.769532.742187-18.921876 2.195312-3.671874.839844-7.339843-1.40625-8.210937-5.082031-.867187-3.664063 1.40625-7.339844 5.078125-8.210937 7.171875-1.695313 14.59375-2.554688 22.054688-2.554688 52.699218 0 95.570312 42.875 95.570312 95.574219s-42.871094 95.574219-95.570312 95.574219zm0 0" fill="#7e96b8"/><path d="m191.1875 191.148438c-52.699219 0-95.574219-42.875-95.574219-95.574219s42.875-95.574219 95.574219-95.574219 95.574219 42.875 95.574219 95.574219-42.875 95.574219-95.574219 95.574219zm0-177.496094c-45.175781 0-81.921875 36.746094-81.921875 81.921875 0 45.171875 36.746094 81.917969 81.921875 81.917969 45.171875 0 81.917969-36.746094 81.917969-81.917969 0-45.175781-36.746094-81.921875-81.917969-81.921875zm0 0" fill="#7e96b8"/><path d="m191.160156 135.113281c-13.21875 0-25.386718-4.699219-32.554687-12.574219-2.53125-2.785156-2.324219-7.105468.460937-9.644531 2.789063-2.527343 7.09375-2.320312 9.648438.460938 4.546875 5 13.144531 8.105469 22.445312 8.105469 9.199219 0 17.757813-3.050782 22.332032-7.972657 2.582031-2.765625 6.894531-2.898437 9.648437-.351562 2.757813 2.566406 2.917969 6.882812.351563 9.644531-7.179688 7.726562-19.265626 12.332031-32.332032 12.332031zm0 0" fill="#7e96b8"/><path d="m245.800781 71.679688c0 5.65625-4.585937 10.242187-10.242187 10.242187-5.652344 0-10.238282-4.585937-10.238282-10.242187s4.585938-10.238282 10.238282-10.238282c5.65625 0 10.242187 4.582032 10.242187 10.238282zm0 0" fill="#7e96b8"/><path d="m157.054688 71.679688c0 5.65625-4.585938 10.242187-10.242188 10.242187s-10.238281-4.585937-10.238281-10.242187 4.582031-10.238282 10.238281-10.238282 10.242188 4.582032 10.242188 10.238282zm0 0" fill="#7e96b8"/><path d="m334.546875 430.078125h-177.492187c-3.773438 0-6.828126-3.050781-6.828126-6.824219v-22.226562c0-19.085938 21.113282-32.386719 40.0625-32.386719h21.4375c3.773438 0 6.828126 3.050781 6.828126 6.824219 0 3.773437-3.054688 6.828125-6.828126 6.828125h-21.4375c-13.328124 0-26.410156 9.28125-26.410156 18.734375v15.398437h163.839844v-18.324219c0-7.980468-11.386719-15.808593-22.992188-15.808593h-24.792968c-3.773438 0-6.828125-3.054688-6.828125-6.828125 0-3.773438 3.054687-6.824219 6.828125-6.824219h24.792968c17.332032 0 36.648438 12.101563 36.648438 29.460937v25.152344c0 3.773438-3.054688 6.824219-6.828125 6.824219zm0 0" fill="#7e96b8"/><path d="m307.246094 324.265625c-.183594 0-.371094-.003906-.566406-.019531-3.753907-.3125-6.554688-3.605469-6.246094-7.367188l3.414062-41.664062c-.019531-23.519532-18.207031-43.109375-40.566406-43.109375h-34.960938c-22.359374 0-40.546874 19.589843-40.546874 43.667969l3.394531 41.105468c.304687 3.761719-2.496094 7.054688-6.25 7.367188-3.84375.28125-7.058594-2.492188-7.363281-6.246094l-3.414063-41.667969c-.019531-32.167969 24.292969-57.878906 54.179687-57.878906h34.960938c29.886719 0 54.199219 25.710937 54.199219 57.320313l-3.433594 42.226562c-.292969 3.566406-3.28125 6.265625-6.800781 6.265625zm0 0" fill="#7e96b8"/><path d="m245.800781 389.121094c-19.699219 0-37.574219-7.289063-47.816406-19.5-12.425781-14.816406-20.449219-35.40625-20.449219-52.46875v-27.511719c0-11.609375.257813-18.320313 5.664063-21.300781 4.820312-2.679688 9.375.195312 13.386719 2.722656 5.339843 3.367188 13.40625 8.445312 26.582031 8.445312 10.628906 0 23.417969-3.246093 35.785156-6.394531 19.992187-5.085937 37.234375-9.457031 47.660156-1.351562 4.945313 3.847656 7.453125 9.859375 7.453125 17.878906v27.515625c0 17.058594-8.027344 37.652344-20.445312 52.464844-10.246094 12.210937-28.121094 19.5-47.820313 19.5zm-54.535156-105.285156c-.050781 1.527343-.078125 3.425781-.078125 5.804687v27.511719c0 13.828125 6.933594 31.386718 17.257812 43.695312 7.5625 9.019532 21.878907 14.617188 37.355469 14.617188 15.472657 0 29.792969-5.597656 37.359375-14.617188 10.320313-12.308594 17.253906-29.867187 17.253906-43.695312v-27.511719c0-3.589844-.734374-5.980469-2.179687-7.101563-5.140625-4.019531-21.496094.148438-35.921875 3.808594-13.171875 3.34375-26.804688 6.8125-39.144531 6.8125-15.367188 0-25.714844-5.527344-31.902344-9.324218zm0 0" fill="#7e96b8"/><path d="m143.398438 334.507812h-27.046876c-3.773437 0-6.824218-3.054687-6.824218-6.828124 0-3.773438 3.050781-6.828126 6.824218-6.828126h27.046876c3.773437 0 6.828124 3.054688 6.828124 6.828126 0 3.773437-3.054687 6.828124-6.828124 6.828124zm-54.351563 0h-27.308594c-3.773437 0-6.824219-3.054687-6.824219-6.828124 0-3.773438 3.050782-6.828126 6.824219-6.828126h27.308594c3.773437 0 6.824219 3.054688 6.824219 6.828126 0 3.773437-3.050782 6.828124-6.824219 6.828124zm-53.992187-4.296874c-.941407 0-1.90625-.191407-2.820313-.609376-9.527344-4.335937-17.585937-11.269531-23.3125-20.0625-2.058594-3.160156-1.167969-7.386718 1.992187-9.445312 3.160157-2.054688 7.394532-1.160156 9.445313 1.992188 4.308594 6.613281 10.367187 11.828124 17.53125 15.085937 3.433594 1.5625 4.945313 5.609375 3.382813 9.042969-1.148438 2.511718-3.628907 3.996094-6.21875 3.996094zm-28.1875-43.578126c-3.773438 0-6.8281255-2.839843-6.8281255-6.613281v-27.304687c0-3.773438 3.0546875-6.828125 6.8281255-6.828125 3.773437 0 6.824218 3.054687 6.824218 6.828125v26.878906c0 3.773438-3.050781 7.039062-6.824218 7.039062zm0-54.398437c-3.773438 0-6.8281255-3.054687-6.8281255-6.828125v-27.304688c0-3.773437 3.0546875-6.828124 6.8281255-6.828124 3.773437 0 6.824218 3.054687 6.824218 6.828124v27.304688c0 3.773438-3.050781 6.828125-6.824218 6.828125zm0-54.613281c-3.773438 0-6.8281255-3.054688-6.8281255-6.828125v-27.308594c0-3.773437 3.0546875-6.824219 6.8281255-6.824219 3.773437 0 6.824218 3.050782 6.824218 6.824219v27.308594c0 3.773437-3.050781 6.828125-6.824218 6.828125zm.507812-54.582032c-.328125 0-.660156-.019531-.996094-.070312-3.726562-.542969-6.3124998-4.007812-5.765625-7.742188 1.507813-10.359374 5.933594-20.03125 12.808594-27.972656 2.464844-2.855468 6.773437-3.160156 9.625-.695312 2.855469 2.46875 3.160156 6.777344.695313 9.628906-5.160157 5.964844-8.488282 13.234375-9.621094 21.011719-.496094 3.394531-3.414063 5.839843-6.746094 5.839843zm33.816406-39.117187c-2.945312 0-5.65625-1.914063-6.539062-4.875-1.078125-3.613281.972656-7.417969 4.589844-8.492187 5.085937-1.523438 10.371093-2.289063 15.710937-2.289063h13.355469c3.773437 0 6.824218 3.054687 6.824218 6.828125s-3.050781 6.828125-6.824218 6.828125h-13.355469c-4.019531 0-7.992187.578125-11.804687 1.710937-.65625.195313-1.316407.289063-1.957032.289063zm0 0" fill="#7e96b8"/></svg>
