<svg xmlns="http://www.w3.org/2000/svg" width="612.001" height="451.449" viewBox="0 0 612.001 451.449">
  <g id="withdrawing" transform="translate(0 -80.276)">
    <g id="Group_9" data-name="Group 9">
      <g id="Group_8" data-name="Group 8">
        <path id="Path_34" data-name="Path 34" d="M612,238.057a9.563,9.563,0,0,1-19.125,0V99.4H19.126V277.9H77.5a9.563,9.563,0,1,1,0,19.126H9.563A9.566,9.566,0,0,1,0,287.464V89.838a9.566,9.566,0,0,1,9.564-9.562H602.419a9.566,9.566,0,0,1,9.563,9.563V238.058Zm-77.516,58.969h67.934a9.563,9.563,0,0,0,0-19.126H534.485a9.563,9.563,0,0,0,0,19.126Z" fill="#7e96b8"/>
        <path id="Path_35" data-name="Path 35" d="M96.024,198.214a9.563,9.563,0,1,1,0-19.126H515.977a9.563,9.563,0,0,1,0,19.126Z" fill="#7e96b8"/>
        <path id="Path_36" data-name="Path 36" d="M207.189,228.495a9.563,9.563,0,1,1,0,19.125h-76.9v178.5h351.4V247.62H448.025a9.563,9.563,0,1,1,0-19.125h43.229a9.566,9.566,0,0,1,9.563,9.563V435.683a9.579,9.579,0,0,1-9.563,9.562H120.728a9.565,9.565,0,0,1-9.563-9.562V238.057a9.566,9.566,0,0,1,9.563-9.563Zm197.605,0H250.4a9.563,9.563,0,1,0,0,19.125h154.4a9.563,9.563,0,1,0,0-19.125Z" fill="#7e96b8"/>
        <path id="Path_37" data-name="Path 37" d="M120.728,488.495a9.563,9.563,0,1,1,0-19.125H491.275a9.563,9.563,0,0,1,0,19.125Z" fill="#7e96b8"/>
        <path id="Path_38" data-name="Path 38" d="M120.728,531.725a9.563,9.563,0,1,1,0-19.125H491.275a9.563,9.563,0,0,1,0,19.125Z" fill="#7e96b8"/>
        <path id="Path_39" data-name="Path 39" d="M197.626,238.057a9.563,9.563,0,1,1,19.126,0A89.269,89.269,0,0,0,369.1,301.189l.021-.02-.021-.02a88.963,88.963,0,0,0,26.139-63.092,9.563,9.563,0,1,1,19.125,0,108.084,108.084,0,0,1-31.736,76.64l-.021-.021a108.347,108.347,0,0,1-184.976-76.619Z" fill="#7e96b8"/>
        <path id="Path_40" data-name="Path 40" d="M120.728,371.155a9.563,9.563,0,1,1,0-19.125A83.662,83.662,0,0,1,204.4,435.7a9.563,9.563,0,0,1-19.126,0,64.549,64.549,0,0,0-64.546-64.547Z" fill="#7e96b8"/>
        <path id="Path_41" data-name="Path 41" d="M491.274,352.03a9.563,9.563,0,0,1,0,19.125,64.333,64.333,0,0,0-45.642,18.866l-.04.04A64.332,64.332,0,0,0,426.726,435.7a9.563,9.563,0,1,1-19.125,0,83.45,83.45,0,0,1,24.505-59.128l.04-.04A83.457,83.457,0,0,1,491.274,352.03Z" fill="#7e96b8"/>
      </g>
    </g>
  </g>
</svg>
