<?xml version="1.0" encoding="UTF-8"?>
<svg width="519px" height="549px" viewBox="0 0 519 549" version="1.1" xmlns="http://www.w3.org/2000/svg" xmlns:xlink="http://www.w3.org/1999/xlink">
    <!-- Generator: Sketch 50 (54983) - http://www.bohemiancoding.com/sketch -->
    <title>new card reader</title>
    <desc>Created with Sketch.</desc>
    <defs>
        <path d="M0.759,0.402 C0.759,0.402 0.76,0.402 0.761,0.402 C0.761,0.402 0.76,0.401 0.76,0.401 C0.759,0.401 0.759,0.401 0.759,0.402 Z M18.431,86.796 C35.153,135.774 67.312,184.75 128.692,170.768 C188.866,63.766 1.539,0.664 0.761,0.402 C0.96,0.648 3.725,43.723 18.431,86.796 Z" id="path-1"></path>
        <path d="M0.759,0.402 C0.759,0.402 0.759,0.402 0.76,0.402 C0.76,0.402 0.76,0.402 0.761,0.403 C0.76,0.402 0.759,0.402 0.759,0.402 Z M18.431,86.796 C3.726,43.724 0.959,0.648 0.761,0.403 C1.539,0.664 188.865,63.767 128.692,170.768 C67.312,184.75 35.153,135.774 18.431,86.796 Z" id="path-3"></path>
        <path d="M50.577,7.39 C50.363,9.291 50.604,11.594 50.324,13.433 C49.914,16.125 47.987,16.953 45.393,16.508 C37.985,15.239 31.362,11.752 24.273,9.447 C24.273,9.447 4.885,3.146 1.203,14.429 C0.836,15.551 0.605,16.712 0.521,17.873 L0.519,17.916 C0.308,20.997 1.147,24.081 3.32,26.456 C5.421,28.753 8.28,30.217 11.194,31.323 C16.215,33.228 41.495,41.159 34.117,50.402 C33.733,50.885 33.26,51.37 32.692,51.856 C30.895,53.396 28.585,54.178 26.526,55.346 C24.352,56.578 22.414,58.299 21.192,60.474 C19.971,62.651 19.516,65.307 20.234,67.697 C23.353,78.09 40.11,78.048 48.46,77.462 C54.63,77.03 60.596,75.238 66.82,75.5 C67.846,75.543 68.895,75.634 69.822,76.076 C73.285,77.72 70.945,81.026 68.823,82.749 C64.072,86.604 56.418,93.135 60.957,99.944 C61.988,101.488 64.451,102.415 66.113,102.903 C70.612,104.227 74.872,103.198 79.292,101.993 C84.933,100.455 90.492,98.385 95.6,95.524 C98.239,94.045 100.759,92.354 103.042,90.367 C104.281,89.289 106.403,87.049 108.202,87 C111.222,86.924 104.998,93.755 104.627,94.715 C103.741,97.007 105.001,99.262 107.303,99.996 C109.667,100.749 112.063,100.258 114.453,99.768 C116.482,99.351 118.509,98.934 120.515,99.278 C121.125,99.383 121.79,99.564 122.129,100.083 C122.347,100.414 122.389,100.828 122.45,101.221 C124.186,112.172 139.207,106.007 145.579,103.442 C149.974,101.669 155.04,98.755 156.194,93.778 C156.541,92.274 156.764,90.749 156.881,89.212 L156.911,88.789 C157.224,83.873 156.488,78.851 155.397,74.106 C154.232,69.046 153.079,58.741 146.136,58.441 C142.569,58.286 141.815,62.386 139.203,62.421 C134.19,62.482 137.787,52.877 137.734,50.575 C137.63,45.944 134.915,42.442 130.442,41.134 C126.857,40.084 123.054,41.401 121.758,45.05 C121.333,46.248 121.09,47.511 120.559,48.667 C120.127,49.611 119.375,50.549 118.338,50.642 C115.445,50.901 116.158,45.512 116.011,43.895 C115.733,40.858 115.344,37.829 114.767,34.833 C113.52,28.36 111.465,21.195 106.629,16.426 C104.913,14.734 102.842,13.434 100.515,12.769 C98.889,12.307 96.868,13.019 95.519,13.875 C93.798,14.966 92.557,16.668 91.642,18.457 C90.517,20.651 90.606,23.713 88.534,25.359 C87.767,25.967 86.69,26.25 85.776,25.895 C85.167,25.656 84.689,25.168 84.29,24.65 C82.62,22.469 81.604,19.734 80.124,17.403 C78.514,14.867 76.734,12.435 74.712,10.209 C70.772,5.871 65.89,2.318 60.209,0.67 C59.573,0.486 58.953,0.376 58.354,0.334 C58.168,0.321 57.984,0.314 57.803,0.314 C53.948,0.314 51.052,3.202 50.577,7.39 Z" id="path-5"></path>
        <path d="M50.577,7.39 C51.053,3.202 53.947,0.314 57.803,0.314 C57.984,0.314 58.168,0.321 58.354,0.334 C58.953,0.376 59.573,0.486 60.209,0.67 C65.89,2.318 70.772,5.871 74.712,10.209 C76.734,12.435 78.514,14.867 80.124,17.403 C81.604,19.734 82.62,22.469 84.29,24.65 C84.689,25.168 85.167,25.656 85.776,25.895 C86.69,26.25 87.767,25.967 88.534,25.359 C90.606,23.713 90.517,20.651 91.642,18.457 C92.557,16.668 93.798,14.966 95.519,13.875 C96.868,13.019 98.889,12.307 100.515,12.769 C102.842,13.434 104.913,14.734 106.629,16.426 C111.465,21.195 113.52,28.36 114.767,34.833 C115.344,37.829 115.733,40.858 116.011,43.895 C116.158,45.512 115.445,50.901 118.338,50.642 C119.375,50.549 120.127,49.611 120.559,48.667 C121.09,47.511 121.333,46.248 121.758,45.05 C123.054,41.401 126.857,40.084 130.442,41.134 C134.915,42.442 137.63,45.944 137.734,50.575 C137.787,52.877 134.19,62.482 139.203,62.421 C141.815,62.386 142.569,58.286 146.136,58.441 C153.079,58.741 154.232,69.046 155.397,74.106 C156.488,78.851 157.224,83.873 156.911,88.789 L156.881,89.212 C156.764,90.749 156.541,92.274 156.194,93.778 C155.04,98.755 149.974,101.669 145.579,103.442 C139.207,106.007 124.186,112.172 122.45,101.221 C122.389,100.828 122.347,100.414 122.129,100.083 C121.79,99.564 121.125,99.383 120.515,99.278 C118.509,98.934 116.482,99.351 114.453,99.768 C112.063,100.258 109.667,100.749 107.303,99.996 C105.001,99.262 103.741,97.007 104.627,94.715 C104.998,93.755 111.222,86.924 108.202,87 C106.403,87.049 104.281,89.289 103.042,90.367 C100.759,92.354 98.239,94.045 95.6,95.524 C90.492,98.385 84.933,100.455 79.292,101.993 C74.872,103.198 70.612,104.227 66.113,102.903 C64.451,102.415 61.988,101.488 60.957,99.944 C56.418,93.135 64.072,86.604 68.823,82.749 C70.945,81.026 73.285,77.72 69.822,76.076 C68.895,75.634 67.846,75.543 66.82,75.5 C60.596,75.238 54.63,77.03 48.46,77.462 C40.11,78.048 23.353,78.09 20.234,67.697 C19.516,65.307 19.971,62.651 21.192,60.474 C22.414,58.299 24.352,56.578 26.526,55.346 C28.585,54.178 30.895,53.396 32.692,51.856 C33.26,51.37 33.733,50.885 34.117,50.402 C41.495,41.159 16.215,33.228 11.194,31.323 C8.28,30.217 5.421,28.753 3.32,26.456 C1.147,24.081 0.308,20.997 0.519,17.916 L0.521,17.873 C0.605,16.712 0.836,15.551 1.203,14.429 C4.885,3.146 24.273,9.447 24.273,9.447 C31.362,11.752 37.985,15.239 45.393,16.508 C47.987,16.953 49.914,16.125 50.324,13.433 C50.604,11.594 50.363,9.291 50.577,7.39 Z" id="path-7"></path>
        <rect id="path-9" x="167" y="132" width="201" height="320" rx="10"></rect>
        <filter x="-44.8%" y="-20.6%" width="189.6%" height="156.2%" filterUnits="objectBoundingBox" id="filter-11">
            <feOffset dx="0" dy="6" in="SourceAlpha" result="shadowOffsetOuter1"></feOffset>
            <feGaussianBlur stdDeviation="4.5" in="shadowOffsetOuter1" result="shadowBlurOuter1"></feGaussianBlur>
            <feColorMatrix values="0 0 0 0 0   0 0 0 0 0   0 0 0 0 0  0 0 0 0.1 0" type="matrix" in="shadowBlurOuter1" result="shadowMatrixOuter1"></feColorMatrix>
            <feOffset dx="0" dy="18" in="SourceAlpha" result="shadowOffsetOuter2"></feOffset>
            <feGaussianBlur stdDeviation="24" in="shadowOffsetOuter2" result="shadowBlurOuter2"></feGaussianBlur>
            <feColorMatrix values="0 0 0 0 0   0 0 0 0 0   0 0 0 0 0  0 0 0 0.1 0" type="matrix" in="shadowBlurOuter2" result="shadowMatrixOuter2"></feColorMatrix>
            <feMerge>
                <feMergeNode in="shadowMatrixOuter1"></feMergeNode>
                <feMergeNode in="shadowMatrixOuter2"></feMergeNode>
            </feMerge>
        </filter>
        <path d="M0.969555121,5.90909193 L2.18313017,5.90909193 C2.60070438,5.90909193 2.98696053,5.85200171 3.34189861,5.73782126 C3.6981416,5.62237214 4.00479767,5.4587135 4.26186679,5.24303932 C4.52024083,5.02736514 4.72119842,4.76094409 4.86343464,4.44377618 C5.00828069,4.12660827 5.07874634,3.76884286 5.07874634,3.36794262 C5.07874634,2.94928098 5.00828069,2.5813662 4.86343464,2.26419829 C4.72119842,1.94703038 4.52024083,1.68314667 4.26186679,1.47000984 C4.00479767,1.25814167 3.6981416,1.0957517 3.34189861,0.984108597 C2.98696053,0.873734164 2.60070438,0.817912611 2.18313017,0.817912611 L0.969555121,0.817912611 L0.969555121,5.90909193 Z M0,0.000888070153 L2.37886808,0.000888070153 C2.82254068,0.000888070153 3.26621328,0.0643216525 3.70988588,0.189920146 C4.15225356,0.318055982 4.55416874,0.517237431 4.91302157,0.790001835 C5.27187441,1.06276624 5.56287144,1.41165094 5.78340282,1.83665594 C6.00523912,2.26166095 6.11615727,2.77166695 6.11615727,3.36794262 C6.11615727,3.94518822 6.00523912,4.44504485 5.78340282,4.86751251 C5.56287144,5.2887115 5.27187441,5.6375962 4.91302157,5.91416662 C4.55416874,6.18946837 4.15225356,6.39626184 3.70988588,6.53200971 C3.26621328,6.66902625 2.82254068,6.73626585 2.37886808,6.73626585 L0,6.73626585 L0,0.000888070153 Z M9.15074735,5.89906943 L12.7705938,5.89906943 L12.7705938,6.73639271 L8.18119223,6.73639271 L8.18119223,0.00101493732 L12.6244428,0.00101493732 L12.6244428,0.828188851 L9.15074735,0.828188851 L9.15074735,2.84537677 L12.4195705,2.84537677 L12.4195705,3.65352061 L9.15074735,3.65352061 L9.15074735,5.89906943 Z M14.7975251,0.000126867165 L17.1855276,0.000126867165 C17.4465115,0.000126867165 17.7074954,0.0293063151 17.9684793,0.0863965392 C18.2307681,0.143486763 18.4630437,0.238637137 18.669221,0.370578988 C18.8740933,0.505058183 19.041123,0.677597527 19.1677002,0.893271707 C19.2942774,1.11021456 19.3582184,1.37917295 19.3582184,1.70268422 C19.3582184,2.07694235 19.2473003,2.39157292 19.025464,2.64530725 C18.8036277,2.89777291 18.5113257,3.0728496 18.1446434,3.16799997 L18.1446434,3.18703005 C18.3664797,3.21367215 18.571352,3.26822503 18.7618703,3.3544947 C18.9497787,3.4394957 19.1128936,3.55240748 19.2512151,3.69069269 C19.3869267,3.83151524 19.4939301,3.99644256 19.5683105,4.1867433 C19.6439958,4.37704405 19.6818385,4.59018089 19.6818385,4.82361647 C19.6818385,5.14712774 19.6126777,5.43004152 19.4769661,5.67108913 C19.3386447,5.91086807 19.1533461,6.11004952 18.9184606,6.26609613 C18.6822702,6.42087407 18.4069322,6.53886054 18.0911417,6.61751818 C17.7740463,6.69744449 17.4360722,6.73677331 17.0785242,6.73677331 L14.7975251,6.73677331 L14.7975251,0.000126867165 Z M15.7670802,5.93751018 L16.9806553,5.93751018 C17.1829178,5.93751018 17.3864852,5.91974877 17.5913576,5.88549464 C17.7975348,5.85124051 17.9828334,5.78907559 18.1498631,5.70026858 C18.3155878,5.61019289 18.4499945,5.49093776 18.5517783,5.34250317 C18.652257,5.19406859 18.7031489,5.00503652 18.7031489,4.77667562 C18.7031489,4.37704405 18.5635225,4.08778692 18.2829649,3.91017288 C18.0011023,3.73382753 17.5965772,3.64375184 17.0680849,3.64375184 L15.7670802,3.64375184 L15.7670802,5.93751018 Z M15.7670802,2.8444887 L17.0302422,2.8444887 C17.211626,2.8444887 17.3864852,2.82418995 17.55221,2.78359246 C17.7192397,2.7417263 17.8640857,2.67829271 17.9880531,2.59202304 C18.1120204,2.50702204 18.2098894,2.39918495 18.2829649,2.26851177 C18.3534305,2.13910726 18.3899682,1.98306065 18.3899682,1.79783459 C18.3899682,1.43626317 18.2529517,1.17872283 17.9776137,1.02267621 C17.7035806,0.867898274 17.3355934,0.789240632 16.8736519,0.789240632 L15.7670802,0.789240632 L15.7670802,2.8444887 Z M21.8153817,6.73664645 L21.8153817,0 L22.7849368,0 L22.7849368,6.73664645 L21.8153817,6.73664645 Z M27.6286672,6.73664645 L26.660417,6.73664645 L26.660417,0.828442586 L24.4381392,0.828442586 L24.4381392,0 L29.84964,0 L29.84964,0.828442586 L27.6286672,0.828442586 L27.6286672,6.73664645 Z" id="path-12"></path>
        <filter x="-1.7%" y="-7.4%" width="103.4%" height="114.8%" filterUnits="objectBoundingBox" id="filter-13">
            <feGaussianBlur stdDeviation="0.25" in="SourceAlpha" result="shadowBlurInner1"></feGaussianBlur>
            <feOffset dx="0" dy="0.5" in="shadowBlurInner1" result="shadowOffsetInner1"></feOffset>
            <feComposite in="shadowOffsetInner1" in2="SourceAlpha" operator="arithmetic" k2="-1" k3="1" result="shadowInnerInner1"></feComposite>
            <feColorMatrix values="0 0 0 0 1   0 0 0 0 1   0 0 0 0 1  0 0 0 0.2 0" type="matrix" in="shadowInnerInner1"></feColorMatrix>
        </filter>
        <linearGradient x1="44.3180424%" y1="49.5246382%" x2="43.3444197%" y2="50.5187314%" id="linearGradient-14">
            <stop stop-color="#FFFFFF" stop-opacity="0.14" offset="0%"></stop>
            <stop stop-color="#FFFFFF" stop-opacity="0.08" offset="83.0608743%"></stop>
        </linearGradient>
        <polygon id="path-15" points="260.51872 348.533281 260.51872 131.01186 242.381028 131 242.381028 254.551556 166 210.456402 166 231.515024 242.381028 275.610178 242.381028 452 260.51872 452 260.51872 369.590585 369 306.460841 369 285.402219"></polygon>
        <filter x="-0.2%" y="-0.2%" width="100.5%" height="100.3%" filterUnits="objectBoundingBox" id="filter-16">
            <feGaussianBlur stdDeviation="0.25" in="SourceAlpha" result="shadowBlurInner1"></feGaussianBlur>
            <feOffset dx="0" dy="0.5" in="shadowBlurInner1" result="shadowOffsetInner1"></feOffset>
            <feComposite in="shadowOffsetInner1" in2="SourceAlpha" operator="arithmetic" k2="-1" k3="1" result="shadowInnerInner1"></feComposite>
            <feColorMatrix values="0 0 0 0 1   0 0 0 0 1   0 0 0 0 1  0 0 0 0.2 0" type="matrix" in="shadowInnerInner1"></feColorMatrix>
        </filter>
        <linearGradient x1="100%" y1="19.3725435%" x2="-11.1808126%" y2="109.79396%" id="linearGradient-17">
            <stop stop-color="#DEDBD6" offset="0%"></stop>
            <stop stop-color="#F9F7F3" offset="100%"></stop>
        </linearGradient>
        <radialGradient cx="15.1693032%" cy="15.562025%" fx="15.1693032%" fy="15.562025%" r="122.101686%" gradientTransform="translate(0.151693,0.155620),scale(0.769231,1.000000),rotate(30.927613),scale(1.000000,0.493701),translate(-0.151693,-0.155620)" id="radialGradient-18">
            <stop stop-color="#FFFFFF" offset="0%"></stop>
            <stop stop-color="#FFFFFF" offset="0%"></stop>
            <stop stop-color="#FFFFFF" stop-opacity="0.806791002" offset="0%"></stop>
            <stop stop-color="#FFFFFF" stop-opacity="0.905405405" offset="0.0384172911%"></stop>
            <stop stop-color="#FFFFFF" stop-opacity="0" offset="100%"></stop>
        </radialGradient>
        <rect id="path-19" x="-3.6e-15" y="0" width="39" height="30" rx="3"></rect>
        <rect id="path-20" x="24.8181818" y="7.2" width="14.1818182" height="1"></rect>
        <filter x="-1.8%" y="-25.0%" width="103.5%" height="200.0%" filterUnits="objectBoundingBox" id="filter-21">
            <feOffset dx="0" dy="0.5" in="SourceAlpha" result="shadowOffsetOuter1"></feOffset>
            <feComposite in="shadowOffsetOuter1" in2="SourceAlpha" operator="out" result="shadowOffsetOuter1"></feComposite>
            <feColorMatrix values="0 0 0 0 1   0 0 0 0 1   0 0 0 0 1  0 0 0 0.5 0" type="matrix" in="shadowOffsetOuter1"></feColorMatrix>
        </filter>
        <rect id="path-22" x="24.8181818" y="18" width="14.1818182" height="1"></rect>
        <filter x="-1.8%" y="-25.0%" width="103.5%" height="200.0%" filterUnits="objectBoundingBox" id="filter-23">
            <feOffset dx="0" dy="0.5" in="SourceAlpha" result="shadowOffsetOuter1"></feOffset>
            <feComposite in="shadowOffsetOuter1" in2="SourceAlpha" operator="out" result="shadowOffsetOuter1"></feComposite>
            <feColorMatrix values="0 0 0 0 1   0 0 0 0 1   0 0 0 0 1  0 0 0 0.5 0" type="matrix" in="shadowOffsetOuter1"></feColorMatrix>
        </filter>
        <rect id="path-24" x="0" y="7.2" width="14.1818182" height="1"></rect>
        <filter x="-1.8%" y="-25.0%" width="103.5%" height="200.0%" filterUnits="objectBoundingBox" id="filter-25">
            <feOffset dx="0" dy="0.5" in="SourceAlpha" result="shadowOffsetOuter1"></feOffset>
            <feComposite in="shadowOffsetOuter1" in2="SourceAlpha" operator="out" result="shadowOffsetOuter1"></feComposite>
            <feColorMatrix values="0 0 0 0 1   0 0 0 0 1   0 0 0 0 1  0 0 0 0.5 0" type="matrix" in="shadowOffsetOuter1"></feColorMatrix>
        </filter>
        <rect id="path-26" x="0" y="18" width="14.1818182" height="1"></rect>
        <filter x="-1.8%" y="-25.0%" width="103.5%" height="200.0%" filterUnits="objectBoundingBox" id="filter-27">
            <feOffset dx="0" dy="0.5" in="SourceAlpha" result="shadowOffsetOuter1"></feOffset>
            <feComposite in="shadowOffsetOuter1" in2="SourceAlpha" operator="out" result="shadowOffsetOuter1"></feComposite>
            <feColorMatrix values="0 0 0 0 1   0 0 0 0 1   0 0 0 0 1  0 0 0 0.5 0" type="matrix" in="shadowOffsetOuter1"></feColorMatrix>
        </filter>
        <path d="M14.2332889,18.2413528 C15.0851168,22.3253164 17.1196136,25.2 19.4939162,25.2 C21.8806296,25.2 23.9239756,22.295185 24.7678044,18.1772114 C25.0345239,16.8755923 23.9175162,14.0906067 23.9175162,12.6 C23.9175162,11.1307659 25.0387056,8.36522305 24.7792032,7.07885179 C23.9424896,2.93120415 21.8914463,0 19.4939162,0 C17.11064,0 15.0697431,2.89645418 14.2236812,7.00500452 C13.9546501,8.31144352 15.0703163,11.1026017 15.0703163,12.6 C15.0703163,14.1151291 13.958181,16.9223886 14.2332889,18.2413528 Z" id="path-28"></path>
        <filter x="-5.2%" y="-2.2%" width="110.3%" height="106.3%" filterUnits="objectBoundingBox" id="filter-29">
            <feMorphology radius="0.3" operator="dilate" in="SourceAlpha" result="shadowSpreadOuter1"></feMorphology>
            <feOffset dx="0" dy="0.5" in="shadowSpreadOuter1" result="shadowOffsetOuter1"></feOffset>
            <feMorphology radius="1" operator="erode" in="SourceAlpha" result="shadowInner"></feMorphology>
            <feOffset dx="0" dy="0.5" in="shadowInner" result="shadowInner"></feOffset>
            <feComposite in="shadowOffsetOuter1" in2="shadowInner" operator="out" result="shadowOffsetOuter1"></feComposite>
            <feColorMatrix values="0 0 0 0 1   0 0 0 0 1   0 0 0 0 1  0 0 0 0.6 0" type="matrix" in="shadowOffsetOuter1"></feColorMatrix>
        </filter>
        <radialGradient cx="100%" cy="-1.26623947%" fx="100%" fy="-1.26623947%" r="170.7577%" gradientTransform="translate(1.000000,-0.012662),scale(1.000000,0.628125),rotate(121.462018),translate(-1.000000,0.012662)" id="radialGradient-30">
            <stop stop-color="#FFFFFF" stop-opacity="0.3" offset="0%"></stop>
            <stop stop-color="#FFFFFF" stop-opacity="0.0210031703" offset="100%"></stop>
        </radialGradient>
        <path d="M0.759,0.402 C0.759,0.402 0.76,0.402 0.761,0.402 C0.761,0.402 0.76,0.401 0.76,0.401 C0.759,0.401 0.759,0.401 0.759,0.402 Z M18.431,86.796 C35.153,135.774 67.312,184.75 128.692,170.768 C188.866,63.766 1.539,0.664 0.761,0.402 C0.96,0.648 3.725,43.723 18.431,86.796 Z" id="path-31"></path>
        <path d="M0.759,0.402 C0.759,0.402 0.759,0.402 0.76,0.402 C0.76,0.402 0.76,0.402 0.761,0.403 C0.76,0.402 0.759,0.402 0.759,0.402 Z M18.431,86.796 C3.726,43.724 0.959,0.648 0.761,0.403 C1.539,0.664 188.865,63.767 128.692,170.768 C67.312,184.75 35.153,135.774 18.431,86.796 Z" id="path-33"></path>
        <path d="M58.5,16.83 C61.218,11.01 67.178,0.135 75.008,0.135 C75.606,0.135 76.215,0.2 76.833,0.333 C78.839,0.767 80.568,2.152 81.644,3.903 C82.719,5.652 83.179,7.738 83.195,9.799 C83.211,11.75 82.847,13.73 83.234,15.64 C83.357,16.244 83.517,16.78 83.71,17.249 C87.401,26.26 103.233,11.16 106.615,8.294 C108.577,6.63 110.778,5.148 113.271,4.545 C115.849,3.922 118.404,4.545 120.535,5.925 L120.564,5.943 C121.367,6.467 122.108,7.097 122.767,7.807 C129.408,14.961 117.108,26.454 117.108,26.454 C112.61,30.656 107.45,34.051 103.567,38.895 C102.208,40.592 102.033,42.313 103.804,43.682 C105.014,44.616 106.767,45.36 108.048,46.273 C111.004,48.378 111.869,51.833 110.007,54.698 C109.737,55.115 109.409,55.519 109.022,55.906 C105.56,59.352 101.05,61.463 96.351,62.58 C93.941,63.154 91.479,63.471 89.009,63.623 C88.065,63.682 87.102,63.654 86.139,63.626 C84.787,63.588 83.434,63.549 82.128,63.746 C81.595,63.827 81.053,63.977 80.638,64.323 C80.015,64.841 79.786,65.732 79.917,66.528 C80.271,68.681 82.508,69.836 83.637,71.521 C84.557,72.895 85.283,74.471 85.379,76.148 C85.454,77.463 85.156,79.207 84.171,80.196 C82.762,81.612 80.996,82.591 79.092,83.155 C73.726,84.748 67.748,83.379 62.593,81.701 C60.208,80.925 57.873,79.998 55.579,78.989 C54.356,78.451 50.767,75.79 49.793,77.982 C49.446,78.768 49.818,79.685 50.323,80.373 C50.943,81.218 51.754,81.896 52.445,82.681 C54.551,85.07 53.972,88.341 51.782,90.512 C49.049,93.221 45.442,93.787 42.07,92.018 C40.393,91.139 34.926,84.714 32.962,88.36 C31.941,90.261 34.587,92.438 33.046,94.955 C30.05,99.849 22.176,96.575 18.07,95.401 C14.221,94.301 10.315,92.831 6.904,90.647 L6.612,90.458 C5.554,89.759 4.545,88.991 3.603,88.141 C0.485,85.325 0.42,80.506 0.906,76.624 C1.614,71.001 3.199,57.695 11.769,60.805 C12.076,60.917 12.391,61.052 12.717,61.026 C13.226,60.987 13.623,60.58 13.942,60.181 C14.994,58.87 15.506,57.238 16.019,55.607 C16.623,53.685 17.231,51.761 18.721,50.352 C20.17,48.982 22.297,48.971 23.589,50.523 C24.131,51.174 26.55,58.39 27.706,56.178 C28.391,54.86 27.632,52.434 27.352,51.11 C26.836,48.67 26.631,46.177 26.624,43.682 C26.614,38.853 27.353,34.013 28.507,29.325 C29.41,25.654 30.377,22.167 33.131,19.444 C34.148,18.438 35.801,17.029 37.326,16.899 C44.04,16.333 45.672,24.463 46.542,29.431 C46.929,31.649 48.37,34.657 50.94,32.81 C51.628,32.317 52.115,31.595 52.557,30.872 C55.238,26.48 56.339,21.458 58.5,16.83 Z" id="path-35"></path>
        <linearGradient x1="13.9738467%" y1="43.0975631%" x2="95.8495987%" y2="88.0632712%" id="linearGradient-37">
            <stop stop-color="#7564C9" offset="0%"></stop>
            <stop stop-color="#8A74CD" offset="100%"></stop>
        </linearGradient>
        <path d="M58.5,16.83 C61.218,11.01 67.178,0.135 75.008,0.135 C75.606,0.135 76.215,0.2 76.833,0.333 C78.839,0.767 80.568,2.152 81.644,3.903 C82.719,5.652 83.179,7.738 83.195,9.799 C83.211,11.75 82.847,13.73 83.234,15.64 C83.357,16.244 83.517,16.78 83.71,17.249 C87.401,26.26 103.233,11.16 106.615,8.294 C108.577,6.63 110.778,5.148 113.271,4.545 C115.849,3.922 118.404,4.545 120.535,5.925 L120.564,5.943 C121.367,6.467 122.108,7.097 122.767,7.807 C129.408,14.961 117.108,26.454 117.108,26.454 C112.61,30.656 107.45,34.051 103.567,38.895 C102.208,40.592 102.033,42.313 103.804,43.682 C105.014,44.616 106.767,45.36 108.048,46.273 C111.004,48.378 111.869,51.833 110.007,54.698 C109.737,55.115 109.409,55.519 109.022,55.906 C105.56,59.352 101.05,61.463 96.351,62.58 C93.941,63.154 91.479,63.471 89.009,63.623 C88.065,63.682 87.102,63.654 86.139,63.626 C84.787,63.588 83.434,63.549 82.128,63.746 C81.595,63.827 81.053,63.977 80.638,64.323 C80.015,64.841 79.786,65.732 79.917,66.528 C80.271,68.681 82.508,69.836 83.637,71.521 C84.557,72.895 85.283,74.471 85.379,76.148 C85.454,77.463 85.156,79.207 84.171,80.196 C82.762,81.612 80.996,82.591 79.092,83.155 C73.726,84.748 67.748,83.379 62.593,81.701 C60.208,80.925 57.873,79.998 55.579,78.989 C54.356,78.451 50.767,75.79 49.793,77.982 C49.446,78.768 49.818,79.685 50.323,80.373 C50.943,81.218 51.754,81.896 52.445,82.681 C54.551,85.07 53.972,88.341 51.782,90.512 C49.049,93.221 45.442,93.787 42.07,92.018 C40.393,91.139 34.926,84.714 32.962,88.36 C31.941,90.261 34.587,92.438 33.046,94.955 C30.05,99.849 22.176,96.575 18.07,95.401 C14.221,94.301 10.315,92.831 6.904,90.647 L6.612,90.458 C5.554,89.759 4.545,88.991 3.603,88.141 C0.485,85.325 0.42,80.506 0.906,76.624 C1.614,71.001 3.199,57.695 11.769,60.805 C12.076,60.917 12.391,61.052 12.717,61.026 C13.226,60.987 13.623,60.58 13.942,60.181 C14.994,58.87 15.506,57.238 16.019,55.607 C16.623,53.685 17.231,51.761 18.721,50.352 C20.17,48.982 22.297,48.971 23.589,50.523 C24.131,51.174 26.55,58.39 27.706,56.178 C28.391,54.86 27.632,52.434 27.352,51.11 C26.836,48.67 26.631,46.177 26.624,43.682 C26.614,38.853 27.353,34.013 28.507,29.325 C29.41,25.654 30.377,22.167 33.131,19.444 C34.148,18.438 35.801,17.029 37.326,16.899 C44.04,16.333 45.672,24.463 46.542,29.431 C46.929,31.649 48.37,34.657 50.94,32.81 C51.628,32.317 52.115,31.595 52.557,30.872 C55.238,26.48 56.339,21.458 58.5,16.83 Z" id="path-38"></path>
        <linearGradient x1="1.11022302e-14%" y1="100%" x2="100%" y2="3.74939946e-31%" id="linearGradient-40">
            <stop stop-color="#000000" offset="0%"></stop>
            <stop stop-color="#000000" stop-opacity="0" offset="100%"></stop>
        </linearGradient>
        <linearGradient x1="100%" y1="0%" x2="0%" y2="100%" id="linearGradient-41">
            <stop stop-color="#F3F3F3" offset="0%"></stop>
            <stop stop-color="#E0E0E0" offset="98.9003793%"></stop>
        </linearGradient>
        <rect id="path-42" x="0" y="0" width="292" height="292" rx="52"></rect>
        <filter x="-18.8%" y="-9.2%" width="133.6%" height="133.6%" filterUnits="objectBoundingBox" id="filter-43">
            <feMorphology radius="2" operator="dilate" in="SourceAlpha" result="shadowSpreadOuter1"></feMorphology>
            <feOffset dx="-6" dy="22" in="shadowSpreadOuter1" result="shadowOffsetOuter1"></feOffset>
            <feGaussianBlur stdDeviation="12" in="shadowOffsetOuter1" result="shadowBlurOuter1"></feGaussianBlur>
            <feComposite in="shadowBlurOuter1" in2="SourceAlpha" operator="out" result="shadowBlurOuter1"></feComposite>
            <feColorMatrix values="0 0 0 0 0   0 0 0 0 0   0 0 0 0 0  0 0 0 0.183254076 0" type="matrix" in="shadowBlurOuter1"></feColorMatrix>
        </filter>
        <filter x="-11.1%" y="-1.5%" width="118.2%" height="118.2%" filterUnits="objectBoundingBox" id="filter-44">
            <feOffset dx="-1" dy="1" in="SourceAlpha" result="shadowOffsetInner1"></feOffset>
            <feComposite in="shadowOffsetInner1" in2="SourceAlpha" operator="arithmetic" k2="-1" k3="1" result="shadowInnerInner1"></feComposite>
            <feColorMatrix values="0 0 0 0 1   0 0 0 0 1   0 0 0 0 1  0 0 0 0.9 0" type="matrix" in="shadowInnerInner1"></feColorMatrix>
        </filter>
        <linearGradient x1="100%" y1="0%" x2="0%" y2="100%" id="linearGradient-45">
            <stop stop-color="#000000" stop-opacity="0" offset="0%"></stop>
            <stop stop-color="#000000" stop-opacity="0.04" offset="100%"></stop>
        </linearGradient>
        <rect id="path-46" x="96" y="96" width="100" height="100" rx="50"></rect>
        <filter x="-1.5%" y="-1.5%" width="103.0%" height="103.0%" filterUnits="objectBoundingBox" id="filter-47">
            <feOffset dx="-1" dy="1" in="SourceAlpha" result="shadowOffsetInner1"></feOffset>
            <feComposite in="shadowOffsetInner1" in2="SourceAlpha" operator="arithmetic" k2="-1" k3="1" result="shadowInnerInner1"></feComposite>
            <feColorMatrix values="0 0 0 0 1   0 0 0 0 1   0 0 0 0 1  0 0 0 0.9 0" type="matrix" in="shadowInnerInner1"></feColorMatrix>
        </filter>
        <path d="M161.639663,144.284448 L130.361894,144.287452 C127.60468,144.071159 127.694008,130.583731 143.697473,129.426305 C143.850058,129.355495 143.882541,129.339187 143.971442,129.047363 C144.119753,128.50663 144.204807,127.979629 144.219339,127.481812 C144.236008,126.871985 144.1548,126.329535 143.973579,125.822276 C143.810309,125.372094 143.561984,124.944229 143.238436,124.561853 C143.731666,124.563141 144.219339,124.661846 144.691625,124.856681 C145.298546,125.100011 145.913587,125.519294 146.467509,126.072902 C146.982109,126.582307 147.45696,127.204579 147.881377,127.92341 C148.084396,128.26802 148.267327,128.617351 148.440855,128.99286 C148.522917,129.17525 148.602415,129.364507 148.677639,129.562776 C164.298573,130.916325 164.375934,144.069013 161.639663,144.284448 Z M160.90281,145.706662 C160.90281,145.706662 163.376225,161.160041 148.23057,164.079141 C147.543724,164.667081 146.403397,166.016339 145.987956,166.010331 C145.572087,166.016339 144.431761,164.667081 143.74406,164.079141 C128.514206,161.457873 131.070537,145.706662 131.070537,145.706662 L160.90281,145.706662 Z" id="path-48"></path>
        <filter x="-0.7%" y="-0.6%" width="101.5%" height="101.2%" filterUnits="objectBoundingBox" id="filter-49">
            <feOffset dx="-0.5" dy="0.5" in="SourceAlpha" result="shadowOffsetInner1"></feOffset>
            <feComposite in="shadowOffsetInner1" in2="SourceAlpha" operator="arithmetic" k2="-1" k3="1" result="shadowInnerInner1"></feComposite>
            <feColorMatrix values="0 0 0 0 0   0 0 0 0 0   0 0 0 0 0  0 0 0 0.05 0" type="matrix" in="shadowInnerInner1"></feColorMatrix>
        </filter>
        <circle id="path-50" cx="131" cy="269" r="3"></circle>
        <filter x="-4.2%" y="-4.2%" width="108.3%" height="108.3%" filterUnits="objectBoundingBox" id="filter-51">
            <feOffset dx="-0.5" dy="0.5" in="SourceAlpha" result="shadowOffsetInner1"></feOffset>
            <feComposite in="shadowOffsetInner1" in2="SourceAlpha" operator="arithmetic" k2="-1" k3="1" result="shadowInnerInner1"></feComposite>
            <feColorMatrix values="0 0 0 0 0   0 0 0 0 0   0 0 0 0 0  0 0 0 0.05 0" type="matrix" in="shadowInnerInner1"></feColorMatrix>
        </filter>
        <circle id="path-52" cx="146" cy="269" r="3"></circle>
        <filter x="-4.2%" y="-4.2%" width="108.3%" height="108.3%" filterUnits="objectBoundingBox" id="filter-53">
            <feOffset dx="-0.5" dy="0.5" in="SourceAlpha" result="shadowOffsetInner1"></feOffset>
            <feComposite in="shadowOffsetInner1" in2="SourceAlpha" operator="arithmetic" k2="-1" k3="1" result="shadowInnerInner1"></feComposite>
            <feColorMatrix values="0 0 0 0 0   0 0 0 0 0   0 0 0 0 0  0 0 0 0.05 0" type="matrix" in="shadowInnerInner1"></feColorMatrix>
        </filter>
        <circle id="path-54" cx="161" cy="269" r="3"></circle>
        <filter x="-4.2%" y="-4.2%" width="108.3%" height="108.3%" filterUnits="objectBoundingBox" id="filter-55">
            <feOffset dx="-0.5" dy="0.5" in="SourceAlpha" result="shadowOffsetInner1"></feOffset>
            <feComposite in="shadowOffsetInner1" in2="SourceAlpha" operator="arithmetic" k2="-1" k3="1" result="shadowInnerInner1"></feComposite>
            <feColorMatrix values="0 0 0 0 0   0 0 0 0 0   0 0 0 0 0  0 0 0 0.05 0" type="matrix" in="shadowInnerInner1"></feColorMatrix>
        </filter>
    </defs>
    <g id="Final" stroke="none" stroke-width="1" fill="none" fill-rule="evenodd">
        <g id="new-card-reader" transform="translate(-44.000000, 1.000000)">
            <g id="Fill-19" transform="translate(44.000000, 30.000000)">
                <g id="bottom-leaves-copy">
                    <g id="Group-3-Copy" transform="translate(30.000000, 0.000000)">
                        <mask id="mask-2" fill="white">
                            <use xlink:href="#path-1"></use>
                        </mask>
                        <g id="Clip-2"></g>
                        <polygon id="Fill-1" fill="#6BA981" mask="url(#mask-2)" points="-29.513 198.5 140.604 198.5 140.604 0.4 -29.513 0.4"></polygon>
                    </g>
                    <g id="Group-6-Copy" transform="translate(30.000000, 0.000000)">
                        <mask id="mask-4" fill="white">
                            <use xlink:href="#path-3"></use>
                        </mask>
                        <g id="Clip-5"></g>
                        <polygon id="Fill-4" fill="#9FE1B7" opacity="0.5" mask="url(#mask-4)" points="119.0536 156.0908 131.1236 28.1468 130.2426 28.0638 118.2636 155.0448 98.5286 128.9098 111.8006 9.4648 110.9206 9.3668 97.7526 127.8818 77.1476 100.5938 86.8136 2.7218 85.9326 2.6348 76.3616 99.5518 56.8786 73.7508 64.1366 -21.8242 63.2546 -21.8912 56.0716 72.6818 33.0906 42.2468 41.5196 -49.2772 40.6386 -49.3582 32.2986 41.1988 13.3316 16.0798 21.7736 -75.5712 20.8926 -75.6522 12.5396 15.0308 -2.7974 -5.2792 -3.5944 -4.6772 11.8306 15.7518 -77.6814 -2.1512 -77.8554 -1.2832 12.6336 16.8148 31.6426 41.9888 -58.0764 24.0448 -58.2504 24.9128 32.4456 43.0518 55.3926 73.4418 -37.9114 54.3028 -38.0894 55.1708 56.1996 74.5108 75.4426 99.9948 -19.7604 82.1438 -19.9234 83.0138 76.2346 101.0438 97.1006 128.6778 -20.6064 108.2588 -20.7584 109.1318 97.8736 129.7108 97.8746 129.7028 117.6796 155.9318 -8.2224 131.9498 -8.3884 132.8198 118.4746 156.9838 131.0746 173.6708 131.3756 174.0688 132.1736 173.4658"></polygon>
                    </g>
                    <g id="Group-9-Copy" transform="translate(0.000000, 91.000000)">
                        <mask id="mask-6" fill="white">
                            <use xlink:href="#path-5"></use>
                        </mask>
                        <g id="Clip-8"></g>
                        <polygon id="Fill-7" fill="#9FE1B7" mask="url(#mask-6)" points="0 107.5 170.604 107.5 170.604 -1.266 0 -1.266"></polygon>
                    </g>
                    <g id="Group-12-Copy" transform="translate(0.000000, 91.000000)">
                        <mask id="mask-8" fill="white">
                            <use xlink:href="#path-7"></use>
                        </mask>
                        <g id="Clip-11"></g>
                        <path d="M159.1849,96.9995 C154.6449,93.7685 150.0499,90.6075 145.4239,87.4925 L110.0529,-11.2425 L109.2199,-10.9435 L144.1829,86.6515 C137.1199,81.9185 129.9639,77.3295 122.7349,72.8865 L91.0349,-20.8285 L90.1969,-20.5445 L121.5589,72.1665 C114.0139,67.5515 106.3979,63.0905 98.7209,58.8205 L71.4789,-16.7255 L70.6459,-16.4255 L97.5479,58.1785 C95.2999,56.9335 93.0519,55.6905 90.7949,54.4785 C84.6109,51.1545 77.8869,47.6785 70.6679,44.0675 L43.3379,-28.8205 L42.5089,-28.5105 L69.5049,43.4885 C61.3099,39.4025 52.4759,35.1415 43.0109,30.7115 L16.6899,-40.0215 L15.8609,-39.7125 L41.8689,30.1795 C34.6209,26.7945 27.0309,23.3185 19.0709,19.7465 L-7.0811,-50.5335 L-7.9101,-50.2255 L17.9389,19.2415 C11.7389,16.4635 5.3399,13.6335 -1.2781,10.7485 L-1.7361,10.5485 L-2.1361,11.4655 L-1.6771,11.6655 C5.0369,14.5935 11.5289,17.4635 17.8129,20.2805 L-53.8821,37.9165 L-53.6711,38.7765 L19.1259,20.8685 C26.8119,24.3205 34.1519,27.6815 41.1709,30.9575 L-30.5251,48.5935 L-30.3151,49.4535 L42.4499,31.5535 C51.9689,36.0075 60.8519,40.2915 69.0859,44.3965 L-5.4341,61.9965 L-5.2311,62.8575 L70.3249,45.0135 C77.4959,48.6025 84.1749,52.0555 90.3209,55.3585 C92.7119,56.6435 95.0939,57.9575 97.4749,59.2775 L20.6139,77.9275 L20.8229,78.7885 L98.6269,59.9095 C106.1789,64.1165 113.6699,68.5125 121.0929,73.0545 L27.5459,98.1695 L27.7749,99.0245 L122.1339,73.6905 C129.4459,78.1845 136.6839,82.8275 143.8269,87.6185 L43.4919,113.1775 L43.7109,114.0345 L144.8069,88.2815 C149.4449,91.4055 154.0529,94.5745 158.6049,97.8135 L159.0119,98.1035 L159.5919,97.2895 L159.1849,96.9995 Z" id="Fill-10" fill="#CDFCDE" opacity="0.5" mask="url(#mask-8)"></path>
                    </g>
                </g>
                <mask id="mask-10" fill="white">
                    <use xlink:href="#path-9"></use>
                </mask>
                <g id="Mask">
                    <use fill="black" fill-opacity="1" filter="url(#filter-11)" xlink:href="#path-9"></use>
                    <use fill="#74C947" fill-rule="evenodd" xlink:href="#path-9"></use>
                </g>
                <path d="M221.559643,413.936686 L188.442005,413.939875 C185.522602,413.710267 185.617185,399.392575 202.56203,398.1639 C202.723591,398.08873 202.757984,398.071419 202.852115,397.76163 C203.00915,397.187611 203.099207,396.628169 203.114594,396.099707 C203.132244,395.45234 203.046259,394.876498 202.854378,394.338013 C202.681503,393.860118 202.418572,393.405914 202.075991,393 C202.598234,393.001367 203.114594,393.106148 203.614662,393.312977 C204.257284,393.571286 204.908504,394.016379 205.495009,394.604066 C206.03988,395.144829 206.542663,395.805408 206.992046,396.568489 C207.207007,396.934313 207.400699,397.305148 207.584434,397.703773 C207.671324,397.897391 207.755498,398.098297 207.835147,398.308771 C224.374959,399.745643 224.456871,413.707989 221.559643,413.936686 Z M220.779446,415.446449 C220.779446,415.446449 223.398356,431.851113 207.36178,434.949908 C206.634531,435.574041 205.427127,437.006357 204.987248,436.999979 C204.546916,437.006357 203.339512,435.574041 202.611358,434.949908 C186.48563,432.167279 189.192334,415.446449 189.192334,415.446449 L220.779446,415.446449 Z" id="acorns-logo" fill="#FFFFFF" mask="url(#mask-10)"></path>
                <path d="M304.793103,430.777402 C306.605983,430.777402 308.339806,430.760431 310.070901,430.789151 C310.531618,430.796983 310.691097,430.663828 310.785149,430.229116 C312.148217,424.046537 313.534456,417.866569 314.913881,411.686602 C315.110163,410.804122 315.299629,409.921643 315.5,409 L309.656529,409 C308.030389,416.284372 306.416517,423.506084 304.793103,430.777402 M324.053122,409.107738 C322.085817,409.38734 320.27053,410.025099 318.724791,411.385829 C316.384464,413.446895 315.072501,418.025712 318.985395,420.917596 C319.791479,421.51408 320.699761,421.958781 321.546724,422.500676 C322.28638,422.973337 323.066914,423.408717 323.71587,423.998544 C324.4683,424.680241 324.408259,425.79066 323.626447,426.441734 C323.213824,426.783913 322.69006,427.064847 322.176517,427.182013 C320.07891,427.661331 318.066893,427.25258 316.120027,426.391139 C315.831319,426.263321 315.545165,426.130177 315.227075,425.986382 C314.929424,427.445638 314.675208,428.815688 314.357117,430.16843 C314.23448,430.691685 314.339233,430.92735 314.836169,431.085791 C317.618501,431.977854 320.440434,432.285417 323.313466,431.700915 C325.418738,431.273524 327.292788,430.380128 328.65585,428.560052 C330.759844,425.754712 330.316562,421.914843 327.592994,419.792531 C326.834176,419.201372 325.969328,418.75534 325.155579,418.241405 C324.392929,417.760756 323.57918,417.346678 322.881681,416.778154 C321.912081,415.988611 322.009168,414.932781 323.042642,414.220461 C323.294304,414.048705 323.583013,413.878281 323.871721,413.83967 C324.671418,413.734486 325.494109,413.564062 326.279754,413.665251 C327.531675,413.825024 328.759325,414.183181 330.047016,414.468109 C330.335724,413.066104 330.647427,411.561579 330.965517,410.018442 C329.214105,409.17431 326.242707,408.797513 324.053122,409.107738 M295.389861,423.165785 C294.649339,419.20355 293.913978,415.23871 293.169585,411.276475 C292.894792,409.812935 291.928502,409.018665 290.456489,409.012154 C289.839818,409.00955 289.223146,409.010852 288.609055,409.010852 L281.148362,409.010852 C281.098048,409.212675 281.052894,409.385852 281,409.598091 C281.223189,409.657987 281.420575,409.702258 281.611511,409.764758 C282.994506,410.215278 284.380082,410.656684 285.756627,411.124131 C286.968038,411.535589 287.59374,412.396265 287.905946,413.6684 C289.259269,419.165789 290.696449,424.642346 292.082025,430.133226 C292.203295,430.616298 292.368429,430.798589 292.892212,430.785569 C294.409379,430.741298 295.930416,430.732183 297.446292,430.788173 C298.033291,430.809006 298.25519,430.57984 298.460317,430.083746 C300.77735,424.449638 303.115025,418.825946 305.44625,413.198348 C306.012607,411.82986 306.576384,410.458768 307.172414,409.014759 C305.368843,409.014759 303.65042,409.036894 301.933287,409.000436 C301.453367,408.990019 301.266301,409.1658 301.102457,409.587675 C299.666568,413.305119 298.207456,417.013448 296.754795,420.724382 C296.372923,421.698339 295.988471,422.670994 295.551124,423.784274 C295.469847,423.476983 295.418243,423.323337 295.389861,423.165785 M341.185961,415.087049 C341.134652,415.076036 341.083342,415.065022 341.032033,415.052632 C340.0611,417.861131 339.090168,420.669631 338.103448,423.526316 L342.862069,423.526316 C342.29635,420.676515 341.741155,417.881782 341.185961,415.087049 M350,430.788166 L344.831318,430.788166 C344.628291,429.846823 344.409545,428.919862 344.236645,427.985056 C344.172462,427.643819 344.023139,427.54707 343.695675,427.548378 C341.550135,427.561452 339.404595,427.54707 337.259055,427.578448 C337.066507,427.581063 336.778339,427.798095 336.702367,427.983749 C336.326439,428.90548 336.008145,429.849438 335.668893,430.789474 L329.775862,430.789474 C330.164889,429.859898 330.530338,428.983926 330.897097,428.109261 C333.303298,422.364455 335.710808,416.619648 338.119629,410.874841 C338.699894,409.490283 339.441271,409 340.954152,409 C342.389751,409.001307 343.82797,409.00523 345.266189,409.007845 C345.305485,409.007845 345.346091,409.026148 345.454808,409.052297 C346.96376,416.262722 348.47664,423.503218 350,430.788166" id="Visa-Logo" fill="#FFFFFF" mask="url(#mask-10)"></path>
                <g id="Page-1" mask="url(#mask-10)">
                    <g transform="translate(320.000000, 396.000000)" id="Combined-Shape">
                        <g>
                            <use fill="#467740" fill-rule="evenodd" xlink:href="#path-12"></use>
                            <use fill="black" fill-opacity="1" filter="url(#filter-13)" xlink:href="#path-12"></use>
                        </g>
                    </g>
                </g>
                <g mask="url(#mask-10)">
                    <use fill-opacity="0.00999999978" fill="#273043" fill-rule="evenodd" xlink:href="#path-15"></use>
                    <use fill="url(#linearGradient-14)" fill-rule="evenodd" xlink:href="#path-15"></use>
                    <use fill="black" fill-opacity="1" filter="url(#filter-16)" xlink:href="#path-15"></use>
                </g>
                <g id="Chip" mask="url(#mask-10)">
                    <g transform="translate(285.500000, 188.000000) rotate(-270.000000) translate(-285.500000, -188.000000) translate(266.000000, 173.000000)">
                        <g id="Rectangle-41" stroke-width="0.5">
                            <rect stroke="url(#radialGradient-18)" stroke-linejoin="square" fill="url(#linearGradient-17)" fill-rule="evenodd" x="0.25" y="0.25" width="38.5" height="29.5" rx="3"></rect>
                            <rect stroke-opacity="0.2" stroke="#000000" x="-0.25" y="-0.25" width="39.5" height="30.5" rx="3"></rect>
                        </g>
                        <g id="chip" opacity="0.799999952" stroke-width="1" fill-rule="evenodd" transform="translate(-0.000000, 2.400000)">
                            <g id="Rectangle-42">
                                <use fill="black" fill-opacity="1" filter="url(#filter-21)" xlink:href="#path-20"></use>
                                <use fill-opacity="0.8" fill="#000000" fill-rule="evenodd" xlink:href="#path-20"></use>
                            </g>
                            <g id="Rectangle-42">
                                <use fill="black" fill-opacity="1" filter="url(#filter-23)" xlink:href="#path-22"></use>
                                <use fill-opacity="0.8" fill="#000000" fill-rule="evenodd" xlink:href="#path-22"></use>
                            </g>
                            <g id="Rectangle-42">
                                <use fill="black" fill-opacity="1" filter="url(#filter-25)" xlink:href="#path-24"></use>
                                <use fill-opacity="0.8" fill="#000000" fill-rule="evenodd" xlink:href="#path-24"></use>
                            </g>
                            <g id="Rectangle-42">
                                <use fill="black" fill-opacity="1" filter="url(#filter-27)" xlink:href="#path-26"></use>
                                <use fill-opacity="0.8" fill="#000000" fill-rule="evenodd" xlink:href="#path-26"></use>
                            </g>
                            <g id="Oval-3">
                                <use fill="black" fill-opacity="1" filter="url(#filter-29)" xlink:href="#path-28"></use>
                                <use stroke-opacity="0.8" stroke="#000000" stroke-width="0.6" xlink:href="#path-28"></use>
                            </g>
                        </g>
                    </g>
                </g>
                <rect id="Mask" fill="url(#radialGradient-30)" mask="url(#mask-10)" x="167" y="132" width="201" height="320" rx="10"></rect>
            </g>
            <g id="green-leaf-right" transform="translate(381.000000, 14.000000)">
                <g id="Group-3-Copy" transform="translate(87.500000, 100.629245) scale(-1, 1) rotate(-12.000000) translate(-87.500000, -100.629245) translate(17.000000, 13.629245)">
                    <mask id="mask-32" fill="white">
                        <use xlink:href="#path-31"></use>
                    </mask>
                    <g id="Clip-2"></g>
                    <polygon id="Fill-1" fill="#6BA981" mask="url(#mask-32)" points="-29.513 198.5 140.604 198.5 140.604 0.4 -29.513 0.4"></polygon>
                </g>
                <g id="Group-6-Copy" transform="translate(87.500000, 100.629245) scale(-1, 1) rotate(-12.000000) translate(-87.500000, -100.629245) translate(17.000000, 13.629245)">
                    <mask id="mask-34" fill="white">
                        <use xlink:href="#path-33"></use>
                    </mask>
                    <g id="Clip-5"></g>
                    <polygon id="Fill-4" fill="#9FE1B7" opacity="0.5" mask="url(#mask-34)" points="119.0536 156.0908 131.1236 28.1468 130.2426 28.0638 118.2636 155.0448 98.5286 128.9098 111.8006 9.4648 110.9206 9.3668 97.7526 127.8818 77.1476 100.5938 86.8136 2.7218 85.9326 2.6348 76.3616 99.5518 56.8786 73.7508 64.1366 -21.8242 63.2546 -21.8912 56.0716 72.6818 33.0906 42.2468 41.5196 -49.2772 40.6386 -49.3582 32.2986 41.1988 13.3316 16.0798 21.7736 -75.5712 20.8926 -75.6522 12.5396 15.0308 -2.7974 -5.2792 -3.5944 -4.6772 11.8306 15.7518 -77.6814 -2.1512 -77.8554 -1.2832 12.6336 16.8148 31.6426 41.9888 -58.0764 24.0448 -58.2504 24.9128 32.4456 43.0518 55.3926 73.4418 -37.9114 54.3028 -38.0894 55.1708 56.1996 74.5108 75.4426 99.9948 -19.7604 82.1438 -19.9234 83.0138 76.2346 101.0438 97.1006 128.6778 -20.6064 108.2588 -20.7584 109.1318 97.8736 129.7108 97.8746 129.7028 117.6796 155.9318 -8.2224 131.9498 -8.3884 132.8198 118.4746 156.9838 131.0746 173.6708 131.3756 174.0688 132.1736 173.4658"></polygon>
                </g>
            </g>
            <g id="purple-leaf" transform="translate(438.000000, 121.000000)">
                <g id="Group-6">
                    <mask id="mask-36" fill="white">
                        <use xlink:href="#path-35"></use>
                    </mask>
                    <g id="Clip-5"></g>
                    <polygon id="Fill-4" fill="url(#linearGradient-37)" mask="url(#mask-36)" points="0 -2 0 100 0.001 100 130 100 130 100 130 -2"></polygon>
                </g>
                <g id="Group-9">
                    <mask id="mask-39" fill="white">
                        <use xlink:href="#path-38"></use>
                    </mask>
                    <g id="Clip-8"></g>
                    <path d="M172.6114,27.946 L172.7444,27.071 L112.6884,17.977 C117.1104,14.644 121.6454,11.193 126.3054,7.607 L126.7024,7.302 L126.0924,6.509 L125.6964,6.814 C121.0974,10.352 116.6234,13.758 112.2574,17.05 L128.1044,-41.565 L127.2514,-41.797 L111.1054,17.92 C105.4724,22.159 100.0484,26.176 94.8204,29.992 L110.6554,-28.577 L109.8014,-28.809 L93.6774,30.826 C86.8644,35.785 80.4104,40.37 74.3214,44.581 L91.3084,-16.017 L90.4564,-16.257 L73.1814,45.368 C67.6784,49.159 62.4744,52.644 57.5984,55.795 C55.8044,56.954 53.9934,58.094 52.1804,59.234 L69.3744,-3.572 L68.5204,-3.805 L51.0694,59.939 C44.8764,63.81 38.5684,67.557 32.1764,71.189 L51.4744,-6.636 L50.6144,-6.849 L31.1144,71.796 C25.2244,75.124 19.2624,78.347 13.2394,81.455 L34.8334,-1.087 L33.9764,-1.31 L12.1834,81.993 C8.0964,84.09 3.9894,86.146 -0.1466,88.134 L-0.5966,88.35 L-0.1636,89.252 L0.2874,89.035 C4.4174,87.05 8.5194,84.996 12.6014,82.902 L97.6474,96.851 L97.7904,95.978 L13.9314,82.223 C20.0824,79.048 26.1664,75.747 32.1774,72.34 L111.3694,86.789 L111.5274,85.918 L33.3734,71.658 C39.6654,68.07 45.8754,64.369 51.9744,60.55 L117.1194,71.094 L117.2594,70.221 L53.0984,59.836 C54.7844,58.774 56.4724,57.713 58.1414,56.634 C63.0464,53.465 68.2844,49.957 73.8224,46.14 L136.6184,55.489 L136.7494,54.614 L74.8874,45.405 C80.9694,41.2 87.4144,36.621 94.2164,31.671 L155.4054,40.936 L155.5384,40.061 L95.2324,30.929 C100.5184,27.074 106.0034,23.011 111.7014,18.723 L172.6114,27.946 Z" id="Fill-7" fill="#FFFFFF" opacity="0.1" mask="url(#mask-39)"></path>
                </g>
            </g>
            <g id="Group-7" transform="translate(165.000000, 3.000000)">
                <g id="Rectangle-4">
                    <use fill="black" fill-opacity="1" filter="url(#filter-43)" xlink:href="#path-42"></use>
                    <use fill="#FFFFFF" fill-rule="evenodd" xlink:href="#path-42"></use>
                    <use fill-opacity="0.0399999991" fill="url(#linearGradient-40)" fill-rule="evenodd" xlink:href="#path-42"></use>
                    <use fill="black" fill-opacity="1" filter="url(#filter-44)" xlink:href="#path-42"></use>
                    <rect stroke="url(#linearGradient-41)" stroke-width="2" x="-1" y="-1" width="294" height="294" rx="52"></rect>
                </g>
                <g id="Rectangle-4">
                    <use fill="#FFFFFF" fill-rule="evenodd" xlink:href="#path-46"></use>
                    <use fill="url(#linearGradient-45)" fill-rule="evenodd" xlink:href="#path-46"></use>
                    <use fill="black" fill-opacity="1" filter="url(#filter-47)" xlink:href="#path-46"></use>
                    <rect stroke="url(#linearGradient-41)" stroke-width="1" x="95.5" y="95.5" width="101" height="101" rx="50.5"></rect>
                </g>
                <g id="acorns-logo">
                    <use fill="#E9E6E6" fill-rule="evenodd" xlink:href="#path-48"></use>
                    <use fill="black" fill-opacity="1" filter="url(#filter-49)" xlink:href="#path-48"></use>
                </g>
                <g id="Oval-2">
                    <use fill="#E9E6E6" fill-rule="evenodd" xlink:href="#path-50"></use>
                    <use fill="black" fill-opacity="1" filter="url(#filter-51)" xlink:href="#path-50"></use>
                </g>
                <g id="Oval-2">
                    <use fill="#E9E6E6" fill-rule="evenodd" xlink:href="#path-52"></use>
                    <use fill="black" fill-opacity="1" filter="url(#filter-53)" xlink:href="#path-52"></use>
                </g>
                <g id="Oval-2">
                    <use fill="#E9E6E6" fill-rule="evenodd" xlink:href="#path-54"></use>
                    <use fill="black" fill-opacity="1" filter="url(#filter-55)" xlink:href="#path-54"></use>
                </g>
            </g>
        </g>
    </g>
</svg>