<?xml version="1.0" encoding="utf-8"?>
<!-- Generator: Adobe Illustrator 22.1.0, SVG Export Plug-In . SVG Version: 6.00 Build 0)  -->
<svg version="1.1"
	 id="svg2985" inkscape:version="0.48.4 r9939" sodipodi:docname="Forbes-logo.svg" xmlns:cc="http://creativecommons.org/ns#" xmlns:dc="http://purl.org/dc/elements/1.1/" xmlns:inkscape="http://www.inkscape.org/namespaces/inkscape" xmlns:rdf="http://www.w3.org/1999/02/22-rdf-syntax-ns#" xmlns:sodipodi="http://sodipodi.sourceforge.net/DTD/sodipodi-0.dtd" xmlns:svg="http://www.w3.org/2000/svg"
	 xmlns="http://www.w3.org/2000/svg" xmlns:xlink="http://www.w3.org/1999/xlink" x="0px" y="0px" viewBox="0 0 152.9 40"
	 style="enable-background:new 0 0 152.9 40;" xml:space="preserve">
<style type="text/css">
	.st0{fill:#5A5A5A;}
</style>
<sodipodi:namedview  bordercolor="#666666" borderopacity="1" fit-margin-bottom="0" fit-margin-left="0" fit-margin-right="0" fit-margin-top="0" gridtolerance="10" guidetolerance="10" id="namedview2987" inkscape:current-layer="svg2985" inkscape:cx="685.02581" inkscape:cy="170.72431" inkscape:pageopacity="0" inkscape:pageshadow="2" inkscape:window-height="877" inkscape:window-maximized="1" inkscape:window-width="1440" inkscape:window-x="-8" inkscape:window-y="-8" inkscape:zoom="0.88622754" objecttolerance="10" pagecolor="#ffffff" showgrid="false">
	</sodipodi:namedview>
<g>
	<path class="st0" d="M54.2,23.1c-0.6-4.9-2.6-8.4-6.1-10.5c-3.8-2.2-9.6-2.4-13.7-0.3c-3,1.5-5.4,4.3-6.4,7.6
		c-1.1,3.4-1.1,7.8,0,11.3c0.7,2.2,1.7,3.8,3.2,5.3c1.8,1.8,4.1,2.9,6.8,3.3c1,0.1,4,0.1,5,0c0.5-0.1,1.3-0.2,1.8-0.4
		c4.8-1.4,8.1-5.1,9.3-10.4C54.3,27.8,54.4,24.6,54.2,23.1z M44.2,35.6c-0.5,1-1.5,1.9-2.3,2.1c-3,0.9-5.2-2-6-8
		c-0.3-1.9-0.3-7.2,0-9.4c0.6-4.8,2.1-7.3,4.4-7.3c1.1,0,1.6,0.3,2.5,1.1c2,2,2.9,5.8,2.9,11.7C45.8,30.6,45.3,33.6,44.2,35.6z"/>
	<path class="st0" d="M103.5,20.8c-1.1-5-4.2-8.5-8.5-9.4c-0.6-0.1-1.2-0.2-2.5-0.1c-1.9,0.1-3.2,0.4-4.6,1
		c-0.5,0.2-0.9,0.4-0.9,0.4c0,0,0-2.9,0-6.4C87,1.4,87,0,86.9,0c-0.4,0-11.6,2.1-11.7,2.2c-0.1,0.1-0.1,0.3-0.1,0.7
		c0,0.6,0,0.6,1.3,0.9c0.4,0.1,0.9,0.3,1.1,0.4c0.5,0.3,0.8,1,1.1,2c0.2,0.8,0.2,1.4,0.3,6.8c0.1,5.5,0.1,11.1-0.1,21.5l-0.1,4.3
		l0.8,0.2c1.2,0.3,4.5,0.8,5.6,0.9l0,0c1.6,0.2,5.3,0.1,6.5,0c5.2-0.8,9-3.8,10.9-8.3c0.5-1.2,0.9-3.1,1.1-4.5
		C103.9,25.4,103.7,22.1,103.5,20.8z M95.1,28.2c-0.5,3.8-1.7,6.9-3.4,8.4c-0.7,0.6-1.3,0.9-2.1,1.1h0c-0.6,0.1-0.8,0.1-1.8,0
		c-0.4,0-0.5-0.1-0.6-0.3C87,37,86.9,24.2,86.9,19l0.1-4l0.7-0.2c0.5-0.1,1.1-0.2,1.7-0.2c0.9,0,1.1,0,1.8,0.4
		c1.9,0.9,3.2,3.3,3.8,6.8C95.3,23.1,95.3,26.6,95.1,28.2z"/>
	<path class="st0" d="M130.4,22c-0.5-4.9-2.5-8.3-5.9-10c-3-1.5-7.7-1.4-11.1,0.3c-3.2,1.6-5.5,4.2-6.7,7.9c-0.6,1.9-0.9,3.5-0.8,6
		c0,1.6,0.1,2.4,0.3,3.1c1.3,5.7,5.2,9.6,10.6,10.5l0,0c1.2,0.2,3.9,0.2,5.1,0c1.7-0.3,3.7-1.1,5-1.9c1.5-1,3.1-2.6,3.1-3.1
		c0-0.3-0.5-1-0.8-1c-0.1,0-0.5,0.2-0.9,0.5c-1.5,1-2.9,1.4-4.9,1.4c-2.8,0-4.5-0.7-6.3-2.5c-0.8-0.8-1.1-1.2-1.5-2
		c-0.9-1.7-1.4-3.7-1.4-5.9l0-1l8.1,0l8.1,0l0-0.5C130.5,23.5,130.4,22.7,130.4,22z M121.2,22.1c-2.3,0.1-7.2,0.2-7.3,0.1h0
		c-0.1-0.1,0.1-2.1,0.3-3.1c0.5-2.4,1.3-4.2,2.4-5.3c0.6-0.6,0.8-0.8,1.3-0.9c0.3-0.1,0.7-0.2,0.8-0.2c0.5,0,1.1,0.3,1.5,0.7
		c1.2,1.1,1.9,3.4,2,6.9l0.1,1.7L121.2,22.1z"/>
	<path class="st0" d="M120.3,13.4c-0.4-0.4-1-0.7-1.5-0.7c-0.1,0-0.5,0.1-0.8,0.2c-0.5,0.1-0.7,0.3-1.3,0.9
		c-1.1,1.1-1.9,2.9-2.4,5.3c-0.2,1-0.4,3-0.3,3.1h0c0.1,0.1,5,0,7.3-0.1l1.1-0.1l-0.1-1.7C122.2,16.9,121.5,14.5,120.3,13.4z
		 M120.2,21.9L120.2,21.9c-1.1,0-2.8,0.1-4,0.1l-2.1,0l0-0.4c0-0.2,0.1-0.9,0.2-1.4c0.7-4.4,2.3-7.1,4.4-7.1c1.9,0,3.1,2.6,3.3,7.4
		l0.1,1.4L120.2,21.9z"/>
	<path class="st0" d="M152.2,27c-0.9-1.8-2.6-3.1-6.2-4.6c-2.9-1.2-4.4-2.1-5.3-3c-0.7-0.8-0.9-1.4-0.9-2.6c0.1-1.1,0.3-1.7,1-2.5
		c0.9-0.9,2.1-1.3,3.5-1c2.4,0.5,3.9,2.1,5.2,5.6c0.5,1.2,0.5,1.3,1.4,1l0.5-0.2l0-1.4c0-0.8-0.1-2.4-0.1-3.7l-0.1-2.2l-0.4-0.2
		c-2.2-0.9-6.3-1.5-9-1.2c-3.1,0.3-5.3,1.3-7.1,3c-1.7,1.8-2.5,3.9-2.4,6.4c0.1,2.1,0.7,3.5,2,4.8c1.2,1.2,2.2,1.8,5,2.9
		c4.6,1.8,5.8,2.8,5.8,5c0,1.9-1,3.2-2.8,3.8c-0.6,0.2-2.3,0.2-3.1,0c-2.3-0.6-4-2.6-5.5-6.2l-0.4-0.9l-0.4,0
		c-0.2,0-0.6,0.1-0.7,0.2l-0.3,0.1l0,1.6c0,0.9,0.1,2.7,0.1,4.1l0.1,2.5l0.5,0.2c1,0.4,4.2,1.1,6.1,1.3c0.2,0,1.6,0,3,0
		c2.4,0,2.6,0,3.8-0.4c3.6-0.9,5.9-2.9,6.9-6c0.3-0.9,0.4-1.2,0.4-2.6C152.9,29.2,152.8,28.2,152.2,27z"/>
	<path class="st0" d="M31.3,6.7c0-2.8-0.1-5.3-0.1-5.5l-0.1-0.4l-15.2,0c-8.3,0-15.3,0-15.5,0L0,0.8l0,0.9l0,0.9l1.2,0.1
		c1.5,0.2,2.4,0.6,2.9,1.4c1.2,1.7,1.4,4.1,1.4,15.4c0,12-0.3,14.9-1.4,16.5c-0.6,0.8-1.1,1-2.4,1.3C0,37.6,0,37.6,0,38.5
		c0,0.5,0,0.8,0.1,0.8h0c0.2,0.1,19.6,0.1,19.8,0c0.3-0.1,0.2-1.5,0-1.7c-0.1-0.1-0.8-0.2-1.5-0.3c-0.7-0.1-1.5-0.3-1.7-0.4
		c-1.3-0.6-2-2.1-2.2-4.8c-0.2-2-0.3-5.6-0.3-8.3v-2.5l1.2,0c2.5,0.1,3.8,0.2,4.3,0.4c1.1,0.5,2.1,1.9,2.5,3.9l0.3,1l0.9,0l0.9,0
		v-6.6v-6.6l-0.9,0l-0.9,0l-0.3,1c-0.5,2-1.3,3.3-2.6,3.8c-0.5,0.2-0.8,0.3-2,0.4c-0.8,0-1.9,0.1-2.5,0.1l-1,0l0-3.3
		c0-3.3,0.2-10.2,0.3-11.3l0.1-0.6H18c4,0,4.6,0.1,6,0.8c2,1,3.5,3,4.8,6.4c0.5,1.4,0.5,1.4,1.7,1l0.8-0.2L31.3,6.7z"/>
	<path class="st0" d="M74,10.9c-1.3,0-2,0.1-3,0.6c-1.9,0.9-3.3,2.3-4.6,4.6l-0.4,0.7l0.1-1.3c0-0.7,0.1-2,0.1-2.9l0.1-1.6H66
		c-0.3,0-11.2,2.2-11.6,2.3c-0.2,0.1-0.2,0.2-0.2,0.7c0,0.5,0,0.6,0.2,0.7c0.1,0,0.6,0.1,1.1,0.2c1,0.2,1.2,0.3,1.6,0.9
		c0.7,1,0.9,2.7,0.9,9.9c0,5.9-0.1,8.9-0.4,9.8c-0.3,1.1-1,1.7-2,1.9c-0.3,0.1-0.8,0.2-1,0.2l-0.4,0.1l0,0.8c0,0.5,0,0.8,0.1,0.9
		l0,0c0.1,0.1,3.8,0.1,8.3,0.1l8.1,0l0-0.9c0-0.5,0-0.9-0.1-0.9c-0.6,0-2.6-0.3-2.9-0.4c-0.9-0.4-1.4-1.2-1.6-2.9
		c-0.2-2-0.4-6.8-0.3-10.8c0.1-4,0.1-4.1,0.3-4.3c0.6-0.6,2.1-1.1,3.4-1.1c1.1,0,2.2,0.3,3.4,0.8c0.6,0.3,1.1,0.5,1.2,0.4
		c0.1-0.1,2.8-7.1,2.8-7.4C77.1,11.4,75.5,10.9,74,10.9z"/>
</g>
</svg>
