<?xml version="1.0" encoding="utf-8"?>
<!-- Generator: Adobe Illustrator 22.1.0, SVG Export Plug-In . SVG Version: 6.00 Build 0)  -->
<svg version="1.1" id="Layer_1" xmlns="http://www.w3.org/2000/svg" xmlns:xlink="http://www.w3.org/1999/xlink" x="0px" y="0px"
	 viewBox="0 0 107.2 40" style="enable-background:new 0 0 107.2 40;" xml:space="preserve">
<style type="text/css">
	.st0{fill:#5A5A5A;}
	.st1{fill:#FFFFFF;}
</style>
<title>CNNMoney-logo</title>
<g>
	<polygon class="st0" points="48.7,11.8 47.1,11.8 47.1,25.1 48.7,25.1 48.7,14.6 53.4,21.4 58.2,14.6 58.2,25.1 59.8,25.1 
		59.8,11.8 58.2,11.8 53.4,18.9 	"/>
	<path class="st0" d="M67.5,15.1c-2.8,0-5.1,2.3-5.1,5.1c0,2.8,2.3,5.1,5.1,5.1s5.1-2.3,5.1-5.1c0,0,0,0,0,0
		C72.6,17.4,70.3,15.1,67.5,15.1C67.5,15.1,67.5,15.1,67.5,15.1z M67.5,23.9c-2.1,0.1-3.8-1.5-3.9-3.6s1.5-3.8,3.6-3.9
		c2.1-0.1,3.8,1.5,3.9,3.6c0,0.1,0,0.1,0,0.2C71.1,22.2,69.5,23.9,67.5,23.9L67.5,23.9z"/>
	<path class="st0" d="M76.5,15.3h-1.4v9.9h1.5v-5.6c0-0.9,0.3-1.7,1-2.3c0.6-0.5,1.5-0.8,2.3-0.8c0.9,0,1.8,0.4,2.3,1.2
		c0.3,0.5,0.5,1.1,0.5,1.7v5.7h1.4V19c0-0.8-0.2-1.6-0.6-2.2c-0.7-1.1-2-1.8-3.4-1.7c-1.4-0.1-2.8,0.6-3.6,1.7L76.5,15.3z"/>
	<path class="st0" d="M95.7,19.6c0-0.3,0-0.7-0.1-1c-0.4-2.1-2.3-3.6-4.4-3.6c-4.2,0-4.7,3.9-4.7,5.5c0,2.6,2.1,4.7,4.7,4.7
		c0.1,0,0.1,0,0.2,0c1.5,0.1,3-0.6,4-1.8l-0.9-0.9c-0.8,0.9-2,1.4-3.2,1.3c-1.8,0-3.2-1.4-3.3-3.1h7.6L95.7,19.6z M88.1,19.5
		c0,0,0.1-3.2,3.1-3.2s3.1,3.2,3.1,3.2H88.1z"/>
	<path class="st0" d="M98.9,15.3h-1.7l4.4,9.7c-0.2,1-1,1.8-2.1,1.9c0,0-1.1,0-1.4-0.4c-0.2,0.4-0.4,0.8-0.5,1.3
		c0.7,0.3,1.4,0.5,2.1,0.5c1-0.1,2.1,0.1,3.4-3.2s4-9.7,4-9.7h-1.7l-3,8L98.9,15.3z"/>
	<path class="st0" d="M0.1,0v40h40V0H0.1z M12.2,23h2.3c0.3,0,0.5-0.2,0.5-0.5c0,0,0,0,0,0v-7c0-2.6,3.5-3.9,5.3-0.8s3,4.9,3,4.9
		v-4.1c0-2.6,3.5-3.9,5.3-0.8s3,4.9,3,4.9v-6.6h1.7v11.4c0,0.1,0,0.3-0.1,0.3s-0.2,0-0.2-0.1s-4.8-7.5-6-9.4
		c-0.3-0.4-0.7-0.6-1.2-0.4c-0.4,0.1-0.7,0.5-0.7,1v8.6c0,0.2-0.1,0.3-0.1,0.3s-0.1,0-0.2-0.1l-6-9.4c-0.3-0.4-0.7-0.6-1.2-0.4
		c-0.4,0.1-0.7,0.5-0.7,1v8.6c0,0.2-0.2,0.3-0.3,0.3H12c-3.4,0-5-2.4-5-4.6l0,0c-0.1-2.5,1.9-4.6,4.4-4.6c0.1,0,0.3,0,0.4,0h2.6v1.7
		h-2.5C7.7,16.9,7.3,23,12.2,23z M35.6,24.6c0,3-3.6,3.5-5.1,1.1l-3.1-5v3.9c0,3-3.6,3.5-5.1,1.1l-3.2-5v3.6
		c0.1,1.4-0.9,2.7-2.3,2.8c-0.2,0-0.3,0-0.5,0h-4C2,27,1.9,13,12.1,13h2.3v1.6h-2.6c-3-0.2-5.5,2.1-5.6,5.1c0,0.1,0,0.2,0,0.3
		c0,2.6,1.8,5.4,5.8,5.4h4.3c0.6,0,1.1-0.5,1.1-1.1c0,0,0,0,0,0v-8.6c0-0.2,0-0.3,0.1-0.3c0.1,0,0.2,0,0.2,0.1l6,9.4
		c0.2,0.4,0.7,0.5,1.1,0.4c0.4-0.1,0.7-0.5,0.7-1v-8.6c0-0.1,0-0.3,0.1-0.3c0.1,0,0.2,0,0.2,0.1c1.2,1.9,6,9.3,6.1,9.4
		c0.2,0.4,0.7,0.5,1.1,0.4c0.4-0.1,0.7-0.5,0.7-1V12.9h1.7V24.6z"/>
</g>
<polygon class="st1" points="-256,743.2 -256,743.2 -256,743.2 "/>
</svg>
