<?xml version="1.0" encoding="utf-8"?>
<!-- Generator: Adobe Illustrator 22.1.0, SVG Export Plug-In . SVG Version: 6.00 Build 0)  -->
<svg version="1.1" id="svg23413" xmlns="http://www.w3.org/2000/svg" xmlns:xlink="http://www.w3.org/1999/xlink" x="0px" y="0px"
	 viewBox="0 0 472 40" style="enable-background:new 0 0 472 40;" xml:space="preserve">
<style type="text/css">
	.st0{fill:#5A5A5A;}
</style>
<title>WSJ_Logo</title>
<g id="layer1">
	<path id="path13406" class="st0" d="M469.5,34.5c-1.5-0.1-2.8,1-2.9,2.5c-0.1,1.5,1,2.8,2.5,2.9s2.8-1,2.9-2.5c0-0.1,0-0.1,0-0.2
		C472.1,35.8,471,34.6,469.5,34.5C469.6,34.5,469.5,34.5,469.5,34.5 M378.4,39.7H390v-1l-1.3-0.3c-1.1-0.3-1.7-0.9-1.7-2.5V20.3h2.7
		c1.7,0,2.5,0.4,2.6,3.9l0.3,7.3c0.2,6.6,2.1,8.4,5.3,8.4s4.1-2.2,4.1-5.4v-1.3h-1.2v1c0,2.1-0.3,3.6-1.1,3.6s-0.8-0.6-1-3.2l-0.4-5
		c-0.5-6.8-1.3-9.1-6.3-10c4.8-1.3,7.7-4.8,7.7-9.7c0-6.5-5.1-9.6-10-9.6h-19.4v1l1.1,0.2c2.1,0.5,2.1,1.5,2.1,6.2v22.7
		c0,5.1-1.4,7.5-4.7,7.5c-2.9,0-4.5-1.4-4.5-7V4c0-1.6,0.5-2.1,1.8-2.3l1.5-0.3v-1h-12v1l1.3,0.3c1.1,0.3,1.5,0.8,1.5,2.4v26.6
		c0,6,3.5,9.3,8.8,9.3s8-3.3,8-9.5V5.7c0-3.1,0.6-4.2,3.1-4.2c2,0,2.9,0.7,2.9,2.6v31.8c0,1.6-0.5,2.2-1.7,2.5l-1.3,0.3V39.7
		L378.4,39.7z M455.2,4.1c0-1.6,0.5-2.1,1.7-2.3l1.5-0.4V0.3h-11.9v1l1.2,0.3c1.1,0.3,1.7,0.8,1.7,2.4v32.1c0,1.5-0.6,2.4-2.4,2.4
		c-2.1,0-2.4-0.7-3.1-4.1l-7.3-34.3h-2.3l-7,33.2c-0.8,3.7-1.2,4.6-2.8,5l-1,0.3v1h8.2v-1l-1.2-0.2c-1.7-0.3-2.2-1.2-1.3-5.6
		l4.1-21.2l4.5,22.5c0.7,3.3,0.6,3.9-1.8,4.3l-1.2,0.2v1h30.3v-13h-1.1c-0.6,6-1.8,11.7-6.6,11.7h-2.3L455.2,4.1L455.2,4.1z
		 M437.4,29.1v-1.5h-7.7l-0.2,1.5L437.4,29.1z M405.4,4.8v27.3c0,4.1,0,6.1-2.1,6.4l-1,0.2v1h8.4v-1c-3.7-0.5-3.7-1.8-3.7-6.2v-26
		l-1.4-1.3l14,34.5h2.4V7.9c0-4.7,0-5.7,2.3-6.4l0.8-0.2v-1h-8.6v1l1,0.2c2.9,0.5,2.9,1.7,2.9,6v19.9l0.6-0.2l-10.7-27h-8.2v1
		l0.8,0.2C404,1.8,404.5,2.8,405.4,4.8 M387.1,1.7h2.3c2.3,0,4.4,1.5,4.4,8.9c0,7.6-1.6,8.4-4.8,8.4h-1.9V1.7z M349,19.6
		c0,16.5-1.4,18.9-4.4,18.9s-4.3-2.3-4.3-18.8c0-15.9,1.4-18.2,4.3-18.2S349,3.8,349,19.6 M355.2,20c0-10.9-3.5-20-10.6-20
		s-10.5,9-10.5,20s3.5,20,10.5,20C351.9,40,355.2,31,355.2,20 M330.7,4.1c0-1.6,0.4-2.1,1.5-2.4l1.3-0.3v-1h-11.9v1l1.4,0.3
		c1.1,0.3,1.8,0.7,1.8,2.3v27.5c0,3.8-0.4,6.9-3.2,6.9c-1.8,0-3.2-1.4-3.1-2.5c0.2-1.8,3.1-1.7,3.4-4.5c0.3-1.4-0.7-2.8-2.1-3.1
		c-0.1,0-0.1,0-0.2,0c-1.8-0.2-3.9,1.3-4,4.2c-0.1,3.8,2.5,7.3,6.8,7.3c4.8,0,8.4-3.2,8.4-9.3V4.1z M139.6,4.1
		c0-1.6,0.5-2.1,1.7-2.3l1.6-0.4V0.3h-11.9v1l1.3,0.3c1.1,0.3,1.7,0.8,1.7,2.4v32.1c0,1.5-0.6,2.4-2.4,2.4c-2.1,0-2.4-0.7-3.1-4.1
		l-7.3-34.3h-2.3l-7,33.2c-0.8,3.7-1.2,4.6-2.8,5l-1,0.3v1h8.2v-1l-1.2-0.2c-1.7-0.3-2.2-1.2-1.3-5.6l4.1-21.4l4.5,22.6
		c0.6,3.3,0.6,3.9-1.8,4.3l-1.2,0.2v1h30.4v-13h-1c-0.6,6-1.8,11.7-6.6,11.7h-2.3V4.1z M298.9,1.7h1.3c3.5,0,4.8,5.7,5.1,11.7h1.1
		v-13h-20.8v13h1.1c0.4-6,1.6-11.7,5.1-11.7h1.3v34.3c0,1.6-0.5,2.2-1.7,2.5l-1.5,0.3v1h12.4v-1l-1.8-0.4c-1.1-0.3-1.7-0.6-1.7-2.4
		L298.9,1.7L298.9,1.7z M272.7,19.9l1.8,0.1c2.6,0.1,3.3,1,3.8,7.3h1.1V11.3h-1.1c-0.6,5-1.3,7.1-3.8,7.1l-1.8,0.1V1.7h4
		c4.4,0,5.4,5.6,6,11.7h1.1v-13H264v1l1.2,0.3c1.4,0.4,1.8,1.2,1.8,2.5v31.8c0,1.6-0.5,2.2-1.7,2.5l-1.2,0.3v1h20.3v-13h-1.1
		c-0.7,6-1.4,11.7-6.6,11.7h-4L272.7,19.9L272.7,19.9z M251.2,19.9l1.8,0.1c2.6,0.1,3.3,1,3.8,7.3h1.1V11.3h-1.1
		c-0.6,5-1.3,7.1-3.8,7.1l-1.8,0.1V1.7h4c4.4,0,5.4,5.7,6,11.7h1.1v-13h-20.4v1l1.8,0.3c1.3,0.3,1.7,1.1,1.7,2.5v31.8
		c0,1.6-0.5,2.2-1.7,2.5l-1.3,0.3v1h20.3v-13h-1.1c-0.7,6-1.4,11.7-6.6,11.7h-4L251.2,19.9L251.2,19.9z M227.6,1.7h1.7
		c2.3,0,4.4,1.5,4.4,8.9s-1.6,8.4-4.8,8.4h-1.3L227.6,1.7z M219,39.7h11.6v-1l-1.3-0.3c-1.1-0.3-1.7-0.9-1.7-2.5V20.3h2.1
		c1.7,0,2.5,0.7,2.6,3.9l0.3,7.3c0.2,6.6,2.1,8.4,5.3,8.4s4.1-2.2,4.1-5.4v-1.3h-1.2v1c0,2.1-0.3,3.6-1.1,3.6s-0.8-0.6-1-3.2l-0.4-5
		c-0.4-6.9-1.4-9.1-6.3-10c4.8-1.3,7.7-4.8,7.7-9.7c0-6.5-5.1-9.6-10-9.6H219v1l1.3,0.3c1.1,0.3,1.7,0.8,1.7,2.4v31.8
		c0,1.6-0.5,2.2-1.7,2.5l-1.3,0.3V39.7L219,39.7z M210.2,1.7h1.3c3.6,0,4.8,5.7,5.1,11.7h1.1v-13H197v13h1.1
		c0.4-6,1.6-11.7,5.1-11.7h1.2v34.3c0,1.6-0.5,2.2-1.6,2.5l-1.5,0.3v1h12.1v-1l-1.5-0.3c-1.1-0.2-1.9-1.3-1.7-2.5L210.2,1.7z
		 M197,29.5c0-11.7-12.9-14.8-12.9-23.4c0-1.8,0.7-4.6,3.6-4.6c4.1,0,5.7,5.3,6.4,11.8h1.1v-13h-0.7c-0.3,1.2-0.8,1.8-1.5,1.8
		c-1.3,0-2-2.1-5.2-2.1c-4.9,0-8.2,4.1-8.2,9.4c0,9.7,12.9,13.7,12.9,22.7c0,4.1-1.9,6.3-4.5,6.3c-3.8,0-6.4-4.5-7-11.8h-1.1v13h0.7
		c0.6-1.9,1.3-2.1,2-2.1c1.1,0,2.2,2.3,5.6,2.3C193.2,39.9,197.1,35.5,197,29.5 M159.5,4.1c0-1.6,0.5-2.1,1.7-2.3l1.6-0.4V0.3h-11.9
		v1l1.3,0.3c1.1,0.3,1.7,0.8,1.7,2.4v31.9c0,1.6-0.5,2.2-1.7,2.5l-1.3,0.3v1h18.7v-13h-1.1c-0.6,6-1.8,11.7-6.6,11.7h-2.3L159.5,4.1
		z M121.7,29.1v-1.5h-7.7l-0.2,1.5L121.7,29.1z M88.6,39.8h2.3l5.3-28.2h-0.8l5.8,28.2h2.1l7-33.2c0.7-3.5,1.1-4.7,2.5-5l1.1-0.3v-1
		h-8.1v1l1.2,0.2c1.7,0.4,2.1,1.4,1.3,5.6l-4.5,22.3h0.7L100,6c-0.5-2.2-0.7-4.1,1.2-4.4l1.2-0.2v-1h-11v1l0.7,0.2
		c1.2,0.3,1.3,1,1.8,3.2l1.8,8.5L95.3,8l-4,20.8h0.5L87.2,6c-0.5-2.3-0.7-4.1,1.1-4.5l0.9-0.2v-1H77.9v1L79,1.6c1,0.3,1.6,0.8,2.3,4
		L88.6,39.8L88.6,39.8z M58,19.9l1.8,0.1c2.6,0.1,3.3,1,3.8,7.3h1.1V11.3h-1.1c-0.6,5-1.3,7.1-3.8,7.1L58,18.5V1.7h4
		c4.4,0,5.4,5.7,6,11.7h1.1v-13H49.3v1l1.3,0.3c1.3,0.4,1.7,1.2,1.7,2.5v31.8c0,1.6-0.5,2.2-1.7,2.5l-1.3,0.3v1h20.3v-13h-1.1
		c-0.7,6-1.4,11.7-6.6,11.7h-4V19.9z M22,39.7h11.8v-1l-1.3-0.3c-1-0.2-1.7-0.9-1.7-2.5V20.3h8.6v15.6c0,1.6-0.7,2.3-1.7,2.5
		l-1.3,0.3v1h11.7v-1l-1.3-0.3c-1.1-0.3-1.7-0.9-1.7-2.5V4.1c0-1.6,0.5-2.1,1.7-2.4l1.3-0.3v-1H36.3v1l1.3,0.3
		c1.1,0.1,1.9,1.1,1.7,2.2c0,0,0,0.1,0,0.1v14.7h-8.6V4c0-1.6,0.6-2.1,1.7-2.3l1.3-0.3v-1H22v1l1.3,0.3C24.4,2,25,2.5,25,4.1v31.8
		c0,1.6-0.5,2.2-1.7,2.5L22,38.7V39.7L22,39.7z M13.3,1.7h1.3c3.5,0,4.7,5.7,5.2,11.7h1.1v-13H0v13h1.1c0.4-6,1.6-11.7,5.2-11.7h1.3
		v34.3c0,1.6-0.5,2.2-1.7,2.5l-1.5,0.3v1h12.4v-1l-1.8-0.4c-1.1-0.3-1.7-0.6-1.7-2.4C13.3,35.9,13.3,1.7,13.3,1.7z"/>
</g>
</svg>
