<?xml version="1.0" encoding="utf-8"?>
<!-- Generator: Adobe Illustrator 22.1.0, SVG Export Plug-In . SVG Version: 6.00 Build 0)  -->
<svg version="1.1"
	 id="svg8" inkscape:version="0.92.2 (5c3e80d, 2017-08-06)" sodipodi:docname="CNBC Horizontal 2.svg" xmlns:cc="http://creativecommons.org/ns#" xmlns:dc="http://purl.org/dc/elements/1.1/" xmlns:inkscape="http://www.inkscape.org/namespaces/inkscape" xmlns:rdf="http://www.w3.org/1999/02/22-rdf-syntax-ns#" xmlns:sodipodi="http://sodipodi.sourceforge.net/DTD/sodipodi-0.dtd" xmlns:svg="http://www.w3.org/2000/svg"
	 xmlns="http://www.w3.org/2000/svg" xmlns:xlink="http://www.w3.org/1999/xlink" x="0px" y="0px" viewBox="0 0 282.1 40"
	 style="enable-background:new 0 0 282.1 40;" xml:space="preserve">
<style type="text/css">
	.st0{fill:#5A5A5A;}
</style>
<sodipodi:namedview  bordercolor="#666666" borderopacity="1.0" id="base" inkscape:current-layer="svg8" inkscape:cx="400.63532" inkscape:cy="104.74164" inkscape:document-units="px" inkscape:pageopacity="0.0" inkscape:pageshadow="2" inkscape:window-height="705" inkscape:window-maximized="1" inkscape:window-width="1366" inkscape:window-x="-8" inkscape:window-y="-8" inkscape:zoom="0.77109376" pagecolor="#ffffff" showgrid="false">
	</sodipodi:namedview>
<g>
	<g id="g11909" transform="matrix(0.26270201,0,0,0.26270201,643.48486,389.78639)">
		<path id="path39" inkscape:connector-curvature="0" class="st0" d="M-2220.1-1393.5l-78.5,52.5l26.4-62.8l12.5-29.2
			c5.1-9.5,14.6-15.5,25.1-15.6c10,0,18.9,4.8,24.5,13.4c5.8,8.6,6.1,22.7,0.3,31.5C-2212.3-1399.7-2216.1-1396.1-2220.1-1393.5z"/>
		<path id="path41" inkscape:connector-curvature="0" class="st0" d="M-2259.1-1443l-38.8,91.7l-1.7-10l-11.7-75.2
			c-0.5-4.6,1.4-8.5,5.1-11l5.6-3.3c0.3-1.2-1.3-1.5-2.1-1.9l-10.9-0.1c-0.7-10.8,4.1-20.7,13.2-26.6c7.1-4.6,18-5.9,25.9-2.1
			c10.3,4.2,17.5,15.2,17.7,26.4C-2256.9-1451-2257.6-1446.7-2259.1-1443z"/>
		<path id="path43" inkscape:connector-curvature="0" class="st0" d="M-2333.6-1351l-38.2-91.9c-4.1-9.8-2.4-22.8,4.6-30.7
			c7.5-8.3,18.1-11.9,29-9.1c9.2,2.3,17.9,11.1,20.2,20.6c1.1,3.5,0.9,7.8,0.7,11.7L-2333.6-1351z"/>
		<path id="path45" inkscape:connector-curvature="0" class="st0" d="M-2415.3-1396.8c-7.8-6.8-11.3-15.9-10.2-26.4
			c1.1-10.6,9.5-21,19.5-24.2c10.3-3.2,21.4-0.7,28.9,7c3.1,3,5.1,6.5,6.7,10.2l36.9,89.3L-2415.3-1396.8z"/>
		<path id="path47" inkscape:connector-curvature="0" class="st0" d="M-2423.7-1331.5c-10.2-1.2-18.1-6.7-22.9-16
			c-4.9-9.4-3.6-22.9,2.9-31.2c7.1-8.5,17.4-12.8,27.8-10.7c4.2,0.7,7.8,2.5,11.1,4.6l79.4,53.4L-2423.7-1331.5L-2423.7-1331.5z"/>
		<path id="path49" inkscape:connector-curvature="0" class="st0" d="M-2208-1331.5c10.2-1.2,18.1-6.7,22.9-16
			c4.9-9.4,3.6-22.9-2.9-31.2c-7.1-8.5-17.4-12.8-27.8-10.7c-4.2,0.7-7.8,2.5-11.1,4.6l-79.4,53.4L-2208-1331.5L-2208-1331.5z"/>
	</g>
	<path id="path5311" inkscape:connector-curvature="0" class="st0" d="M113.8,16.6c-0.8-3.7-3.7-4.6-7.1-4.9
		C95.9,10.7,94,18.8,94,22.2c0,5.9,1.7,10.7,12.3,10.7c2,0,7.4-2,7.4-5.3H129c-0.6,9.7-16.9,12.1-24.1,12.1
		c-14.8,0-27.4-2.8-26.8-17.3c0.4-10.4,10.2-17.7,29.7-17.2c10.9,0.3,21.3,3.6,21.4,11.5L113.8,16.6z M266.7,16.6
		c-0.8-3.7-3.7-4.6-7.1-4.9c-10.8-1-12.7,7.1-12.7,10.5c0,5.9,1.7,10.7,12.3,10.7c2,0,7.4-2,7.4-5.3h15.3
		c-0.6,9.7-16.9,12.1-24.1,12.1c-14.8,0-27.4-2.8-26.8-17.3c0.4-10.4,10.2-17.7,29.7-17.2c10.9,0.3,21.3,3.6,21.4,11.5L266.7,16.6z
		 M131.9,5.8h19.8l16.9,23.8h0.1V5.8h12.7v33h-19L144.8,15h-0.1v23.8h-12.7L131.9,5.8z M185.4,5.8h24.1c11.6,0,18.4,3.2,18.4,8.1
		c0,2.9-2.8,6.5-9.2,7.5v0.1c7.6,0.5,10.5,5.3,10.5,8.2c0,5.8-6.6,9.1-19.6,9.1h-24.1L185.4,5.8z M199.4,18.6h4c6.1,0,9.4-0.5,9.4-3
		c0-2.7-2.7-3.7-8.2-3.7h-5.1L199.4,18.6L199.4,18.6L199.4,18.6z M199.4,31.8h4c7.4,0,10.1-0.8,10.1-3.3c0-2.7-3.4-3.7-9-3.7h-5.1
		L199.4,31.8L199.4,31.8L199.4,31.8z"/>
</g>
</svg>
