<?xml version="1.0" encoding="UTF-8"?>
<svg width="188px" height="25px" viewBox="0 0 188 25" version="1.1" xmlns="http://www.w3.org/2000/svg" xmlns:xlink="http://www.w3.org/1999/xlink">
    <!-- Generator: Sketch 52.3 (67297) - http://www.bohemiancoding.com/sketch -->
    <title>Group 17</title>
    <desc>Created with Sketch.</desc>
    <g id="Final" stroke="none" stroke-width="1" fill="none" fill-rule="evenodd">
        <g id="Desktop" transform="translate(-511.000000, -739.000000)" fill="#5A5A5A">
            <g id="Group-6" transform="translate(511.000000, 739.000000)">
                <g id="Group-16">
                    <g id="App-of-the-Day-2">
                        <g id="Group-17">
                            <path d="M31.94,2.008 L34.556,2.008 L41.876,19 L38.42,19 L36.836,15.112 L29.468,15.112 L27.932,19 L24.548,19 L31.94,2.008 Z M35.78,12.52 L33.164,5.608 L30.5,12.52 L35.78,12.52 Z M45.772,7.48 L45.772,9.088 L45.844,9.088 C45.9880008,8.86399888 46.1759989,8.63600116 46.408,8.404 C46.6400012,8.17199884 46.9239984,7.96400092 47.26,7.78 C47.5960017,7.59599908 47.9759979,7.4440006 48.4,7.324 C48.8240022,7.2039994 49.2999974,7.144 49.828,7.144 C50.6440041,7.144 51.3959966,7.29999844 52.084,7.612 C52.7720035,7.92400156 53.3639976,8.35199728 53.86,8.896 C54.3560025,9.44000272 54.7399987,10.0799963 55.012,10.816 C55.2840014,11.5520037 55.42,12.3439958 55.42,13.192 C55.42,14.0400042 55.2880014,14.8359963 55.024,15.58 C54.7599987,16.3240037 54.3840025,16.9719972 53.896,17.524 C53.4079976,18.0760028 52.8160035,18.5159984 52.12,18.844 C51.4239966,19.1720016 50.6360044,19.336 49.756,19.336 C48.939996,19.336 48.1920034,19.1680017 47.512,18.832 C46.8319966,18.4959983 46.3080019,18.0400029 45.94,17.464 L45.892,17.464 L45.892,24.76 L43.012,24.76 L43.012,7.48 L45.772,7.48 Z M52.492,13.192 C52.492,12.7439978 52.4240007,12.3000022 52.288,11.86 C52.1519994,11.4199978 51.9480014,11.0240018 51.676,10.672 C51.4039987,10.3199982 51.0600021,10.0360011 50.644,9.82 C50.227998,9.60399892 49.7400028,9.496 49.18,9.496 C48.6519974,9.496 48.1800021,9.60799888 47.764,9.832 C47.347998,10.0560011 46.9920015,10.3439982 46.696,10.696 C46.3999986,11.0480018 46.1760008,11.4479978 46.024,11.896 C45.8719993,12.3440022 45.796,12.7919978 45.796,13.24 C45.796,13.6880022 45.8719993,14.1319978 46.024,14.572 C46.1760008,15.0120022 46.3999986,15.4079982 46.696,15.76 C46.9920015,16.1120018 47.347998,16.3959989 47.764,16.612 C48.1800021,16.8280011 48.6519974,16.936 49.18,16.936 C49.7400028,16.936 50.227998,16.8240011 50.644,16.6 C51.0600021,16.3759989 51.4039987,16.0880018 51.676,15.736 C51.9480014,15.3839982 52.1519994,14.9840022 52.288,14.536 C52.4240007,14.0879978 52.492,13.6400022 52.492,13.192 Z M60.564,7.48 L60.564,9.088 L60.636,9.088 C60.7800007,8.86399888 60.9679989,8.63600116 61.2,8.404 C61.4320012,8.17199884 61.7159983,7.96400092 62.052,7.78 C62.3880017,7.59599908 62.7679979,7.4440006 63.192,7.324 C63.6160021,7.2039994 64.0919974,7.144 64.62,7.144 C65.4360041,7.144 66.1879966,7.29999844 66.876,7.612 C67.5640035,7.92400156 68.1559975,8.35199728 68.652,8.896 C69.1480025,9.44000272 69.5319987,10.0799963 69.804,10.816 C70.0760014,11.5520037 70.212,12.3439958 70.212,13.192 C70.212,14.0400042 70.0800013,14.8359963 69.816,15.58 C69.5519987,16.3240037 69.1760025,16.9719972 68.688,17.524 C68.1999976,18.0760028 67.6080035,18.5159984 66.912,18.844 C66.2159965,19.1720016 65.4280044,19.336 64.548,19.336 C63.7319959,19.336 62.9840034,19.1680017 62.304,18.832 C61.6239966,18.4959983 61.1000019,18.0400029 60.732,17.464 L60.684,17.464 L60.684,24.76 L57.804,24.76 L57.804,7.48 L60.564,7.48 Z M67.284,13.192 C67.284,12.7439978 67.2160007,12.3000022 67.08,11.86 C66.9439993,11.4199978 66.7400014,11.0240018 66.468,10.672 C66.1959987,10.3199982 65.8520021,10.0360011 65.436,9.82 C65.0199979,9.60399892 64.5320028,9.496 63.972,9.496 C63.4439974,9.496 62.9720021,9.60799888 62.556,9.832 C62.1399979,10.0560011 61.7840015,10.3439982 61.488,10.696 C61.1919985,11.0480018 60.9680008,11.4479978 60.816,11.896 C60.6639993,12.3440022 60.588,12.7919978 60.588,13.24 C60.588,13.6880022 60.6639993,14.1319978 60.816,14.572 C60.9680008,15.0120022 61.1919985,15.4079982 61.488,15.76 C61.7840015,16.1120018 62.1399979,16.3959989 62.556,16.612 C62.9720021,16.8280011 63.4439974,16.936 63.972,16.936 C64.5320028,16.936 65.0199979,16.8240011 65.436,16.6 C65.8520021,16.3759989 66.1959987,16.0880018 66.468,15.736 C66.7400014,15.3839982 66.9439993,14.9840022 67.08,14.536 C67.2160007,14.0879978 67.284,13.6400022 67.284,13.192 Z M77.524,13.192 C77.524,12.2799954 77.6879984,11.4520037 78.016,10.708 C78.3440017,9.96399628 78.7879972,9.32800264 79.348,8.8 C79.9080028,8.27199736 80.5719962,7.86400144 81.34,7.576 C82.1080039,7.28799856 82.9239957,7.144 83.788,7.144 C84.6520043,7.144 85.4679962,7.28799856 86.236,7.576 C87.0040039,7.86400144 87.6679972,8.27199736 88.228,8.8 C88.7880028,9.32800264 89.2319984,9.96399628 89.56,10.708 C89.8880017,11.4520037 90.052,12.2799954 90.052,13.192 C90.052,14.1040046 89.8880017,14.9359962 89.56,15.688 C89.2319984,16.4400038 88.7880028,17.0839973 88.228,17.62 C87.6679972,18.1560027 87.0040039,18.5759985 86.236,18.88 C85.4679962,19.1840015 84.6520043,19.336 83.788,19.336 C82.9239957,19.336 82.1080039,19.1840015 81.34,18.88 C80.5719962,18.5759985 79.9080028,18.1560027 79.348,17.62 C78.7879972,17.0839973 78.3440017,16.4400038 78.016,15.688 C77.6879984,14.9359962 77.524,14.1040046 77.524,13.192 Z M80.452,13.192 C80.452,13.6400022 80.5199993,14.0879978 80.656,14.536 C80.7920007,14.9840022 80.9959987,15.3839982 81.268,15.736 C81.5400014,16.0880018 81.8839979,16.3759989 82.3,16.6 C82.7160021,16.8240011 83.2119971,16.936 83.788,16.936 C84.3640029,16.936 84.8599979,16.8240011 85.276,16.6 C85.6920021,16.3759989 86.0359987,16.0880018 86.308,15.736 C86.5800014,15.3839982 86.7839993,14.9840022 86.92,14.536 C87.0560007,14.0879978 87.124,13.6400022 87.124,13.192 C87.124,12.7439978 87.0560007,12.3000022 86.92,11.86 C86.7839993,11.4199978 86.5800014,11.0240018 86.308,10.672 C86.0359987,10.3199982 85.6920021,10.0360011 85.276,9.82 C84.8599979,9.60399892 84.3640029,9.496 83.788,9.496 C83.2119971,9.496 82.7160021,9.60399892 82.3,9.82 C81.8839979,10.0360011 81.5400014,10.3199982 81.268,10.672 C80.9959987,11.0240018 80.7920007,11.4199978 80.656,11.86 C80.5199993,12.3000022 80.452,12.7439978 80.452,13.192 Z M92.892,9.784 L90.708,9.784 L90.708,7.48 L92.892,7.48 L92.892,5.776 C92.892,5.08799656 92.9679993,4.42800316 93.12,3.796 C93.2720008,3.16399684 93.5279982,2.6080024 93.888,2.128 C94.2480018,1.6479976 94.7239971,1.2680014 95.316,0.988 C95.908003,0.7079986 96.6519955,0.568 97.548,0.568 C97.8680016,0.568 98.1359989,0.57999988 98.352,0.604 C98.5680011,0.62800012 98.7879989,0.67199968 99.012,0.736 L98.82,3.184 C98.6599992,3.13599976 98.4880009,3.09600016 98.304,3.064 C98.1199991,3.03199984 97.9240011,3.016 97.716,3.016 C97.2999979,3.016 96.9640013,3.0959992 96.708,3.256 C96.4519987,3.4160008 96.2560007,3.62399872 96.12,3.88 C95.9839993,4.13600128 95.8920003,4.41599848 95.844,4.72 C95.7959998,5.02400152 95.772,5.31999856 95.772,5.608 L95.772,7.48 L98.436,7.48 L98.436,9.784 L95.772,9.784 L95.772,19 L92.892,19 L92.892,9.784 Z M104.332,9.784 L104.332,7.48 L106.348,7.48 L106.348,4.144 L109.18,4.144 L109.18,7.48 L112.06,7.48 L112.06,9.784 L109.18,9.784 L109.18,15.136 C109.18,15.6480026 109.271999,16.0719983 109.456,16.408 C109.640001,16.7440017 110.051997,16.912 110.692,16.912 C110.884001,16.912 111.091999,16.8920002 111.316,16.852 C111.540001,16.8119998 111.739999,16.7520004 111.916,16.672 L112.012,18.928 C111.755999,19.0240005 111.452002,19.0999997 111.1,19.156 C110.747998,19.2120003 110.412002,19.24 110.092,19.24 C109.323996,19.24 108.700002,19.1320011 108.22,18.916 C107.739998,18.6999989 107.360001,18.4040019 107.08,18.028 C106.799999,17.6519981 106.608001,17.2200024 106.504,16.732 C106.399999,16.2439976 106.348,15.7200028 106.348,15.16 L106.348,9.784 L104.332,9.784 Z M120.156,7.144 C120.908004,7.144 121.551997,7.27599868 122.088,7.54 C122.624003,7.80400132 123.063998,8.15199784 123.408,8.584 C123.752002,9.01600216 124.003999,9.5119972 124.164,10.072 C124.324001,10.6320028 124.404,11.207997 124.404,11.8 L124.404,19 L121.524,19 L121.524,12.664 C121.524,12.3279983 121.5,11.9800018 121.452,11.62 C121.404,11.2599982 121.304001,10.9320015 121.152,10.636 C120.999999,10.3399985 120.784001,10.096001 120.504,9.904 C120.223999,9.71199904 119.852002,9.616 119.388,9.616 C118.923998,9.616 118.524002,9.70399912 118.188,9.88 C117.851998,10.0560009 117.572001,10.2919985 117.348,10.588 C117.123999,10.8840015 116.956001,11.2159982 116.844,11.584 C116.731999,11.9520018 116.676,12.3279981 116.676,12.712 L116.676,19 L113.796,19 L113.796,0.856 L116.676,0.856 L116.676,9.088 L116.724,9.088 C116.836001,8.8479988 116.999999,8.61200116 117.216,8.38 C117.432001,8.14799884 117.683999,7.94000092 117.972,7.756 C118.260001,7.57199908 118.587998,7.42400056 118.956,7.312 C119.324002,7.19999944 119.723998,7.144 120.156,7.144 Z M135.476,12.088 C135.476,11.7199982 135.424001,11.3680017 135.32,11.032 C135.215999,10.6959983 135.052001,10.4000013 134.828,10.144 C134.603999,9.88799872 134.320002,9.68400076 133.976,9.532 C133.631998,9.37999924 133.228002,9.304 132.764,9.304 C131.899996,9.304 131.168003,9.5639974 130.568,10.084 C129.967997,10.6040026 129.636,11.2719959 129.572,12.088 L135.476,12.088 Z M138.356,13.384 L138.356,13.768 C138.356,13.8960006 138.348,14.0239994 138.332,14.152 L129.572,14.152 C129.604,14.5680021 129.711999,14.9479983 129.896,15.292 C130.080001,15.6360017 130.323998,15.9319988 130.628,16.18 C130.932002,16.4280012 131.275998,16.6239993 131.66,16.768 C132.044002,16.9120007 132.443998,16.984 132.86,16.984 C133.580004,16.984 134.187998,16.8520013 134.684,16.588 C135.180002,16.3239987 135.587998,15.9600023 135.908,15.496 L137.828,17.032 C136.691994,18.5680077 135.044011,19.336 132.884,19.336 C131.987996,19.336 131.164004,19.1960014 130.412,18.916 C129.659996,18.6359986 129.008003,18.2400026 128.456,17.728 C127.903997,17.2159974 127.472002,16.5880037 127.16,15.844 C126.847998,15.0999963 126.692,14.2560047 126.692,13.312 C126.692,12.3839954 126.847998,11.5400038 127.16,10.78 C127.472002,10.0199962 127.899997,9.37200268 128.444,8.836 C128.988003,8.29999732 129.631996,7.88400148 130.376,7.588 C131.120004,7.29199852 131.923996,7.144 132.788,7.144 C133.588004,7.144 134.327997,7.27599868 135.008,7.54 C135.688003,7.80400132 136.275998,8.1959974 136.772,8.716 C137.268002,9.2360026 137.655999,9.88399612 137.936,10.66 C138.216001,11.4360039 138.356,12.3439948 138.356,13.384 Z M146.484,2.008 L152.508,2.008 C153.612005,2.008 154.723994,2.15199856 155.844,2.44 C156.964006,2.72800144 157.971995,3.20399668 158.868,3.868 C159.764004,4.53200332 160.491997,5.4039946 161.052,6.484 C161.612003,7.5640054 161.892,8.903992 161.892,10.504 C161.892,11.9920074 161.612003,13.2719946 161.052,14.344 C160.491997,15.4160054 159.764004,16.2959966 158.868,16.984 C157.971995,17.6720034 156.964006,18.1799984 155.844,18.508 C154.723994,18.8360016 153.612005,19 152.508,19 L146.484,19 L146.484,2.008 Z M152.028,16.36 C152.812004,16.36 153.595996,16.2680009 154.38,16.084 C155.164004,15.8999991 155.871997,15.5880022 156.504,15.148 C157.136003,14.7079978 157.651998,14.1120038 158.052,13.36 C158.452002,12.6079962 158.652,11.6560058 158.652,10.504 C158.652,9.28799392 158.452002,8.29600384 158.052,7.528 C157.651998,6.75999616 157.136003,6.16000216 156.504,5.728 C155.871997,5.29599784 155.164004,5.0000008 154.38,4.84 C153.595996,4.6799992 152.812004,4.6 152.028,4.6 L149.508,4.6 L149.508,16.36 L152.028,16.36 Z M171.428,17.536 L171.356,17.536 C171.067999,18.0480026 170.604003,18.4679984 169.964,18.796 C169.323997,19.1240016 168.596004,19.288 167.78,19.288 C167.315998,19.288 166.832002,19.2280006 166.328,19.108 C165.823997,18.9879994 165.360002,18.7880014 164.936,18.508 C164.511998,18.2279986 164.160001,17.8600023 163.88,17.404 C163.599999,16.9479977 163.46,16.3840034 163.46,15.712 C163.46,14.8479957 163.703998,14.1600026 164.192,13.648 C164.680002,13.1359974 165.307996,12.7440014 166.076,12.472 C166.844004,12.1999986 167.695995,12.0200004 168.632,11.932 C169.568005,11.8439996 170.483995,11.8 171.38,11.8 L171.38,11.512 C171.38,10.7919964 171.120003,10.2600017 170.6,9.916 C170.079997,9.57199828 169.460004,9.4 168.74,9.4 C168.131997,9.4 167.548003,9.52799872 166.988,9.784 C166.427997,10.0400013 165.964002,10.3519982 165.596,10.72 L164.108,8.968 C164.764003,8.35999696 165.519996,7.90400152 166.376,7.6 C167.232004,7.29599848 168.099996,7.144 168.98,7.144 C170.004005,7.144 170.847997,7.28799856 171.512,7.576 C172.176003,7.86400144 172.699998,8.23999768 173.084,8.704 C173.468002,9.16800232 173.735999,9.68799712 173.888,10.264 C174.040001,10.8400029 174.116,11.4159971 174.116,11.992 L174.116,19 L171.428,19 L171.428,17.536 Z M171.38,13.744 L170.732,13.744 C170.267998,13.744 169.780003,13.7639998 169.268,13.804 C168.755997,13.8440002 168.284002,13.9319993 167.852,14.068 C167.419998,14.2040007 167.060001,14.3959988 166.772,14.644 C166.483999,14.8920012 166.34,15.2319978 166.34,15.664 C166.34,15.9360014 166.399999,16.1639991 166.52,16.348 C166.640001,16.5320009 166.795999,16.6799994 166.988,16.792 C167.180001,16.9040006 167.395999,16.9839998 167.636,17.032 C167.876001,17.0800002 168.115999,17.104 168.356,17.104 C169.348005,17.104 170.099997,16.8400026 170.612,16.312 C171.124003,15.7839974 171.38,15.0640046 171.38,14.152 L171.38,13.744 Z M175.348,7.48 L178.54,7.48 L181.756,15.856 L181.804,15.856 L184.66,7.48 L187.66,7.48 L182.212,21.472 C182.003999,22.0000026 181.780001,22.467998 181.54,22.876 C181.299999,23.284002 181.012002,23.6279986 180.676,23.908 C180.339998,24.1880014 179.944002,24.3999993 179.488,24.544 C179.031998,24.6880007 178.484003,24.76 177.844,24.76 C177.603999,24.76 177.360001,24.7480001 177.112,24.724 C176.863999,24.6999999 176.612001,24.6560003 176.356,24.592 L176.596,22.096 C176.788001,22.1600003 176.975999,22.2039999 177.16,22.228 C177.344001,22.2520001 177.515999,22.264 177.676,22.264 C177.980001,22.264 178.235999,22.2280004 178.444,22.156 C178.652001,22.0839996 178.827999,21.9720008 178.972,21.82 C179.116001,21.6679992 179.243999,21.4800011 179.356,21.256 C179.468001,21.0319989 179.587999,20.7680015 179.716,20.464 L180.292,19 L175.348,7.48 Z" id="App-of-the-Day"></path>
                            <g id="image_small" transform="translate(0.000000, 0.500000)" fill-rule="nonzero">
                                <path d="M11.1324683,4.84603874 C9.61339268,4.7435781 8.33003566,5.67426223 7.61414944,5.67426223 C6.8895329,5.67426223 5.76332164,4.8716539 4.57599815,4.88873067 C3.0132709,4.91434583 1.57276813,5.77672287 0.769578708,7.14286471 C-0.854260777,9.90076356 0.359253677,13.9821123 1.93944156,16.2191696 C2.71644003,17.3120831 3.63312361,18.5416107 4.84663806,18.4989188 C6.01650091,18.4562269 6.4530169,17.7646175 7.86732871,17.7646175 C9.2729102,17.7646175 9.67450492,18.4989188 10.90548,18.481842 C12.1626461,18.4562269 12.9571052,17.3633134 13.7253733,16.2703999 C14.6158659,15.0067187 14.9825394,13.777191 15,13.708884 C14.973809,13.7003456 12.5555105,12.7952766 12.5293195,10.0629929 C12.5031285,7.7832437 14.4325292,6.69033023 14.5198324,6.63909991 C13.4110818,5.06803679 11.7261301,4.88873067 11.1324683,4.84603874 M10.1983241,3.37743626 C10.8443678,2.61751986 11.2721534,1.55875993 11.1586593,0.5 C10.2332454,0.534153546 9.11576445,1.10622544 8.44352982,1.86614184 C7.84986807,2.54067438 7.32604889,3.61651108 7.465734,4.64965585 C8.50464206,4.72650133 9.55228044,4.13735266 10.1983241,3.37743626" id="Shape"></path>
                            </g>
                        </g>
                    </g>
                </g>
            </g>
        </g>
    </g>
</svg>