<svg id="_001-resume" data-name="001-resume" xmlns="http://www.w3.org/2000/svg" width="496" height="496" viewBox="0 0 496 496">
  <path id="Path_46" data-name="Path 46" d="M472,16H398.527A23.967,23.967,0,0,0,376,0H264a23.967,23.967,0,0,0-22.527,16H168a24.031,24.031,0,0,0-24,24V144H116.754a56.046,56.046,0,0,0-27.793,7.383L45.871,176H0V320H53.574l33.891,22.594A55.783,55.783,0,0,0,118.527,352H144V472a24.031,24.031,0,0,0,24,24H472a24.031,24.031,0,0,0,24-24V40A24.031,24.031,0,0,0,472,16ZM192,208h16a32,32,0,0,0,0-64H192V64h49.473A23.967,23.967,0,0,0,264,80H376a23.967,23.967,0,0,0,22.527-16H448V448H192ZM256,24a8.005,8.005,0,0,1,8-8H376a8.005,8.005,0,0,1,8,8V56a8.005,8.005,0,0,1-8,8H264a8.005,8.005,0,0,1-8-8ZM160,40a8.005,8.005,0,0,1,8-8h72V48H176v96H160ZM118.527,336a39.848,39.848,0,0,1-22.184-6.719L58.426,304H16V192H50.129L96.9,165.273A40.07,40.07,0,0,1,116.754,160H208a16,16,0,0,1,0,32H112v8a40.047,40.047,0,0,1-40,40v16a56.088,56.088,0,0,0,55.434-48H144V336ZM480,472a8.005,8.005,0,0,1-8,8H168a8.005,8.005,0,0,1-8-8V208h16V464H464V48H400V32h72a8.005,8.005,0,0,1,8,8Zm0,0" fill="#74c947"/>
  <path id="Path_47" data-name="Path 47" d="M272,32h16V48H272Zm0,0" fill="#74c947"/>
  <path id="Path_48" data-name="Path 48" d="M352,32h16V48H352Zm0,0" fill="#74c947"/>
  <path id="Path_49" data-name="Path 49" d="M378.984,369.672l-27-7.711-.008-4.059A55.916,55.916,0,0,0,376,312V296a56,56,0,0,0-112,0v16a55.939,55.939,0,0,0,24,45.887v4.082l-26.992,7.7A40.186,40.186,0,0,0,232,408.145V432H408V408.145A40.184,40.184,0,0,0,378.984,369.672ZM280,312V296a40,40,0,0,1,80,0v16a40,40,0,0,1-80,0Zm55.719,53.711L320,386.664l-15.719-20.953a55.114,55.114,0,0,0,31.438,0ZM392,416H248v-7.855a24.115,24.115,0,0,1,17.406-23.082l27.5-7.855L320,413.336l27.1-36.129,27.5,7.855A24.115,24.115,0,0,1,392,408.145Zm0,0" fill="#74c947"/>
  <path id="Path_50" data-name="Path 50" d="M208,96h16v16H208Zm0,0" fill="#74c947"/>
  <path id="Path_51" data-name="Path 51" d="M240,96H432v16H240Zm0,0" fill="#74c947"/>
  <path id="Path_52" data-name="Path 52" d="M256,128H432v16H256Zm0,0" fill="#74c947"/>
  <path id="Path_53" data-name="Path 53" d="M256,160H432v16H256Zm0,0" fill="#74c947"/>
  <path id="Path_54" data-name="Path 54" d="M416,192h16v16H416Zm0,0" fill="#74c947"/>
  <path id="Path_55" data-name="Path 55" d="M256,192H400v16H256Zm0,0" fill="#74c947"/>
</svg>
