<?xml version="1.0" encoding="utf-8"?>
<!-- Generator: Adobe Illustrator 21.0.2, SVG Export Plug-In . SVG Version: 6.00 Build 0)  -->
<svg version="1.1" id="Layer_1" xmlns="http://www.w3.org/2000/svg" xmlns:xlink="http://www.w3.org/1999/xlink" x="0px" y="0px"
	 viewBox="0 0 1500 500" style="enable-background:new 0 0 1500 500;" xml:space="preserve">
<style type="text/css">
	.st0{fill:none;}
	.st1{fill:#0066E0;}
	.st2{opacity:0.44;}
	.st3{fill:#085183;}
	.st4{fill:#004C7F;}
	.st5{fill:#241F61;}
	.st6{fill:#21214C;}
	.st7{fill:#181847;}
	.st8{fill:url(#New_Pattern_9);}
	.st9{clip-path:url(#SVGID_2_);}
	.st10{fill:url(#New_Pattern_3);}
</style>
<pattern  y="500" width="500" height="500" patternUnits="userSpaceOnUse" id="New_Pattern_3" viewBox="539 -1039 500 500" style="overflow:visible;">
	<g>
		<rect x="539" y="-1039" class="st0" width="500" height="500"/>
		<rect x="539" y="-1039" class="st0" width="500" height="500"/>
		<rect x="539" y="-1039" class="st0" width="500" height="500"/>
		<rect x="1000" y="-578" class="st1" width="578" height="578"/>
		<rect x="500" y="-578" class="st1" width="578" height="578"/>
		<rect y="-578" class="st1" width="578" height="578"/>
		<rect x="1000" y="-1078" class="st1" width="578" height="578"/>
		<g class="st2">
			<path class="st3" d="M1040.8-607c0.7-0.5,1.2-1.3,1.4-2.3l5-31.5c0.3-1.9-1-3.6-2.8-3.9c-1.9-0.3-3.6,1-3.9,2.8l0,0L1036-614v7.2
				l2.2,0.4C1039.1-606.3,1040.1-606.5,1040.8-607z"/>
		</g>
		<g class="st2">
			<path class="st3" d="M1037-806c-0.4,1.8,0.8,3.7,2.6,4.1l0,0l31.5,6.7c1.8,0.5,3.7-0.6,4.2-2.4c0.5-1.8-0.6-3.7-2.4-4.2
				c-0.1,0-0.2-0.1-0.4-0.1l0,0l-28.1-6l6.1-28.1c0.4-1.8-0.8-3.7-2.6-4.1l0,0l-11.9-2.4v7l7,1.4L1037-806z"/>
		</g>
		<rect x="500" y="-1078" class="st1" width="578" height="578"/>
		<g class="st2">
			<path class="st3" d="M827.9-867.4c-1.9,0-3.4-1.5-3.4-3.4c0-0.7,0.2-1.5,0.7-2l18.9-25.7c1.1-1.5,3.3-1.9,4.8-0.7c0,0,0,0,0,0
				l0,0l22.9,17.3l17.3-23c1.1-1.5,3.3-1.8,4.8-0.7c1.5,1.1,1.8,3.3,0.7,4.8l0,0l-19.3,25.7c-1.1,1.5-3.3,1.8-4.8,0.7l0,0
				l-22.9-17.3l-16.9,22.9C830.1-868,829-867.4,827.9-867.4z"/>
		</g>
		<g class="st2">
			<path class="st3" d="M906.1-631.6c-1.9,0-3.4-1.6-3.4-3.5c0-0.5,0.1-1,0.3-1.4l11.8-25.9l-26.3-11.6c-1.7-0.8-2.5-2.8-1.8-4.5
				c0,0,0,0,0,0l0,0l11.6-26.2l-26.1-11.2c-1.7-0.7-2.5-2.8-1.8-4.5c0.7-1.7,2.8-2.5,4.5-1.8l29.3,12.6c1.7,0.7,2.5,2.8,1.8,4.5l0,0
				l-11.7,26.3l26.3,11.6c1.7,0.8,2.5,2.8,1.8,4.5c0,0,0,0,0,0l0,0l-13.2,29C908.7-632.4,907.5-631.6,906.1-631.6z"/>
		</g>
		<g class="st2">
			<path class="st4" d="M856.8-562.5c-1.9,0-3.4-1.5-3.4-3.4c0-0.6,0.2-1.3,0.5-1.8l15-24.5l-24.4-14.6c-1.7-0.9-2.3-3-1.4-4.6
				s3-2.3,4.6-1.4c0.1,0.1,0.2,0.1,0.3,0.2l27.4,16.3c1.6,1,2.2,3.1,1.2,4.7l0,0l-16.8,27.5C859.1-563.1,858-562.5,856.8-562.5z"/>
		</g>
		<g class="st2">
			<path class="st4" d="M751.1-937.2c-1.6,0-2.9-1-3.3-2.5l-8.4-31.1c-0.6-1.8,0.4-3.7,2.2-4.3s3.7,0.4,4.3,2.2
				c0,0.1,0.1,0.2,0.1,0.4l0,0l7.5,27.7l27.4-7.8c1.8-0.5,3.7,0.5,4.3,2.4s-0.5,3.7-2.4,4.3l0,0l-30.7,8.7
				C751.7-937.2,751.4-937.2,751.1-937.2z"/>
		</g>
		<g class="st2">
			<path class="st3" d="M890.2-977.9c0-9.1-7.4-16.5-16.5-16.5c-9.1,0-16.5,7.4-16.5,16.5c0,9.1,7.4,16.5,16.5,16.5
				C882.7-961.4,890.1-968.8,890.2-977.9C890.2-977.9,890.2-977.9,890.2-977.9z M883.3-977.9c0,5.3-4.3,9.7-9.7,9.7
				c-5.3,0-9.7-4.3-9.7-9.7c0-5.3,4.3-9.7,9.7-9.7c0,0,0,0,0,0l0,0C878.9-987.6,883.3-983.2,883.3-977.9z"/>
		</g>
		<g class="st2">
			<path class="st3" d="M1036-613.8l-28.3-4.8c-1.9-0.3-3.7,0.9-4,2.7c0,0,0,0,0,0v0.1l-5.3,31.7c-0.3,1.9,0.9,3.6,2.8,4
				s3.6-0.9,4-2.8l4.8-28.3l26.1,4.5V-613.8L1036-613.8z"/>
		</g>
		<g class="st2">
			<path class="st3" d="M664.4-884.3c-1.7,0-3.1-1.2-3.4-2.9l-4.3-28.1l-28.3,4.7c-1.9,0.3-3.7-0.9-4-2.7c0,0,0,0,0,0v-0.1
				l-4.6-28.3l-28,4.9c-1.9,0.2-3.6-1.1-3.8-3c-0.2-1.8,0.9-3.4,2.7-3.8l0,0l31.4-5.5c1.9-0.3,3.7,0.9,4,2.7c0,0,0,0,0,0v0.1
				l4.6,28.4l28.3-4.7c1.9-0.3,3.7,0.9,4,2.7c0,0,0,0,0,0v0.1l4.8,31.5c0.3,1.9-1,3.6-2.8,4C664.8-884.2,664.6-884.2,664.4-884.3
				L664.4-884.3z"/>
		</g>
		<g class="st2">
			<path class="st4" d="M962.3-942.3c-1.9,0-3.4-1.5-3.4-3.4c0-0.7,0.2-1.4,0.6-2l18.6-25.9c1.1-1.5,3.2-1.9,4.8-0.8c0,0,0,0,0,0
				l0,0l25.9,19c1.5,1.1,1.9,3.3,0.7,4.8c-1.1,1.5-3.3,1.9-4.8,0.7l-23.1-17l-16.5,23.2C964.4-942.8,963.4-942.3,962.3-942.3z"/>
		</g>
		<g class="st2">
			<path class="st3" d="M966.5-843.1c0-9.1-7.4-16.5-16.5-16.5s-16.5,7.4-16.5,16.5c0,9.1,7.4,16.5,16.5,16.5
				C959.1-826.5,966.5-833.9,966.5-843.1C966.5-843.1,966.5-843.1,966.5-843.1z M959.7-843.1c0,5.3-4.3,9.7-9.7,9.7
				c-5.3,0-9.7-4.3-9.7-9.7c0-5.3,4.3-9.7,9.7-9.7c0,0,0,0,0,0l0,0C955.3-852.8,959.7-848.4,959.7-843.1z"/>
		</g>
		<g class="st2">
			<path class="st3" d="M738.6-676.1c-0.7,0-1.4-0.2-1.9-0.6l-26.5-18.2c-1.6-1.1-2-3.2-0.9-4.8c0,0,0,0,0,0l0,0l16.3-23.6
				L702-739.1c-1.6-1.1-2-3.2-0.9-4.8c1.1-1.6,3.2-2,4.8-0.9l26.4,17.8c1.6,1.1,2,3.2,0.9,4.8c0,0,0,0,0,0l0,0l-16.3,23.6l23.7,16.2
				c1.6,1.1,2,3.2,0.9,4.8C740.9-676.6,739.8-676.1,738.6-676.1L738.6-676.1z"/>
		</g>
		<g class="st2">
			<path class="st3" d="M645.7-691.5c-0.3,0-0.5,0-0.8-0.1l-31.1-7.3c-1.8-0.4-3-2.3-2.6-4.1c0,0,0,0,0,0l0,0l6.9-27.9l-27.9-6.8
				c-1.8-0.4-3-2.3-2.5-4.1c0,0,0,0,0,0v0l7.9-30.9c0.5-1.8,2.3-2.9,4.2-2.5c1.8,0.5,2.9,2.3,2.5,4.2l0,0l-7,27.5l27.9,6.8
				c1.8,0.4,3,2.3,2.5,4.1l0,0l-6.9,27.9l27.7,6.5c1.9,0.4,3,2.2,2.6,4.1C648.7-692.6,647.3-691.5,645.7-691.5L645.7-691.5z"/>
		</g>
		<g class="st2">
			<path class="st4" d="M997.2-719.5c-0.8,0-1.5-0.3-2.1-0.7l-25.3-19.5c-1.5-1.2-1.8-3.3-0.6-4.8l0,0l20-25.2
				c1.2-1.5,3.3-1.7,4.8-0.6c1.5,1.2,1.7,3.3,0.6,4.8L976.8-743l22.5,17.4c1.5,1.2,1.8,3.3,0.6,4.8
				C999.3-720,998.3-719.5,997.2-719.5L997.2-719.5z"/>
		</g>
		<g class="st2">
			<path class="st3" d="M648-612.4c0-9.1-7.4-16.5-16.5-16.5c-9.1,0-16.5,7.4-16.5,16.5c0,9.1,7.4,16.5,16.5,16.5
				C640.6-595.9,648-603.3,648-612.4C648-612.4,648-612.4,648-612.4z M641.1-612.4c0,5.3-4.3,9.7-9.7,9.7s-9.7-4.3-9.7-9.7
				c0-5.3,4.3-9.7,9.7-9.7l0,0l0,0C636.8-622.1,641.1-617.7,641.1-612.4L641.1-612.4z"/>
		</g>
		<g class="st2">
			<path class="st3" d="M1016.6-846.5c-1.9-0.4-3.7,0.8-4,2.7c-0.4,1.9,0.8,3.7,2.7,4.1l0,0l20.8,4.3v-7L1016.6-846.5z"/>
		</g>
		<g class="st2">
			<path class="st3" d="M540.8-607c0.7-0.5,1.2-1.3,1.4-2.3l5-31.5c0.3-1.9-1-3.6-2.9-3.9s-3.6,1-3.9,2.8l0,0L536-614v7.2l2.2,0.4
				C539.1-606.3,540.1-606.5,540.8-607z"/>
		</g>
		<g class="st2">
			<path class="st3" d="M537-806c-0.4,1.8,0.7,3.7,2.6,4.1c0,0,0,0,0,0l0,0l31.5,6.7c1.9,0.3,3.6-1,3.9-2.9c0.3-1.7-0.8-3.4-2.5-3.9
				l-28.1-6l6.1-28.1c0.4-1.8-0.8-3.7-2.6-4.1l0,0l-11.9-2.4v7l7,1.5L537-806z"/>
		</g>
		<g class="st2">
			<path class="st3" d="M710.3-553c1.9-0.3,3.1-2.1,2.8-3.9v-0.1l-5.4-31.4c-0.4-1.9-2.3-3-4.1-2.6c-1.7,0.4-2.9,2-2.7,3.8l4.8,28
				l-28.3,4.5c-1.9,0.3-3.1,2.1-2.9,3.9l0,0l3.5,21.7h7l-3.2-19.4L710.3-553z"/>
		</g>
		<g class="st2">
			<path class="st3" d="M651.1-1018.1c-1.9,0.3-3.2,2-2.9,3.9c0.3,1.9,2,3.2,3.9,2.9l0,0l31.5-4.8c1.9-0.3,3.2-2,2.9-3.9
				c0,0,0,0,0,0v-0.1l-1.4-8.9h-7l1.1,6.6L651.1-1018.1z"/>
		</g>
		<g class="st2">
			<path class="st4" d="M781.5-782.2c-1.1,0-2.1-0.5-2.8-1.4l-19.3-25.8c-1.1-1.5-0.8-3.7,0.7-4.8c1.5-1.1,3.7-0.8,4.8,0.7l17.2,23
				l22.6-17.3c1.5-1.2,3.7-0.9,4.8,0.6c1.2,1.5,0.9,3.7-0.6,4.8l0,0L783.5-783C782.9-782.5,782.2-782.2,781.5-782.2z"/>
		</g>
		<g class="st2">
			<path class="st3" d="M680.9-820.8c0-9.1-7.4-16.5-16.5-16.5c-9.1,0-16.5,7.4-16.5,16.5c0,9.1,7.4,16.5,16.5,16.5
				S680.9-811.7,680.9-820.8L680.9-820.8z M674-820.8c0,5.3-4.3,9.7-9.7,9.7c-5.3,0-9.7-4.3-9.7-9.7c0-5.3,4.3-9.7,9.7-9.7l0,0l0,0
				C669.7-830.5,674-826.1,674-820.8L674-820.8z"/>
		</g>
		<g class="st2">
			<path class="st3" d="M823.3-701.7c0-9.1-7.4-16.5-16.5-16.5s-16.5,7.4-16.5,16.5s7.4,16.5,16.5,16.5
				C815.9-685.2,823.3-692.6,823.3-701.7L823.3-701.7z M816.5-701.7c0,5.3-4.3,9.7-9.7,9.7c-5.3,0-9.7-4.3-9.7-9.7
				c0-5.3,4.3-9.7,9.7-9.7l0,0l0,0C812.1-711.4,816.4-707.1,816.5-701.7z"/>
		</g>
		<rect y="-1078" class="st1" width="578" height="578"/>
		<rect x="1000" y="-1578" class="st1" width="578" height="578"/>
		<rect x="500" y="-1578" class="st1" width="578" height="578"/>
		<g class="st2">
			<path class="st3" d="M710.3-1053c1.9-0.3,3.1-2.1,2.9-3.9c0,0,0-0.1,0-0.1l-5.4-31.4c-0.3-1.9-2.1-3.1-3.9-2.8c0,0,0,0-0.1,0l0,0
				c-1.9,0.3-3.1,2.1-2.8,3.9c0,0,0,0,0,0.1l0,0l4.8,28l-28.3,4.5c-1.9,0.3-3.1,2-2.8,3.9c0,0,0,0,0,0l3.6,21.8h7l-3.2-19.4
				L710.3-1053z"/>
		</g>
		<rect y="-1578" class="st1" width="578" height="578"/>
	</g>
</pattern>
<pattern  y="500" width="500" height="500" patternUnits="userSpaceOnUse" id="New_Pattern_9" viewBox="0 -500 500 500" style="overflow:visible;">
	<g>
		<rect y="-500" class="st0" width="500" height="500"/>
		<rect y="-500" class="st0" width="500" height="500"/>
		<rect y="-500" class="st0" width="500" height="500"/>
		<rect y="-500" class="st5" width="500" height="500"/>
		<path class="st6" d="M473.9-456.8c-3.6-0.3-6.8,2.4-7.1,6c-0.3,3.6,2.4,6.8,6,7.1l0,0l27.2,2.3v-13.1L473.9-456.8z"/>
		<path class="st6" d="M479.4-236.5c-1.7,0-3.4-0.7-4.6-1.9l-38.2-37.7c-2.6-2.5-2.6-6.7-0.1-9.3c2.5-2.6,6.7-2.6,9.3-0.1l0,0
			l38.3,37.7c2.6,2.5,2.6,6.7,0.1,9.3C482.8-237.2,481.2-236.5,479.4-236.5L479.4-236.5z"/>
		<path class="st7" d="M491-10.6c-3-2-7.1-1.2-9.1,1.8c0,0,0,0,0,0l0,0L476.1,0h15.7l1-1.5C494.8-4.6,494-8.6,491-10.6z"/>
		<path class="st6" d="M380.9-416.8c-1.5,0.4-3.1,0.3-4.6-0.4l-67.3-32.5c-3.3-1.6-4.6-5.5-3-8.8s5.5-4.6,8.8-3l0,0l67.3,32.5
			c3.3,1.6,4.6,5.5,3,8.7C384.3-418.6,382.8-417.3,380.9-416.8L380.9-416.8z"/>
		<path class="st7" d="M165.8-454.5c-0.9,2.2-2.8,3.7-5.1,4.1l-24.3,3.5c-3.6,0.6-7-1.8-7.6-5.4c-0.6-3.6,1.8-7,5.4-7.6
			c0.1,0,0.2,0,0.3,0l24.3-3.5c3.6-0.5,6.9,2,7.4,5.6C166.3-456.8,166.2-455.6,165.8-454.5L165.8-454.5z"/>
		<path class="st6" d="M43.1-393.5c-3.5-1.1-5.4-4.8-4.3-8.2c0.3-1,0.9-1.9,1.6-2.7l48.5-48.9c2.6-2.5,6.8-2.4,9.3,0.2
			c2.4,2.5,2.4,6.5,0,9l-48.5,48.9C48-393.4,45.5-392.7,43.1-393.5z"/>
		<path class="st6" d="M206.2-427.5c-2.9-2.2-3.4-6.3-1.3-9.2c0.5-0.7,1.1-1.2,1.9-1.7l47.7-28.3c3.1-1.9,7.1-0.8,9,2.3
			s0.8,7.1-2.3,9l0,0l0,0L213.5-427C211.2-425.7,208.3-425.8,206.2-427.5z"/>
		<path class="st7" d="M423.4-433.9c-2,0-3.9-0.9-5.2-2.5l-12-15.3c-2.2-2.8-1.7-7,1.1-9.2c2.8-2.2,7-1.7,9.2,1.1l0,0l12,15.3
			c2.2,2.8,1.7,7-1.1,9.2C426.3-434.4,424.9-433.9,423.4-433.9L423.4-433.9z"/>
		<path class="st7" d="M228.1-258.7c-2,0-3.9-0.9-5.2-2.5l-12-15.3c-2.2-2.8-1.7-7,1.1-9.2c2.8-2.2,7-1.7,9.2,1.1l0,0l12,15.3
			c2.2,2.8,1.7,7-1.1,9.2C231-259.2,229.5-258.7,228.1-258.7L228.1-258.7z"/>
		<path class="st6" d="M496.4-122.9c-1.3-3.4-5-5.1-8.4-3.9c-3.4,1.3-5.1,5-3.9,8.4c0,0.1,0.1,0.2,0.1,0.3l0,0L500-78.5v-35.3
			L496.4-122.9z"/>
		<path class="st7" d="M479.1-285.8c-3.5,1-5.5,4.6-4.5,8.1c1,3.4,4.5,5.4,7.9,4.6l17.5-4.7v-13.6L479.1-285.8z"/>
		<path class="st6" d="M247-360.9c-3.6,0-6.6-2.9-6.6-6.5c0-3.1,2.1-5.8,5.2-6.4l67.2-15c3.5-0.8,7,1.4,7.8,5c0.8,3.5-1.4,7-5,7.8
			l-67.2,15C248-360.9,247.5-360.9,247-360.9z"/>
		<path class="st6" d="M42.3-263.4c-3.6,0.6-6.9-1.9-7.5-5.4c-0.2-1-0.1-2.1,0.2-3.1l21.6-65.4c1.2-3.4,4.9-5.2,8.3-4
			c3.3,1.2,5.2,4.8,4.1,8.1l-21.5,65.4C46.7-265.5,44.7-263.8,42.3-263.4z"/>
		<path class="st6" d="M112.2-304c1.1-1.1,2.6-1.9,4.1-2l74.4-6.3c3.6-0.3,6.8,2.4,7.1,6c0.3,3.6-2.4,6.8-6,7.1l-74.4,6.3
			c-3.6,0.3-6.8-2.4-7.1-6C110.2-300.8,110.9-302.7,112.2-304L112.2-304z"/>
		<path class="st6" d="M449.6-200.7c-3.6,0.5-6.1,3.7-5.7,7.3s3.7,6.1,7.3,5.7l0,0l48.8-6.2V-207L449.6-200.7z"/>
		<path class="st6" d="M207.1-339.1c1-3.5,4.6-5.5,8.1-4.5c0.8,0.2,1.6,0.7,2.3,1.2l41,33.3c2.8,2.3,3.2,6.4,1,9.2
			c-2.3,2.8-6.4,3.2-9.2,1l0,0l-41-33.3C207.3-333.9,206.4-336.6,207.1-339.1z"/>
		<path class="st6" d="M115.5-251.9c3.2,1.6,4.5,5.6,2.9,8.8c-0.4,0.8-1,1.5-1.6,2l-40.5,33.9c-2.9,2.1-7,1.5-9.1-1.5
			c-1.9-2.6-1.6-6.3,0.7-8.5l40.5-33.9C110.3-252.8,113.2-253.1,115.5-251.9z"/>
		<path class="st6" d="M394.9-93.2c-2.9-2.2-3.4-6.4-1.1-9.2c0.5-0.7,1.2-1.3,2-1.7l46.3-25.6c3.2-1.8,7.2-0.6,8.9,2.6
			c1.8,3.2,0.6,7.2-2.6,8.9l-46.2,25.6C399.8-91.3,397-91.6,394.9-93.2z"/>
		<path class="st6" d="M398.8-3.2c-0.4,0.8-0.5,1.7-0.5,2.6V0h24.1l-15-6.6C404.1-8,400.3-6.5,398.8-3.2z"/>
		<path class="st6" d="M332.3-37.5c-3.3-1.4-7.2,0.1-8.6,3.4c0,0,0,0,0,0l0,0L309.2,0h14.3l12.3-28.9
			C337.2-32.2,335.6-36,332.3-37.5C332.3-37.5,332.3-37.5,332.3-37.5z"/>
		<path class="st6" d="M168.1-197.8c-3.3,0-6.1-2.4-6.5-5.7l-6.6-49.7c-0.3-3.6,2.3-6.8,5.9-7.2c3.4-0.3,6.5,2,7.1,5.4l0,0l6.6,49.7
			c0.5,3.6-2,6.9-5.6,7.4l0,0C168.7-197.8,168.4-197.8,168.1-197.8z"/>
		<path class="st6" d="M176.1-23.1c-2.6,2.5-2.8,6.6-0.3,9.3c0,0,0,0,0,0l0,0l13,13.8h18l-21.4-22.8
			C182.9-25.4,178.8-25.6,176.1-23.1L176.1-23.1z"/>
		<path class="st6" d="M466.1-22.2c-3.3,0-6.1-2.4-6.5-5.7l-6.5-49.7c-0.3-3.6,2.3-6.8,5.9-7.2c3.4-0.3,6.5,2,7.1,5.4l0,0l6.5,49.7
			c0.5,3.6-2,6.9-5.6,7.3l0,0C466.7-22.2,466.4-22.2,466.1-22.2z"/>
		<path class="st6" d="M103.7-111.2c-1.7,0-3.4-0.7-4.6-1.9l-43.7-43.7c-2.4-2.7-2.3-6.8,0.4-9.3c2.5-2.3,6.4-2.3,8.9,0l43.7,43.7
			c2.6,2.6,2.6,6.7,0,9.3C107.2-111.8,105.5-111.1,103.7-111.2L103.7-111.2z"/>
		<path class="st6" d="M133.2-125.1c-3.6,0-6.6-2.9-6.6-6.5c0-1.9,0.8-3.7,2.2-4.9l38.2-33.9c2.7-2.4,6.8-2.2,9.3,0.6
			s2.2,6.8-0.6,9.3l-38.2,33.9C136.3-125.7,134.8-125.1,133.2-125.1z"/>
		<path class="st7" d="M218.6-209.4c-1.2,1.6-3.1,2.6-5.1,2.6l-19.5,0.6c-3.6,0.1-6.6-2.7-6.7-6.4s2.7-6.6,6.4-6.7l19.4-0.6
			c3.6-0.1,6.6,2.7,6.7,6.3C219.9-212,219.4-210.6,218.6-209.4L218.6-209.4z"/>
		<path class="st7" d="M184.3-39.4c-2,0-3.9-0.9-5.2-2.5l-12-15.3c-2.2-2.8-1.7-7,1.1-9.2c2.8-2.2,7-1.7,9.2,1.1l0,0l12,15.3
			c2.2,2.8,1.7,7-1.1,9.2C187.2-39.9,185.7-39.4,184.3-39.4L184.3-39.4z"/>
		<path class="st7" d="M42-26.8c-2,0-3.9-0.9-5.2-2.5l-12-15.3c-2.2-2.8-1.7-7,1.1-9.2c2.8-2.2,7-1.7,9.2,1.1l0,0l12,15.3
			c2.2,2.8,1.7,7-1.1,9.2C44.9-27.3,43.5-26.8,42-26.8z"/>
		<path class="st7" d="M294.2-265.1c-2,0-3.9-0.9-5.2-2.5l-12-15.3c-2.2-2.8-1.7-7,1.1-9.2c2.8-2.2,7-1.7,9.2,1.1l12,15.3
			c2.2,2.8,1.7,7-1.1,9.2C297.1-265.6,295.7-265.1,294.2-265.1L294.2-265.1z"/>
		<path class="st7" d="M85-346.7c-2,0-3.9-0.9-5.2-2.5l-12-15.3c-2.2-2.8-1.7-7,1.1-9.2s7-1.7,9.2,1.1l12,15.3
			c2.2,2.8,1.7,7-1.1,9.2C87.9-347.2,86.5-346.7,85-346.7z"/>
		<path class="st6" d="M487.2-373.8c-2.2-2.9-6.3-3.5-9.2-1.3s-3.5,6.3-1.3,9.2c0.1,0.1,0.2,0.2,0.3,0.3l0,0l23,28.3v-20.8
			L487.2-373.8z"/>
		<path class="st7" d="M106.5-398.4h-0.3l-19.4-0.9c-3.6-0.2-6.4-3.2-6.2-6.8c0.2-3.6,3.2-6.4,6.8-6.2l0,0l19.4,0.9
			c3.6,0.1,6.5,3.1,6.4,6.7C113.1-401.1,110.1-398.3,106.5-398.4L106.5-398.4z"/>
		<path class="st7" d="M69.7-465.3l-0.3-0.1l-17.3-8.8c-3.2-1.7-4.5-5.6-2.8-8.8c1.7-3.2,5.6-4.5,8.8-2.8l17.3,8.8
			c3.3,1.6,4.6,5.5,3.1,8.7C76.9-465.1,73-463.7,69.7-465.3L69.7-465.3L69.7-465.3L69.7-465.3z"/>
		<path class="st7" d="M35.8-143.1c-0.4,2-1.7,3.6-3.5,4.5l-17.5,8.6c-3.3,1.6-7.2,0.2-8.8-3s-0.2-7.2,3-8.8l17.5-8.6
			c3.2-1.6,7.2-0.3,8.8,3C36-146.1,36.2-144.6,35.8-143.1z"/>
		<path class="st7" d="M189-399.7c0.5-3.6,3.8-6.1,7.4-5.6c1.3,0.2,2.5,0.7,3.5,1.6l21.7,19.3c2.7,2.4,2.9,6.5,0.5,9.3
			s-6.5,2.9-9.3,0.5l-21.7-19.3C189.5-395.3,188.7-397.5,189-399.7z"/>
		<path class="st7" d="M488-417.8c-2.9-2.1-7-1.5-9.2,1.4c-2.1,2.9-1.5,7,1.4,9.2l19.8,14.6l0,0V-409L488-417.8z"/>
		<path class="st6" d="M31.8-444.6c0.8-3.5-1.5-7-5-7.8c-0.3-0.1-0.5-0.1-0.8-0.1l-26-2.2v13.1l24.9,2.1
			C28.2-439.1,31.1-441.3,31.8-444.6z"/>
		<path class="st6" d="M11.3-65.6c0.3-0.1,0.5-0.2,0.8-0.3c3.4-1.3,5-5.1,3.7-8.5c0,0,0,0,0,0l0,0L0-113.9v35.3l3.6,9
			C4.8-66.4,8.1-64.7,11.3-65.6z"/>
		<path class="st7" d="M13.5-288.2c-0.9-3.5-4.5-5.5-8-4.6L0-291.4v13.6l8.9-2.4C12.4-281.2,14.4-284.7,13.5-288.2z"/>
		<path class="st6" d="M29.4-199.1c2.4-2.7,2.2-6.8-0.5-9.2c-1.4-1.3-3.3-1.9-5.2-1.6L0-207v13.2l25.3-3.2
			C26.9-197.2,28.3-198,29.4-199.1z"/>
		<path class="st6" d="M20.8-322.1c2.8-2.3,3.3-6.4,1-9.2c0,0,0,0,0,0l0,0L0-358.1v20.8l11.5,14.2C13.8-320.3,17.9-319.8,20.8-322.1
			C20.7-322.1,20.7-322.1,20.8-322.1L20.8-322.1z"/>
		<path class="st7" d="M6.5-392c3.3-1.5,4.8-5.3,3.4-8.6c-0.5-1-1.2-2-2.1-2.6L0-409v16.3C1.9-391.3,4.4-391.1,6.5-392z"/>
		<path class="st7" d="M377.5-18.4c-3.5-0.8-7,1.5-7.8,5c0,0,0,0,0,0l0,0L366.7,0h13.4l2.3-10.6C383.2-14.1,381-17.6,377.5-18.4
			C377.5-18.4,377.5-18.4,377.5-18.4z"/>
		<path class="st7" d="M103.4-74.5c-3.6,0-6.6-2.9-6.6-6.5c0-2.4,1.2-4.5,3.3-5.7L121.3-99c3.1-1.8,7.1-0.7,8.9,2.4
			c1.8,3.1,0.7,7.1-2.4,8.9l-21.3,12.3C105.6-74.8,104.5-74.5,103.4-74.5z"/>
		<path class="st7" d="M26-216.4c-3.6,0-6.6-2.9-6.6-6.5c0-2.4,1.2-4.5,3.3-5.7L44-240.9c3.1-1.8,7.1-0.7,9,2.4
			c1.8,3.1,0.7,7.1-2.4,8.9l0,0l-21.3,12.3C28.3-216.8,27.2-216.4,26-216.4z"/>
		<path class="st7" d="M441.4-307.5c-3.6,0.2-6.7-2.6-6.9-6.2c-0.1-2.4,1-4.6,3-5.8l20.7-13.2c3.2-1.7,7.2-0.6,8.9,2.6
			c1.6,2.9,0.8,6.5-1.8,8.4l-20.7,13.2C443.7-307.9,442.6-307.6,441.4-307.5z"/>
		<path class="st7" d="M122.6-331.2c-2.9-2.2-3.4-6.3-1.2-9.2c1.4-1.9,3.7-2.8,6.1-2.5l24.3,3.2c3.6,0.6,6,4,5.4,7.6
			c-0.6,3.4-3.7,5.8-7.1,5.4l0,0l-24.3-3.2C124.6-330.1,123.5-330.5,122.6-331.2z"/>
		<path class="st7" d="M390.1-138.9c-3.6,0-6.6-2.9-6.6-6.5c0-2.4,1.2-4.5,3.3-5.7l21.3-12.3c3.1-1.8,7.1-0.7,8.9,2.4
			c1.8,3.1,0.7,7.1-2.4,8.9l-21.3,12.3C392.4-139.3,391.3-139,390.1-138.9z"/>
		<path class="st7" d="M390.1-279.3c-3.6,0-6.6-2.9-6.6-6.5c0-1.6,0.6-3.2,1.7-4.4l16.3-18.3c2.4-2.7,6.5-2.9,9.3-0.5
			s2.9,6.5,0.5,9.3l0,0l0,0L395-281.5C393.8-280.1,392-279.3,390.1-279.3z"/>
		<path class="st7" d="M80.5-257.5c-1.8-3.1-0.7-7.1,2.4-8.9l21.2-12.5c3.1-1.8,7.1-0.8,9,2.3c1.8,3.1,0.8,7.1-2.3,9L89.6-255
			c-3.1,1.9-7.1,0.8-9-2.3c0,0,0,0,0,0l0,0L80.5-257.5z"/>
		<path class="st7" d="M125.5-23.4c-3.1,1.8-4.2,5.8-2.4,8.9c0,0,0,0,0,0v0.1L131.4,0h15.1l-12.1-21
			C132.6-24.2,128.6-25.2,125.5-23.4C125.5-23.5,125.5-23.5,125.5-23.4L125.5-23.4z"/>
		<path class="st7" d="M278.8-430.6c3.5,1,5.4,4.7,4.4,8.1c-0.5,1.8-1.8,3.3-3.6,4.1l-22.4,10.1c-3.3,1.5-7.2,0-8.7-3.3
			c-1.5-3.3,0-7.2,3.3-8.7l0,0l22.4-10.1C275.6-431,277.2-431.1,278.8-430.6z"/>
		<path class="st6" d="M345.6-144.4c-3.6,0-6.6-3-6.5-6.6c0-1,0.3-2.1,0.7-3l31.7-61.1c1.7-3.2,5.7-4.3,8.9-2.6
			c3.1,1.7,4.3,5.4,2.7,8.6l-31.7,61.2C350.3-145.8,348-144.4,345.6-144.4z"/>
		<path class="st6" d="M335.2-258.9c-3.6,0-6.6-3-6.5-6.6c0-1,0.3-2.1,0.7-3l31.7-61.1c1.7-3.2,5.7-4.3,8.9-2.6
			c3.1,1.7,4.3,5.4,2.7,8.6L341-262.4C339.9-260.3,337.6-258.9,335.2-258.9z"/>
		<path class="st6" d="M451.9-417.1c0.4,1.5,0.1,3.1-0.6,4.5l-34.9,66.1c-1.7,3.2-5.7,4.4-8.9,2.7c-3.2-1.7-4.4-5.7-2.7-8.9l0,0
			l34.9-66.1c1.7-3.2,5.7-4.4,8.9-2.7C450.2-420.5,451.4-419,451.9-417.1L451.9-417.1z"/>
		<path class="st6" d="M225.5-86.6c-3.6,0-6.6-2.9-6.6-6.5c0-2.3,1.1-4.4,3.1-5.6l63.2-39.9c3.1-1.9,7.1-1,9,2c1.9,3.1,1,7.1-2,9
			L229-87.6C228-87,226.8-86.6,225.5-86.6z"/>
		<path class="st6" d="M270.2-31c-1,0-2-0.2-2.9-0.7L219-55.8c-3.2-1.6-4.5-5.6-2.9-8.8c1.6-3.2,5.6-4.5,8.8-2.9l48.3,24.2
			c3.2,1.6,4.5,5.5,2.9,8.8C275-32.3,272.7-30.9,270.2-31L270.2-31z"/>
		<path class="st6" d="M150.1-362.2c-2.5,2.7-6.6,2.8-9.3,0.3c-1.9-1.8-2.6-4.5-1.7-6.9l17.9-51c1.2-3.4,4.9-5.2,8.3-4
			c3.4,1.2,5.2,4.9,4,8.3l-17.9,51C151.1-363.6,150.7-362.9,150.1-362.2z"/>
		<path class="st6" d="M91.8-20.2c-1.4-3.3-5.3-4.9-8.6-3.5c0,0,0,0,0,0l0,0L33.4-2.6c-1.2,0.5-2.3,1.4-3,2.6h30.4l27.5-11.6
			C91.6-13,93.2-16.9,91.8-20.2C91.8-20.2,91.8-20.2,91.8-20.2L91.8-20.2z"/>
		<path class="st6" d="M360.9-77.6c-1.7,0-3.4-0.7-4.6-1.9l-43.7-43.7c-2.6-2.6-2.6-6.7,0-9.3c2.6-2.6,6.7-2.6,9.3,0l43.7,43.7
			c2.6,2.6,2.6,6.7,0,9.3C364.3-78.3,362.6-77.6,360.9-77.6L360.9-77.6z"/>
		<path class="st7" d="M287.2-62.9c-3.6,0-6.5-2.9-6.5-6.6v-27.3c0-3.6,2.9-6.6,6.6-6.6c3.6,0,6.5,2.9,6.5,6.6l0,0v27.3
			C293.7-65.8,290.8-62.9,287.2-62.9L287.2-62.9z"/>
		<path class="st7" d="M428-33.4c-3.6,0-6.5-2.9-6.5-6.5v-27.3c0-3.6,2.9-6.6,6.5-6.6c3.6,0,6.6,2.9,6.6,6.6l0,0v27.3
			C434.6-36.3,431.6-33.4,428-33.4C428-33.4,428-33.4,428-33.4z"/>
		<path class="st7" d="M339.6-213c-2,0-3.9-0.9-5.2-2.5l-12-15.3c-2.2-2.8-1.7-7,1.1-9.2c2.8-2.2,7-1.7,9.2,1.1l12,15.3
			c2.2,2.8,1.7,7-1.1,9.2C342.5-213.5,341-213,339.6-213L339.6-213z"/>
		<path class="st7" d="M318-337.9c-0.3,2-1.4,3.8-3.2,4.8l-16.8,9.9c-3.1,1.8-7.1,0.8-9-2.3s-0.8-7.1,2.3-9l0,0l0,0l16.8-9.9
			c3.1-1.8,7.1-0.8,9,2.3C317.9-340.8,318.2-339.3,318-337.9L318-337.9z"/>
		<path class="st7" d="M410.9-213c-2,0-3.9-0.9-5.2-2.5l-12-15.3c-2.2-2.8-1.7-7,1.1-9.2c2.8-2.2,7-1.7,9.2,1.1l12,15.3
			c2.2,2.8,1.7,7-1.1,9.2C413.7-213.5,412.3-213,410.9-213L410.9-213z"/>
		<path class="st6" d="M245.8-179.4c-3.1,1.8-7.1,0.7-8.9-2.4c-0.9-1.6-1.1-3.6-0.5-5.3l21.1-62.6c1.2-3.4,4.9-5.3,8.3-4.1
			c3.4,1.2,5.3,4.9,4.1,8.3L248.8-183C248.3-181.5,247.2-180.2,245.8-179.4z"/>
		<path class="st7" d="M351.6-40.9c-2,0-3.9-0.9-5.2-2.5l-12-15.3c-2.2-2.8-1.7-7,1.1-9.2c2.8-2.2,7-1.7,9.2,1.1l0,0l12,15.3
			c2.2,2.8,1.7,7-1.1,9.2C354.5-41.4,353-40.9,351.6-40.9L351.6-40.9z"/>
		<path class="st7" d="M132.2-165.3c-2.3,0-4.5-1.2-5.7-3.3l-12.3-21.3c-1.8-3.1-0.7-7.1,2.4-8.9c3.1-1.8,7.1-0.7,8.9,2.4l0,0l0,0
			l12.3,21.3c1.8,3.1,0.7,7.1-2.4,8.9C134.5-165.6,133.4-165.3,132.2-165.3z"/>
		<path class="st7" d="M48.2-79.3c-2.3-0.6-4.1-2.3-4.7-4.6l-6.6-23.6c-1-3.5,0.9-7.1,4.4-8.2c3.5-1,7.1,0.9,8.2,4.4l0.1,0.3
			l6.6,23.6c1,3.5-1,7.1-4.5,8.1C50.5-79,49.3-79,48.2-79.3L48.2-79.3z"/>
		<path class="st7" d="M294-163.3c-2.1-0.9-3.6-3-3.9-5.3l-2.7-24.4c-0.2-3.6,2.6-6.7,6.2-6.9c3.3-0.2,6.2,2.2,6.8,5.4l2.6,24.4
			c0.4,3.6-2.2,6.8-5.8,7.2C296.1-162.7,295-162.9,294-163.3L294-163.3z"/>
		<path class="st7" d="M189.9-87.2h-0.3c-3.6-0.2-6.4-3.3-6.2-6.9l0,0l1.3-24.5c0.2-3.6,3.3-6.4,6.9-6.2c3.6,0.2,6.4,3.3,6.2,6.9
			l0,0l-1.3,24.5C196.3-89.9,193.4-87.2,189.9-87.2z"/>
		<path class="st7" d="M465.6-136.1h-0.3c-3.6-0.2-6.4-3.3-6.2-6.9l0,0l1.3-24.5c0.2-3.6,3.3-6.4,6.9-6.2c3.6,0.2,6.4,3.3,6.2,6.9
			l0,0l-1.3,24.5C472-138.8,469.1-136.1,465.6-136.1z"/>
		<path class="st7" d="M257.9-18.2c-3.5-0.9-7.1,1.2-8,4.7L246.4,0h13.5l2.7-10.2C263.5-13.7,261.4-17.3,257.9-18.2
			C257.9-18.2,257.9-18.2,257.9-18.2L257.9-18.2z"/>
		<path class="st7" d="M473-483.5c3,2,7.1,1.2,9.1-1.8c0,0,0,0,0,0l0,0l9.7-14.6h-15.7l-4.9,7.4C469.1-489.6,470-485.5,473-483.5
			C473-483.5,473-483.5,473-483.5L473-483.5z"/>
		<path class="st6" d="M402.2-494.6l48.4,21.2c3.3,1.5,7.2-0.1,8.6-3.4s-0.1-7.2-3.4-8.6l0,0L422.4-500h-24.1
			C398.5-497.6,400-495.5,402.2-494.6z"/>
		<path class="st6" d="M306.4-476.8c3.3,1.4,7.2-0.1,8.6-3.4c0,0,0,0,0,0l0,0l8.4-19.8h-14.3l-6.2,14.6
			C301.6-482.1,303.1-478.2,306.4-476.8z"/>
		<path class="st6" d="M218.7-476.4c0.2-0.2,0.5-0.4,0.7-0.5c2.6-2.5,2.8-6.6,0.3-9.3c0,0,0,0,0,0l0,0L206.7-500h-18l21.4,22.7
			C212.3-474.9,216-474.5,218.7-476.4z"/>
		<path class="st7" d="M366.4-483.2c2.7,2.4,6.8,2.2,9.3-0.4c0.8-0.9,1.3-1.9,1.6-3l2.9-13.4h-13.4l-2.3,10.6
			C363.9-487.2,364.7-484.8,366.4-483.2z"/>
		<path class="st7" d="M141-490c3.6,0,6.6-2.9,6.6-6.5c0-1.2-0.3-2.3-0.9-3.3l-0.1-0.2h-15.1l3.9,6.8C136.5-491.2,138.7-490,141-490
			z"/>
		<path class="st6" d="M30-494c1.4,3.3,5.3,4.9,8.6,3.5c0,0,0,0,0,0l0,0l22.3-9.5H30.4C29.3-498.2,29.2-496,30-494z"/>
		<path class="st7" d="M248.4-481.8l0.3,0.1c3.4,0.7,6.8-1.4,7.7-4.8l3.5-13.5h-13.5l-2.6,10.2C242.8-486.3,244.9-482.7,248.4-481.8
			C248.4-481.8,248.4-481.8,248.4-481.8L248.4-481.8z"/>
		<path class="st7" d="M357.2-365.4c-2.3,0-4.5-1.2-5.7-3.3l-12.3-21.3c-1.8-3.1-0.7-7.1,2.4-8.9c3.1-1.8,7.1-0.7,8.9,2.4l0,0
			l12.3,21.3c1.8,3.1,0.7,7.1-2.4,8.9C359.5-365.7,358.3-365.4,357.2-365.4z"/>
		<path class="st7" d="M245.5-140.2c-1.1,0-2.3-0.3-3.3-0.9l-16.8-9.7c-3.1-1.8-4.2-5.8-2.4-8.9c1.8-3.1,5.8-4.2,8.9-2.4l16.8,9.7
			c3.1,1.8,4.2,5.8,2.4,8.9C250-141.5,247.8-140.2,245.5-140.2L245.5-140.2z"/>
		<path class="st6" d="M147.6-39.5c-0.5,0-1-0.1-1.4-0.2L79-54.8c-3.5-0.8-5.7-4.3-4.9-7.8c0.8-3.5,4.3-5.7,7.8-4.9L149-52.4
			c3.5,0.8,5.7,4.3,5,7.8C153.3-41.6,150.6-39.5,147.6-39.5L147.6-39.5z"/>
	</g>
</pattern>
<title>invite-hero</title>
<g id="Layer_1-2">
	<rect class="st8" width="1500" height="500"/>
	<g>
		<defs>
			<rect id="SVGID_1_" width="1500" height="500"/>
		</defs>
		<clipPath id="SVGID_2_">
			<use xlink:href="#SVGID_1_"  style="overflow:visible;"/>
		</clipPath>
		<g class="st9">
			<polygon class="st10" points="2126.9,1070 722.4,1835.9 -582.2,-556.5 822.3,-1322.4 			"/>
		</g>
	</g>
</g>
</svg>
