<svg xmlns="http://www.w3.org/2000/svg" width="907.889" height="243.588" viewBox="0 0 907.889 243.588">
  <g id="Group_10" data-name="Group 10" transform="translate(-430.509 430)">
    <g id="piggy-bank" transform="translate(376.809 -542.106)">
      <g id="Group_1" data-name="Group 1" transform="translate(53.7 112.106)">
        <path id="Path_2" data-name="Path 2" d="M300.338,204.6H291c-6.158-18.87-18.208-35.622-34.3-48.6a8.943,8.943,0,0,0-.265-1.854c-3.377-11.852.795-22.644,5.628-30.391a7.6,7.6,0,0,0-7.349-11.587c-14.235,1.788-24.035,7.018-30.788,12.911a29.917,29.917,0,0,0-9.4,15.493A96.273,96.273,0,0,1,62.374,194.4a93.555,93.555,0,0,0-6.025,61.444h0a1.159,1.159,0,0,0,.066.331A95.569,95.569,0,0,0,64.36,277.3c4.569,9.865,11.19,21.386,20.327,30.722,13.176,13.573,15.427,30.391,15.758,37.674v3.575h0a6.932,6.932,0,0,0,6.886,6.423h41.846a6.881,6.881,0,0,0,6.886-6.886V338.479a143.936,143.936,0,0,0,18.605,1.258,133.616,133.616,0,0,0,14.633-.795v9.866a6.881,6.881,0,0,0,6.886,6.886h41.978a6.881,6.881,0,0,0,6.886-6.886V338.479c.066-3.443,1.258-17.149,14.235-28.868l1.39-1.192c.132-.132.265-.2.4-.331h0a103.553,103.553,0,0,0,30.59-46.745h8.806a12.716,12.716,0,0,0,12.713-12.713V217.312A12.916,12.916,0,0,0,300.338,204.6Zm-52.373,2.251a10.4,10.4,0,1,1,10.4-10.4A10.371,10.371,0,0,1,247.965,206.851Z" transform="translate(-53.7 -112.106)" fill="#fff"/>
      </g>
    </g>
    <path id="Path_42" data-name="Path 42" d="M103.224-7.48A69.7,69.7,0,0,1,87.983-1.309,64.063,64.063,0,0,1,70.873.935a62.6,62.6,0,0,1-26.928-5.7A65.166,65.166,0,0,1,23.188-19.916a69.424,69.424,0,0,1-13.37-21.6A68.037,68.037,0,0,1,5.049-66.572,66.255,66.255,0,0,1,10-91.817a68.435,68.435,0,0,1,13.838-21.5A66.726,66.726,0,0,1,44.88-128.189a63.494,63.494,0,0,1,26.554-5.516,60.927,60.927,0,0,1,26.928,5.891,66.894,66.894,0,0,1,20.757,15.427A69.164,69.164,0,0,1,132.4-90.695a68.254,68.254,0,0,1,4.675,24.684,66.754,66.754,0,0,1-4.488,24.31,67,67,0,0,1-12.716,20.757L138.941,0h-28.8ZM71.06-26.367A32.7,32.7,0,0,0,84.15-28.8L62.832-52.36h28.8L99.858-43.2a44.013,44.013,0,0,0,4.488-11.22,49.93,49.93,0,0,0,1.5-12.155A49.67,49.67,0,0,0,103.6-81.438a37.7,37.7,0,0,0-6.732-12.716,34.515,34.515,0,0,0-10.939-8.883A31.678,31.678,0,0,0,71.06-106.4a31.8,31.8,0,0,0-15.24,3.46,33.519,33.519,0,0,0-10.846,9.163,39.412,39.412,0,0,0-6.545,12.9A51.024,51.024,0,0,0,36.278-66.2a49.67,49.67,0,0,0,2.244,14.866A38.639,38.639,0,0,0,45.16-38.615,33.2,33.2,0,0,0,56.1-29.733,32.246,32.246,0,0,0,71.06-26.367ZM190.927,1.87a78.134,78.134,0,0,1-24.684-4.021,56.347,56.347,0,0,1-20.57-11.688l10.659-18.326a88.7,88.7,0,0,0,17.484,9.537,44.412,44.412,0,0,0,16.363,3.366q5.8,0,8.976-2.057a6.69,6.69,0,0,0,3.179-5.984q0-3.927-4.021-6.265T184.2-38.522q-9.911-2.8-16.737-5.423a47.213,47.213,0,0,1-11.126-5.8,18.824,18.824,0,0,1-6.171-7.293,23.331,23.331,0,0,1-1.87-9.724,30.873,30.873,0,0,1,2.992-13.651,30.737,30.737,0,0,1,8.228-10.472,39.053,39.053,0,0,1,12.436-6.732,48.518,48.518,0,0,1,15.615-2.431,69.29,69.29,0,0,1,20.663,2.992,51.666,51.666,0,0,1,18.607,10.846L215.237-68.255a79.006,79.006,0,0,0-14.96-8.415,34.133,34.133,0,0,0-12.716-2.618,16.08,16.08,0,0,0-8.228,1.964,6.714,6.714,0,0,0-3.366,6.265,6.66,6.66,0,0,0,3.646,6.171q3.646,2.057,13.557,4.488a172.477,172.477,0,0,1,17.672,5.61,47.269,47.269,0,0,1,11.688,6.265,21.234,21.234,0,0,1,6.545,7.948,25.4,25.4,0,0,1,2.057,10.659q0,14.586-10.846,23.188T190.927,1.87Zm82.467,0A38.477,38.477,0,0,1,259.837-.468a31.727,31.727,0,0,1-10.753-6.545,31.393,31.393,0,0,1-7.106-9.911,29.449,29.449,0,0,1-2.618-12.436,28.537,28.537,0,0,1,3.085-13.277,30.459,30.459,0,0,1,8.7-10.285,42.925,42.925,0,0,1,13.277-6.732,56.116,56.116,0,0,1,17.017-2.431A68.394,68.394,0,0,1,293.4-61.056a39.3,39.3,0,0,1,10.1,3.085v-4.488q0-17.017-19.635-17.017a43.642,43.642,0,0,0-15.334,2.712A73.7,73.7,0,0,0,253.2-68.629l-8.789-18.7a78.47,78.47,0,0,1,20.2-9.537,76.212,76.212,0,0,1,22.253-3.179q22.253,0,34.408,10.472T333.421-58.9V-33.66q0,4.488,1.4,6.264t4.955,2.151V0a49.961,49.961,0,0,1-7.106,1.215q-3.179.281-5.8.281-8.415,0-12.716-3.273a14.488,14.488,0,0,1-5.423-9.257l-.561-4.488a44.83,44.83,0,0,1-15.615,12.9A42.66,42.66,0,0,1,273.394,1.87Zm8.789-21.505a27.179,27.179,0,0,0,9.444-1.683,22,22,0,0,0,7.574-4.488q4.3-3.366,4.3-7.106v-9.35a48.458,48.458,0,0,0-8.509-2.337,47.3,47.3,0,0,0-8.508-.842q-8.228,0-13.557,3.74a11.4,11.4,0,0,0-5.33,9.724,11.081,11.081,0,0,0,4.114,8.883A15.713,15.713,0,0,0,282.183-19.635ZM377.927,0,343.145-98.175H374l21.505,74.239L417.2-98.175H445.06L410.465,0ZM500.038,1.87a58.015,58.015,0,0,1-22.16-4.021,49.267,49.267,0,0,1-16.643-10.94,46.885,46.885,0,0,1-10.379-15.988,51.575,51.575,0,0,1-3.553-18.98,56.612,56.612,0,0,1,3.553-20.1,48.745,48.745,0,0,1,10.285-16.549,48.006,48.006,0,0,1,16.549-11.22,57.366,57.366,0,0,1,22.347-4.114,56.671,56.671,0,0,1,22.253,4.114A48.88,48.88,0,0,1,538.747-84.8a47.169,47.169,0,0,1,10.191,16.175,54.074,54.074,0,0,1,3.46,19.261q0,2.618-.187,5.143a36.424,36.424,0,0,1-.561,4.394H479.094q.748,9.911,7.2,15.054a22.914,22.914,0,0,0,14.68,5.142A26.9,26.9,0,0,0,513.6-22.814a16.227,16.227,0,0,0,8.134-8.6l25.432,7.106A45.76,45.76,0,0,1,529.21-5.423Q517.055,1.87,500.038,1.87Zm20.757-60.214q-.935-9.35-6.732-14.773a20.27,20.27,0,0,0-14.4-5.423,19.993,19.993,0,0,0-14.492,5.517q-5.7,5.516-6.638,14.679Z" transform="translate(786 -234)" fill="#fff"/>
  </g>
</svg>
