<svg xmlns="http://www.w3.org/2000/svg" width="1688.327" height="243.588" viewBox="0 0 1688.327 243.588">
  <g id="Group_2" data-name="Group 2" transform="translate(281.491 -443)">
    <g id="piggy-bank" transform="translate(-335.191 330.894)">
      <g id="Group_1" data-name="Group 1" transform="translate(53.7 112.106)">
        <path id="Path_2" data-name="Path 2" d="M300.338,204.6H291c-6.158-18.87-18.208-35.622-34.3-48.6a8.943,8.943,0,0,0-.265-1.854c-3.377-11.852.795-22.644,5.628-30.391a7.6,7.6,0,0,0-7.349-11.587c-14.235,1.788-24.035,7.018-30.788,12.911a29.917,29.917,0,0,0-9.4,15.493A96.273,96.273,0,0,1,62.374,194.4a93.555,93.555,0,0,0-6.025,61.444h0a1.159,1.159,0,0,0,.066.331A95.569,95.569,0,0,0,64.36,277.3c4.569,9.865,11.19,21.386,20.327,30.722,13.176,13.573,15.427,30.391,15.758,37.674v3.575h0a6.932,6.932,0,0,0,6.886,6.423h41.846a6.881,6.881,0,0,0,6.886-6.886V338.479a143.936,143.936,0,0,0,18.605,1.258,133.616,133.616,0,0,0,14.633-.795v9.866a6.881,6.881,0,0,0,6.886,6.886h41.978a6.881,6.881,0,0,0,6.886-6.886V338.479c.066-3.443,1.258-17.149,14.235-28.868l1.39-1.192c.132-.132.265-.2.4-.331h0a103.553,103.553,0,0,0,30.59-46.745h8.806a12.716,12.716,0,0,0,12.713-12.713V217.312A12.916,12.916,0,0,0,300.338,204.6Zm-52.373,2.251a10.4,10.4,0,1,1,10.4-10.4A10.371,10.371,0,0,1,247.965,206.851Z" transform="translate(-53.7 -112.106)" fill="#fff"/>
      </g>
    </g>
    <path id="Path_3" data-name="Path 3" d="M41.208,2.02A41.563,41.563,0,0,1,26.563-.5a34.272,34.272,0,0,1-11.615-7.07A33.911,33.911,0,0,1,7.272-18.281,31.811,31.811,0,0,1,4.444-31.714,30.826,30.826,0,0,1,7.777-46.056a32.9,32.9,0,0,1,9.393-11.11,46.368,46.368,0,0,1,14.342-7.272,60.617,60.617,0,0,1,18.382-2.626,73.88,73.88,0,0,1,12.928,1.111A42.455,42.455,0,0,1,73.73-62.62v-4.848q0-18.382-21.21-18.382a47.143,47.143,0,0,0-16.564,2.929,79.617,79.617,0,0,0-16.564,8.787L9.9-94.334a84.765,84.765,0,0,1,21.816-10.3,82.325,82.325,0,0,1,24.038-3.434q24.038,0,37.168,11.312T106.05-63.63v27.27q0,4.848,1.515,6.767t5.353,2.323V0a53.969,53.969,0,0,1-7.676,1.313q-3.434.3-6.262.3-9.09,0-13.736-3.535a15.65,15.65,0,0,1-5.858-10l-.606-4.848A48.426,48.426,0,0,1,61.913-2.828,46.082,46.082,0,0,1,41.208,2.02ZM50.7-21.21a29.359,29.359,0,0,0,10.2-1.818,23.767,23.767,0,0,0,8.181-4.848q4.646-3.636,4.646-7.676v-10.1a52.345,52.345,0,0,0-9.191-2.525,51.089,51.089,0,0,0-9.191-.909q-8.888,0-14.645,4.04t-5.757,10.5a11.97,11.97,0,0,0,4.444,9.6A16.973,16.973,0,0,0,50.7-21.21Zm78.376-126.25H161.4V-37.774q0,12.12,10.3,12.12a22.974,22.974,0,0,0,5.353-.707,19.756,19.756,0,0,0,5.353-2.121l4.242,24.24A62.767,62.767,0,0,1,172.71.2a73.6,73.6,0,0,1-14.746,1.616q-13.938,0-21.412-7.272t-7.474-21.008ZM264.216,2.02q-12.12,0-21.008-5.05a34.727,34.727,0,0,1-13.736-14.14v60.2h-32.32V-106.05H225.23v17.17a42.543,42.543,0,0,1,14.645-14.14q8.787-5.05,20.907-5.05a45.561,45.561,0,0,1,19.695,4.242,48.086,48.086,0,0,1,15.554,11.615,54.523,54.523,0,0,1,10.3,17.372,60.957,60.957,0,0,1,3.737,21.513,68,68,0,0,1-3.434,22.018,55.188,55.188,0,0,1-9.494,17.473A44.246,44.246,0,0,1,282.6-2.222,40.528,40.528,0,0,1,264.216,2.02ZM253.308-25.25a20.019,20.019,0,0,0,9.6-2.323,25.64,25.64,0,0,0,7.575-6.161,27.089,27.089,0,0,0,4.949-8.989,33.948,33.948,0,0,0,1.717-10.807,29.645,29.645,0,0,0-1.919-10.807,27,27,0,0,0-5.252-8.585,23.048,23.048,0,0,0-8.08-5.656,25.778,25.778,0,0,0-10.2-2.02,23.478,23.478,0,0,0-12.827,3.939,25.582,25.582,0,0,0-9.393,10.6v21.816a33.45,33.45,0,0,0,9.8,13.534A21.6,21.6,0,0,0,253.308-25.25ZM428.644,0h-32.32V-59.59q0-10.3-4.04-15.15t-11.11-4.848a16.916,16.916,0,0,0-6.161,1.313,24.794,24.794,0,0,0-6.464,3.838,34.62,34.62,0,0,0-5.757,5.959,26.145,26.145,0,0,0-4.04,7.676V0h-32.32V-147.46h32.32v59.186A40.316,40.316,0,0,1,374.2-102.919a43.915,43.915,0,0,1,21.109-5.151q10.706,0,17.271,3.737a27.505,27.505,0,0,1,10.1,9.494,35.866,35.866,0,0,1,4.747,12.928,84.165,84.165,0,0,1,1.212,14.039Zm51.51,2.02A41.563,41.563,0,0,1,465.509-.5a34.272,34.272,0,0,1-11.615-7.07,33.911,33.911,0,0,1-7.676-10.706,31.811,31.811,0,0,1-2.828-13.433,30.826,30.826,0,0,1,3.333-14.342,32.9,32.9,0,0,1,9.393-11.11,46.368,46.368,0,0,1,14.342-7.272,60.617,60.617,0,0,1,18.382-2.626,73.88,73.88,0,0,1,12.928,1.111,42.454,42.454,0,0,1,10.908,3.333v-4.848q0-18.382-21.21-18.382A47.143,47.143,0,0,0,474.9-82.921a79.618,79.618,0,0,0-16.564,8.787l-9.494-20.2a84.765,84.765,0,0,1,21.816-10.3A82.325,82.325,0,0,1,494.7-108.07q24.038,0,37.168,11.312T545-63.63v27.27q0,4.848,1.515,6.767t5.353,2.323V0a53.968,53.968,0,0,1-7.676,1.313q-3.434.3-6.262.3-9.09,0-13.736-3.535a15.65,15.65,0,0,1-5.858-10l-.606-4.848A48.425,48.425,0,0,1,500.859-2.828,46.082,46.082,0,0,1,480.154,2.02Zm9.494-23.23a29.359,29.359,0,0,0,10.2-1.818,23.767,23.767,0,0,0,8.181-4.848q4.646-3.636,4.646-7.676v-10.1a52.344,52.344,0,0,0-9.191-2.525,51.089,51.089,0,0,0-9.191-.909q-8.888,0-14.645,4.04t-5.757,10.5a11.97,11.97,0,0,0,4.444,9.6A16.974,16.974,0,0,0,489.648-21.21ZM657.308,2.02a84.4,84.4,0,0,1-26.664-4.343,60.866,60.866,0,0,1-22.22-12.625l11.514-19.8a95.819,95.819,0,0,0,18.887,10.3A47.975,47.975,0,0,0,656.5-20.806q6.262,0,9.7-2.222a7.227,7.227,0,0,0,3.434-6.464q0-4.242-4.343-6.767t-15.251-5.353q-10.706-3.03-18.079-5.858a51,51,0,0,1-12.019-6.262,20.334,20.334,0,0,1-6.666-7.878,25.2,25.2,0,0,1-2.02-10.5,33.35,33.35,0,0,1,3.232-14.746,33.2,33.2,0,0,1,8.888-11.312,42.185,42.185,0,0,1,13.433-7.272,52.409,52.409,0,0,1,16.867-2.626,74.848,74.848,0,0,1,22.321,3.232,55.81,55.81,0,0,1,20.1,11.716L683.568-73.73a85.345,85.345,0,0,0-16.16-9.09,36.871,36.871,0,0,0-13.736-2.828,17.37,17.37,0,0,0-8.888,2.121,7.253,7.253,0,0,0-3.636,6.767,7.194,7.194,0,0,0,3.939,6.666q3.939,2.222,14.645,4.848a186.315,186.315,0,0,1,19.089,6.06,51.061,51.061,0,0,1,12.625,6.767,22.938,22.938,0,0,1,7.07,8.585,27.442,27.442,0,0,1,2.222,11.514q0,15.756-11.716,25.048T657.308,2.02Zm89.082,0A41.563,41.563,0,0,1,731.745-.5a34.272,34.272,0,0,1-11.615-7.07,33.911,33.911,0,0,1-7.676-10.706,31.811,31.811,0,0,1-2.828-13.433,30.826,30.826,0,0,1,3.333-14.342,32.9,32.9,0,0,1,9.393-11.11,46.368,46.368,0,0,1,14.342-7.272,60.617,60.617,0,0,1,18.382-2.626A73.881,73.881,0,0,1,768-65.953a42.455,42.455,0,0,1,10.908,3.333v-4.848q0-18.382-21.21-18.382a47.143,47.143,0,0,0-16.564,2.929,79.616,79.616,0,0,0-16.564,8.787l-9.494-20.2a84.764,84.764,0,0,1,21.816-10.3,82.325,82.325,0,0,1,24.038-3.434q24.038,0,37.168,11.312t13.13,33.128v27.27q0,4.848,1.515,6.767T818.1-27.27V0a53.966,53.966,0,0,1-7.676,1.313q-3.434.3-6.262.3-9.09,0-13.736-3.535a15.651,15.651,0,0,1-5.858-10l-.606-4.848A48.426,48.426,0,0,1,767.1-2.828,46.082,46.082,0,0,1,746.39,2.02Zm9.494-23.23a29.359,29.359,0,0,0,10.2-1.818,23.767,23.767,0,0,0,8.181-4.848q4.646-3.636,4.646-7.676v-10.1a52.345,52.345,0,0,0-9.191-2.525,51.089,51.089,0,0,0-9.191-.909q-8.888,0-14.645,4.04t-5.757,10.5a11.97,11.97,0,0,0,4.444,9.6A16.973,16.973,0,0,0,755.884-21.21ZM859.308,0,821.736-106.05h33.33L878.3-25.856l23.432-80.194h30.1L894.456,0Zm84.84,0V-106.05h32.32V0Zm0-118.17v-29.29h32.32v29.29ZM1100.9,0h-32.32V-59.59q0-10.5-3.939-15.251a12.85,12.85,0,0,0-10.4-4.747,17.917,17.917,0,0,0-6.868,1.414,28.414,28.414,0,0,0-6.666,3.939,30.25,30.25,0,0,0-5.757,5.959,28.359,28.359,0,0,0-3.939,7.474V0h-32.32V-106.05h29.088v17.776a38.606,38.606,0,0,1,16.564-14.645q10.706-5.151,24.644-5.151,10.3,0,16.564,3.737a26.767,26.767,0,0,1,9.7,9.7,37.515,37.515,0,0,1,4.545,13.029,88.446,88.446,0,0,1,1.111,13.736Zm62.62.4a43.138,43.138,0,0,1-19.19-4.242,45.27,45.27,0,0,1-14.847-11.514,53.69,53.69,0,0,1-9.595-16.968,61.873,61.873,0,0,1-3.434-20.806,63.084,63.084,0,0,1,3.636-21.715,54.078,54.078,0,0,1,10.1-17.372,46.69,46.69,0,0,1,15.554-11.615,46.7,46.7,0,0,1,20-4.242q12.12,0,21.109,5.151a39.568,39.568,0,0,1,14.443,14.241V-106.05h28.078V-7.272a50.789,50.789,0,0,1-4.545,21.816A47.486,47.486,0,0,1,1212.2,31.007a56.964,56.964,0,0,1-19.392,10.4,80.841,80.841,0,0,1-24.846,3.636q-17.17,0-29.29-5.454a61.963,61.963,0,0,1-21.21-15.756l17.372-17.574a42.332,42.332,0,0,0,14.544,10.6,44.468,44.468,0,0,0,18.584,3.939,37.571,37.571,0,0,0,11.11-1.616,26.832,26.832,0,0,0,9.292-4.949,22.783,22.783,0,0,0,6.363-8.686,32.1,32.1,0,0,0,2.323-12.827v-10.3a31.621,31.621,0,0,1-13.938,13.433A43.2,43.2,0,0,1,1163.52.4Zm11.11-25.654a22.529,22.529,0,0,0,13.332-4.141,28.263,28.263,0,0,0,9.09-10.6v-22.22a29.226,29.226,0,0,0-9.9-13.433,23.324,23.324,0,0,0-14.14-4.949,20.019,20.019,0,0,0-9.595,2.323,23.817,23.817,0,0,0-7.474,6.262,29.4,29.4,0,0,0-4.848,9.09,33.319,33.319,0,0,0-1.717,10.605,29.643,29.643,0,0,0,1.919,10.807,26.085,26.085,0,0,0,5.353,8.585,24.638,24.638,0,0,0,7.979,5.656A24.345,24.345,0,0,0,1174.63-25.25ZM1293.406,2.02a84.4,84.4,0,0,1-26.664-4.343,60.866,60.866,0,0,1-22.22-12.625l11.514-19.8a95.82,95.82,0,0,0,18.887,10.3,47.975,47.975,0,0,0,17.675,3.636q6.262,0,9.7-2.222a7.227,7.227,0,0,0,3.434-6.464q0-4.242-4.343-6.767t-15.251-5.353q-10.706-3.03-18.079-5.858a51,51,0,0,1-12.019-6.262,20.334,20.334,0,0,1-6.666-7.878,25.2,25.2,0,0,1-2.02-10.5,33.35,33.35,0,0,1,3.232-14.746,33.2,33.2,0,0,1,8.888-11.312,42.184,42.184,0,0,1,13.433-7.272,52.409,52.409,0,0,1,16.867-2.626,74.848,74.848,0,0,1,22.321,3.232,55.81,55.81,0,0,1,20.1,11.716L1319.666-73.73a85.344,85.344,0,0,0-16.16-9.09,36.872,36.872,0,0,0-13.736-2.828,17.369,17.369,0,0,0-8.888,2.121,7.253,7.253,0,0,0-3.636,6.767,7.194,7.194,0,0,0,3.939,6.666q3.939,2.222,14.645,4.848a186.31,186.31,0,0,1,19.089,6.06,51.061,51.061,0,0,1,12.625,6.767,22.937,22.937,0,0,1,7.07,8.585,27.442,27.442,0,0,1,2.222,11.514q0,15.756-11.716,25.048T1293.406,2.02Z" transform="translate(70 637)" fill="#fff"/>
  </g>
</svg>
