<?xml version="1.0" encoding="utf-8"?>
<!-- Generator: Adobe Illustrator 21.0.2, SVG Export Plug-In . SVG Version: 6.00 Build 0)  -->
<svg version="1.1" id="Layer_1" xmlns="http://www.w3.org/2000/svg" xmlns:xlink="http://www.w3.org/1999/xlink" x="0px" y="0px"
	 viewBox="0 0 50 33.3" style="enable-background:new 0 0 50 33.3;" xml:space="preserve">
<style type="text/css">
	.st0{fill:none;}
	.st1{fill:#FF5F00;}
	.st2{fill:#EB001B;}
	.st3{fill:#F79E1B;}
</style>
<title>Asset 1</title>
<g id="Layer_2">
	<g id="Layer_1-2">
		<rect x="-5.1" y="-5" class="st0" width="60.3" height="49.4"/>
		<g id="_Group_">
			<rect x="18.5" y="4.3" class="st1" width="12.9" height="23.2"/>
			<path id="_Path_" class="st2" d="M19.4,16c0-4.5,2.1-8.8,5.6-11.6c-6.4-5-15.7-3.9-20.7,2.5S0.3,22.5,6.7,27.6
				c5.4,4.2,12.9,4.2,18.3,0C21.4,24.8,19.4,20.5,19.4,16z"/>
			<path class="st3" d="M48.9,16c0,8.2-6.6,14.8-14.8,14.8c-3.3,0-6.5-1.1-9.1-3.2c6.4-5,7.5-14.3,2.5-20.7
				c-0.7-0.9-1.6-1.8-2.5-2.5c6.4-5,15.7-3.9,20.7,2.5C47.8,9.4,48.9,12.6,48.9,16L48.9,16z"/>
			<path class="st3" d="M47.5,25.1v-0.5h0.2v-0.1h-0.5v0.1h0.2L47.5,25.1L47.5,25.1z M48.4,25.1v-0.6h-0.1l-0.2,0.4L48,24.5h-0.1
				v0.6h0.1v-0.4l0.2,0.4h0.1l0.2-0.4L48.4,25.1L48.4,25.1z"/>
		</g>
	</g>
</g>
</svg>
