<svg xmlns="http://www.w3.org/2000/svg" width="1078.478" height="394" viewBox="0 0 1078.478 394">
  <g id="Group_14" data-name="Group 14" transform="translate(957 1769)">
    <g id="Group_11" data-name="Group 11" transform="translate(0 -1339)">
      <circle id="Ellipse_1" data-name="Ellipse 1" cx="197" cy="197" r="197" transform="translate(-957 -430)" fill="#74c947"/>
      <g id="piggy-bank" transform="translate(-931.559 -455.461)">
        <g id="Group_1" data-name="Group 1" transform="translate(53.7 112.106)">
          <path id="Path_2" data-name="Path 2" d="M277.5,196.035H269.03c-5.588-17.123-16.522-32.324-31.122-44.1a8.113,8.113,0,0,0-.24-1.682c-3.064-10.755.721-20.548,5.107-27.577a6.9,6.9,0,0,0-6.669-10.514c-12.917,1.622-21.809,6.369-27.938,11.716a27.147,27.147,0,0,0-8.532,14.059A87.359,87.359,0,0,1,61.571,186.783,84.893,84.893,0,0,0,56.1,242.538h0a1.051,1.051,0,0,0,.06.3A86.72,86.72,0,0,0,63.373,262c4.146,8.952,10.154,19.406,18.445,27.878,11.956,12.317,14,27.577,14.3,34.186v3.244h0a6.29,6.29,0,0,0,6.248,5.828h37.971a6.244,6.244,0,0,0,6.248-6.248v-9.373a130.6,130.6,0,0,0,16.883,1.142,121.243,121.243,0,0,0,13.278-.721v8.952a6.244,6.244,0,0,0,6.248,6.248h38.091a6.244,6.244,0,0,0,6.248-6.248v-9.373c.06-3.124,1.141-15.561,12.917-26.2l1.262-1.081c.12-.12.24-.18.36-.3h0a93.964,93.964,0,0,0,27.757-42.417h7.991a11.539,11.539,0,0,0,11.535-11.536V207.571A11.72,11.72,0,0,0,277.5,196.035Zm-47.524,2.043a9.433,9.433,0,1,1,9.433-9.433A9.41,9.41,0,0,1,229.978,198.078Z" transform="translate(-53.7 -112.106)" fill="#fff"/>
        </g>
      </g>
    </g>
    <path id="Path_43" data-name="Path 43" d="M114.264-8.28a77.156,77.156,0,0,1-16.87,6.831,70.915,70.915,0,0,1-18.94,2.484A69.3,69.3,0,0,1,48.645-5.279,72.136,72.136,0,0,1,25.668-22.045a76.849,76.849,0,0,1-14.8-23.909A75.313,75.313,0,0,1,5.589-73.692a73.341,73.341,0,0,1,5.485-27.945,75.755,75.755,0,0,1,15.318-23.805A73.863,73.863,0,0,1,49.68-141.9,70.284,70.284,0,0,1,79.074-148a67.443,67.443,0,0,1,29.808,6.52,74.049,74.049,0,0,1,22.977,17.077,76.561,76.561,0,0,1,14.7,24.012,75.554,75.554,0,0,1,5.175,27.324,73.894,73.894,0,0,1-4.968,26.91,74.166,74.166,0,0,1-14.076,22.977L153.8,0H121.923ZM78.66-29.187a36.2,36.2,0,0,0,14.49-2.691L69.552-57.96H101.43l9.108,10.143a48.719,48.719,0,0,0,4.968-12.42,55.269,55.269,0,0,0,1.656-13.455,54.982,54.982,0,0,0-2.484-16.456,41.728,41.728,0,0,0-7.452-14.076,38.206,38.206,0,0,0-12.109-9.833,35.066,35.066,0,0,0-16.457-3.726,35.2,35.2,0,0,0-16.87,3.83,37.1,37.1,0,0,0-12.006,10.143,43.627,43.627,0,0,0-7.245,14.283,56.482,56.482,0,0,0-2.381,16.25,54.982,54.982,0,0,0,2.484,16.456,42.772,42.772,0,0,0,7.349,14.076A36.746,36.746,0,0,0,62.1-32.913,35.7,35.7,0,0,0,78.66-29.187ZM211.347,2.07a86.491,86.491,0,0,1-27.324-4.451,62.373,62.373,0,0,1-22.77-12.937l11.8-20.286a98.191,98.191,0,0,0,19.355,10.557,49.163,49.163,0,0,0,18.113,3.726q6.417,0,9.936-2.277a7.406,7.406,0,0,0,3.519-6.624q0-4.347-4.451-6.934T203.9-42.642q-10.971-3.105-18.527-6a52.263,52.263,0,0,1-12.316-6.417,20.837,20.837,0,0,1-6.831-8.073,25.826,25.826,0,0,1-2.07-10.764,34.175,34.175,0,0,1,3.312-15.111,34.024,34.024,0,0,1,9.108-11.592,43.229,43.229,0,0,1,13.765-7.452,53.707,53.707,0,0,1,17.285-2.691,76.7,76.7,0,0,1,22.874,3.312,57.192,57.192,0,0,1,20.6,12.006L238.257-75.555A87.456,87.456,0,0,0,221.7-84.87a37.784,37.784,0,0,0-14.076-2.9,17.8,17.8,0,0,0-9.108,2.173,7.432,7.432,0,0,0-3.726,6.935,7.373,7.373,0,0,0,4.036,6.831q4.037,2.277,15.008,4.968a190.924,190.924,0,0,1,19.561,6.21,52.324,52.324,0,0,1,12.938,6.935,23.506,23.506,0,0,1,7.245,8.8,28.122,28.122,0,0,1,2.277,11.8q0,16.146-12.006,25.668T211.347,2.07Zm91.287,0A42.592,42.592,0,0,1,287.626-.517a35.12,35.12,0,0,1-11.9-7.245,34.751,34.751,0,0,1-7.866-10.971,32.6,32.6,0,0,1-2.9-13.766,31.589,31.589,0,0,1,3.416-14.7A33.717,33.717,0,0,1,278-58.581a47.516,47.516,0,0,1,14.7-7.452,62.117,62.117,0,0,1,18.837-2.691,75.71,75.71,0,0,1,13.248,1.138,43.505,43.505,0,0,1,11.178,3.416v-4.968q0-18.837-21.735-18.837a48.31,48.31,0,0,0-16.974,3,81.587,81.587,0,0,0-16.974,9l-9.729-20.7A86.863,86.863,0,0,1,292.9-107.226a84.363,84.363,0,0,1,24.633-3.519q24.633,0,38.088,11.592t13.455,33.948V-37.26q0,4.968,1.553,6.935t5.486,2.38V0a55.305,55.305,0,0,1-7.866,1.345q-3.519.311-6.417.311-9.315,0-14.076-3.623a16.038,16.038,0,0,1-6-10.247l-.621-4.968A49.624,49.624,0,0,1,323.852-2.9,47.222,47.222,0,0,1,302.634,2.07Zm9.729-23.8A30.086,30.086,0,0,0,322.816-23.6a24.355,24.355,0,0,0,8.384-4.968q4.761-3.726,4.761-7.866v-10.35a53.639,53.639,0,0,0-9.418-2.588,52.354,52.354,0,0,0-9.419-.931q-9.108,0-15.007,4.14t-5.9,10.764a12.266,12.266,0,0,0,4.554,9.833A17.394,17.394,0,0,0,312.363-21.735ZM418.347,0l-38.5-108.675H414L437.8-26.5l24.012-82.179H492.66L454.365,0ZM553.518,2.07a64.22,64.22,0,0,1-24.529-4.451A54.536,54.536,0,0,1,510.565-14.49a51.9,51.9,0,0,1-11.488-17.7A57.09,57.09,0,0,1,495.144-53.2a62.666,62.666,0,0,1,3.933-22.252,53.958,53.958,0,0,1,11.385-18.32,53.14,53.14,0,0,1,18.319-12.42,63.5,63.5,0,0,1,24.737-4.554,62.733,62.733,0,0,1,24.633,4.554,54.109,54.109,0,0,1,18.216,12.316,52.215,52.215,0,0,1,11.281,17.906,59.856,59.856,0,0,1,3.83,21.321q0,2.9-.207,5.693a40.324,40.324,0,0,1-.621,4.864H530.334q.828,10.971,7.969,16.664a25.365,25.365,0,0,0,16.25,5.692,29.772,29.772,0,0,0,13.973-3.519q6.727-3.519,9-9.522l28.152,7.866A50.654,50.654,0,0,1,585.81-6Q572.355,2.07,553.518,2.07Zm22.977-66.654q-1.035-10.35-7.452-16.353a22.437,22.437,0,0,0-15.939-6q-9.729,0-16.042,6.106t-7.349,16.25Z" transform="translate(-490 -1498)" fill="#74c947"/>
  </g>
</svg>
